<?xml version="1.0" encoding="utf-8"?>
<!-- Svg Vector Icons : http://www.onlinewebfonts.com/icon -->
<!DOCTYPE svg PUBLIC "-//W3C//DTD SVG 1.1//EN" "http://www.w3.org/Graphics/SVG/1.1/DTD/svg11.dtd">
<svg version="1.1" xmlns="http://www.w3.org/2000/svg" xmlns:xlink="http://www.w3.org/1999/xlink" x="0px" y="0px" viewBox="0 0 1000 1000" enable-background="new 0 0 1000 1000" xml:space="preserve">
<metadata> Svg Vector Icons : http://www.onlinewebfonts.com/icon </metadata>
<g><g transform="translate(0.000000,511.000000) scale(0.100000,-0.100000)"><path d="M1203.5,1302.1v-3707.9h439.2h439.2v3707.9V5010h-439.2h-439.2V1302.1z"/><path d="M7066.7,1481.8c514.8-463.7,853.9-900.9,1050.1-1346.3c320.7-735.4,239-1242.1-251.3-1571c-384.1-253.3-829.4-347.3-1262.5-265.6c-140.9,26.6-455.6,110.3-545.5,145c-28.6,12.3-32.7-28.6-32.7-427v-437.2l190-55.2c547.5-155.3,1115.4-145,1671.1,26.6c610.8,190,1039.9,600.6,1219.6,1166.5C9289.4-710.2,9222-201.5,8874.7,489c-196.1,386.1-371.8,633.3-659.9,919.3L7986,1639.2h-547.5h-545.5L7066.7,1481.8z"/><path d="M4004.4-1337.4c-130.7-47-271.7-196.1-328.9-345.2c-36.8-98.1-42.9-149.2-36.8-273.8c14.3-239,118.5-406.6,310.5-500.5c239-116.5,474-81.7,655.8,98c69.5,71.5,116.5,141,138.9,206.4c42.9,126.6,44.9,343.2,2,467.8c-38.8,116.5-169.6,267.6-281.9,324.8C4351.6-1302.7,4129-1290.4,4004.4-1337.4z"/><path d="M1595.7-2712.3c-420.8-57.2-678.3-263.5-760-610.8c-38.8-161.4-18.4-476,38.8-604.7c51.1-114.4,145-222.7,237-271.7l61.3-30.7l-112.4-28.6c-61.3-16.3-147.1-38.8-188-49l-77.6-20.4v-234.9c0-214.5,4.1-234.9,36.8-224.7c18.4,6.1,365.7,83.8,770.2,175.7c404.5,89.9,755.9,167.5,782.4,173.6c42.9,10.2,45,18.4,45,245.2c0,173.7-6.1,234.9-24.5,234.9c-14.3,0-114.4-18.4-220.6-40.9c-355.5-73.5-584.3-42.9-762,104.2c-204.3,169.6-218.6,449.5-30.6,625.1c75.6,69.5,155.3,89.9,363.6,91.9c204.3,2,382-34.7,506.6-106.2l65.4-38.8v232.9c0,218.6-2,234.9-44.9,265.6C2155.5-2736.8,1826.6-2681.7,1595.7-2712.3z"/></g></g>
</svg>