<?xml version="1.0" encoding="iso-8859-1"?>
<!-- Generator: Adobe Illustrator 19.0.0, SVG Export Plug-In . SVG Version: 6.00 Build 0)  -->
<svg xmlns="http://www.w3.org/2000/svg" xmlns:xlink="http://www.w3.org/1999/xlink" version="1.1" id="Layer_1" x="0px" y="0px" viewBox="0 0 330 330" style="enable-background:new 0 0 330 330;" xml:space="preserve" width="512px" height="512px">
<path id="XMLID_352_" d="M240,190h-15v-30h15c8.284,0,15-6.716,15-15s-6.716-15-15-15h-15V75c0-41.355-33.645-75-75-75  S75,33.645,75,75c0,8.284,6.716,15,15,15s15-6.716,15-15c0-24.813,20.187-45,45-45s45,20.187,45,45v55h-75c-8.284,0-15,6.716-15,15  s6.716,15,15,15h75v30h-75c-8.284,0-15,6.716-15,15s6.716,15,15,15h75v95c0,8.284,6.716,15,15,15c8.284,0,15-6.716,15-15v-95h15  c8.284,0,15-6.716,15-15S248.284,190,240,190z" fill="#FFFFFF"/>
<g>
</g>
<g>
</g>
<g>
</g>
<g>
</g>
<g>
</g>
<g>
</g>
<g>
</g>
<g>
</g>
<g>
</g>
<g>
</g>
<g>
</g>
<g>
</g>
<g>
</g>
<g>
</g>
<g>
</g>
</svg>
