<?xml version="1.0" encoding="utf-8"?>
<!-- Svg Vector Icons : http://www.onlinewebfonts.com/icon -->
<!DOCTYPE svg PUBLIC "-//W3C//DTD SVG 1.1//EN" "http://www.w3.org/Graphics/SVG/1.1/DTD/svg11.dtd">
<svg version="1.1" xmlns="http://www.w3.org/2000/svg" xmlns:xlink="http://www.w3.org/1999/xlink" x="0px" y="0px" viewBox="0 0 1000 1000" enable-background="new 0 0 1000 1000" xml:space="preserve">
<metadata> Svg Vector Icons : http://www.onlinewebfonts.com/icon </metadata>
<g><g transform="translate(0.000000,511.000000) scale(0.100000,-0.100000)"><path d="M100,110v-3675h459.4h459.4v1159.7v1157.6l637,751.3c506.3,596.2,643.1,745.2,659.5,720.7c12.3-14.3,508.4-873.8,1102.5-1909l1080-1880.4h518.6h518.6l-51,87.8c-169.5,292-2425.5,4158.9-2507.2,4295.7l-98,167.4l1129,1374c620.7,757.5,1135.2,1386.3,1143.3,1400.6c10.2,18.4-106.2,24.5-504.3,24.5h-520.6L2597,1943.4C1755.8,928.7,1059.6,101.8,1049.4,103.9c-12.3,4.1-22.5,677.8-26.5,1843.6l-4.1,1837.5H559.4H100V110z"/><path d="M6082.1,1508.5v-377.7h1276c702.3,0,1276-4.1,1276-8.2S7991,171.3,7205-980.3L5775.8-3073v-247v-245h2062.1H9900v367.5v367.5H8419.8c-814.6,0-1480.2,4.1-1480.2,10.2c0,4.1,643.1,951.4,1429.2,2102.9l1429.2,2092.7V1631v255.2H7940H6082.1V1508.5z"/></g></g>
</svg>