<?xml version="1.0" encoding="utf-8"?>
<!-- Generator: Adobe Illustrator 21.1.0, SVG Export Plug-In . SVG Version: 6.00 Build 0)  -->
<svg version="1.1" id="Layer_1" xmlns="http://www.w3.org/2000/svg" xmlns:xlink="http://www.w3.org/1999/xlink" x="0px" y="0px"
	 viewBox="0 0 18 14" style="enable-background:new 0 0 18 14;" xml:space="preserve">

<path class="st0" d="M16,8H1C0.4,8,0,7.6,0,7s0.4-1,1-1h15c0.6,0,1,0.4,1,1S16.6,8,16,8z"/>
<path class="st0" d="M11,14c-0.3,0-0.5-0.1-0.7-0.3c-0.4-0.4-0.4-1,0-1.4L15.6,7l-5.3-5.3c-0.4-0.4-0.4-1,0-1.4s1-0.4,1.4,0l6,6
	c0.4,0.4,0.4,1,0,1.4l-6,6C11.5,13.9,11.3,14,11,14z"/>
</svg>
