<?xml version="1.0" encoding="iso-8859-1"?>
<!-- Generator: Adobe Illustrator 16.0.0, SVG Export Plug-In . SVG Version: 6.00 Build 0)  -->
<!DOCTYPE svg PUBLIC "-//W3C//DTD SVG 1.1//EN" "http://www.w3.org/Graphics/SVG/1.1/DTD/svg11.dtd">
<svg xmlns="http://www.w3.org/2000/svg" xmlns:xlink="http://www.w3.org/1999/xlink" version="1.1" id="Layer_1" x="0px" y="0px" width="512px" height="512px" viewBox="0 0 612 612" style="enable-background:new 0 0 612 612;" xml:space="preserve">
<g>
	<g>
		<g>
			<path d="M330.385,281.413v-178.73c39.15,10.892,66.109,45.97,66.109,86.894h51.516c0-69.846-49.625-127.968-117.625-139.717V0     H278.87v50.215C214.99,62.729,163.99,120.105,163.99,189.061s51,126.531,114.879,139.093v178.511     c-35.03-11.554-62.678-46.123-62.678-86.301h-51.515c0,69.121,50.314,126.772,114.193,139.347V612h51.515v-51.913     c68-11.714,116.939-69.658,116.939-139.336S398.385,293.127,330.385,281.413z M278.87,275.161     c-35.03-11.401-63.364-45.585-63.364-85.973s28.333-74.569,63.364-85.973V275.161z M330.385,507.307V334.191     c39.15,10.748,65.424,45.422,65.424,86.558S369.535,496.559,330.385,507.307z" fill="#FFFFFF"/>
		</g>
	</g>
</g>
<g>
</g>
<g>
</g>
<g>
</g>
<g>
</g>
<g>
</g>
<g>
</g>
<g>
</g>
<g>
</g>
<g>
</g>
<g>
</g>
<g>
</g>
<g>
</g>
<g>
</g>
<g>
</g>
<g>
</g>
</svg>
