<?xml version="1.0" encoding="iso-8859-1"?>
<!-- Generator: Adobe Illustrator 16.0.0, SVG Export Plug-In . SVG Version: 6.00 Build 0)  -->
<!DOCTYPE svg PUBLIC "-//W3C//DTD SVG 1.1//EN" "http://www.w3.org/Graphics/SVG/1.1/DTD/svg11.dtd">
<svg version="1.1" id="Capa_1" xmlns="http://www.w3.org/2000/svg" xmlns:xlink="http://www.w3.org/1999/xlink" x="0px" y="0px"
	 width="79.536px" height="79.536px" viewBox="0 0 79.536 79.536" style="enable-background:new 0 0 79.536 79.536;"
	 xml:space="preserve">
<g>
	<path style="fill:#010002;" d="M36.081,60.766V42.145c-6.892-1.662-11.94-4.173-15.159-7.537
		c-3.213-3.366-4.826-7.449-4.826-12.249c0-4.868,1.82-8.951,5.456-12.252c3.643-3.304,8.479-5.209,14.529-5.706V0h7.643v4.401
		c5.588,0.557,10.036,2.162,13.334,4.821c3.309,2.651,5.411,6.198,6.333,10.641l-13.344,1.468c-0.803-3.5-2.915-5.864-6.323-7.109
		v17.38c8.436,1.926,14.184,4.422,17.233,7.498c3.065,3.065,4.588,6.996,4.588,11.801c0,5.364-1.927,9.89-5.773,13.561
		c-3.843,3.682-9.202,5.93-16.048,6.758v8.316h-7.643v-8.088C30,70.815,25.062,68.905,21.267,65.7
		c-3.798-3.2-6.219-7.716-7.275-13.551l13.756-1.248c0.562,2.366,1.616,4.422,3.169,6.136
		C32.459,58.761,34.184,60.004,36.081,60.766z M36.081,14.084c-2.079,0.598-3.733,1.61-4.958,3.027
		c-1.225,1.421-1.846,2.99-1.846,4.714c0,1.569,0.557,3.027,1.688,4.373c1.124,1.359,2.825,2.439,5.111,3.267V14.084H36.081z
		 M43.724,61.392c2.631-0.409,4.774-1.439,6.422-3.086c1.656-1.657,2.479-3.583,2.479-5.81c0-1.979-0.698-3.697-2.076-5.137
		c-1.388-1.43-3.661-2.538-6.825-3.294V61.392z"/>
</g>
<g>
</g>
<g>
</g>
<g>
</g>
<g>
</g>
<g>
</g>
<g>
</g>
<g>
</g>
<g>
</g>
<g>
</g>
<g>
</g>
<g>
</g>
<g>
</g>
<g>
</g>
<g>
</g>
<g>
</g>
</svg>
