<svg xmlns="http://www.w3.org/2000/svg" viewBox="0 0 441 502"><g fill="#fff" stroke-miterlimit="10"><circle cx="220" cy="251" r="51" stroke="#1f4f77" stroke-width="44.563"/><g stroke="#2c76b7"><circle cx="96" cy="321" r="39" stroke-width="24.375"/><circle cx="96" cy="181" r="38" stroke-width="23.75"/><circle cx="220" cy="109" r="38.5" stroke-width="24.06"/><circle cx="344.5" cy="180.5" r="38" stroke-width="23.75"/><circle cx="344.5" cy="321.5" r="38.5" stroke-width="24.06"/><circle cx="220" cy="397" r="39.5" stroke-width="24.688"/></g></g><g fill="#2c76b7"><circle cx="22" cy="366" r="22"/><circle cx="220" cy="480" r="22"/><circle cx="419" cy="366" r="22"/><circle cx="419" cy="137" r="22"/><circle cx="220" cy="22" r="22"/><circle cx="22" cy="137" r="22"/></g><g fill="none" stroke="#2c76b7" stroke-width="6" stroke-miterlimit="10"><path d="m33 143l28 16"/><path d="m34 359.1l28-16.2"/><path d="m221 472.1v-32.2"/><path d="m408 359.1l-28-16.2"/><path d="m406.5 143.2l-27 17.6"/><path d="m220 33.9v32.2"/><path d="m138 156.1l46-26.1"/><path d="m259.1 131.8l45.8 26.4"/><path d="m342 228.6v52.9"/><path d="m304.9 345.8l-45.8 26.4"/><path d="m178.9 371.2l-45.8-26.4"/><path d="m97 279.5v-52.9"/></g></svg>