<?xml version="1.0" encoding="iso-8859-1"?>
<!-- Generator: Adobe Illustrator 16.0.0, SVG Export Plug-In . SVG Version: 6.00 Build 0)  -->
<!DOCTYPE svg PUBLIC "-//W3C//DTD SVG 1.1//EN" "http://www.w3.org/Graphics/SVG/1.1/DTD/svg11.dtd">
<svg xmlns="http://www.w3.org/2000/svg" xmlns:xlink="http://www.w3.org/1999/xlink" version="1.1" id="Layer_1" x="0px" y="0px" width="512px" height="512px" viewBox="0 0 612 612" style="enable-background:new 0 0 612 612;" xml:space="preserve">
<g>
	<g>
		<g>
			<path d="M563.838,307.003c29.225-22.906,48.11-58.876,48.11-99.273c0-0.194-0.013-0.383-0.013-0.575H612     c0-39.689-18.839-75.006-48.018-97.564c-20.859-16.257-46.834-25.97-75.2-25.97c-27.061,0-53.742,8.771-72.299,23.587V89.632     h-51.545V522.61h51.545v-17.914c18.557,14.879,45.285,23.684,72.392,23.684C556.863,528.38,612,473.124,612,405.085h-0.052     C611.924,365.171,593.046,329.638,563.838,307.003z M560.403,405.155c0,39.227-32.203,71.141-71.788,71.141     c-28.405,0-53.011-16.551-64.664-40.504c-4.478-9.344-7.808-20.096-7.808-31.037l0.008-71.832h72.992     C528.438,332.925,560.403,365.325,560.403,405.155z M416.149,281.379l-0.043-73.798c0-39.174,33.04-72.175,72.602-72.175     c23.47,0,44.337,11.461,57.436,28.962c8.953,12.107,14.26,27.119,14.26,43.362c0,40.609-31.966,73.649-71.262,73.649H416.149z" fill="#FFFFFF"/>
		</g>
		<g>
			<path d="M84.534,389.778c0,48.195-37.112,85.949-84.534,85.949v51.545c37.112,0,71.004-14.322,96.688-40.33     c25.529-25.854,39.391-60.363,39.391-97.164V137.054h136.079v387.619h51.544V85.508H84.534V389.778z" fill="#FFFFFF"/>
		</g>
	</g>
</g>
<g>
</g>
<g>
</g>
<g>
</g>
<g>
</g>
<g>
</g>
<g>
</g>
<g>
</g>
<g>
</g>
<g>
</g>
<g>
</g>
<g>
</g>
<g>
</g>
<g>
</g>
<g>
</g>
<g>
</g>
</svg>
