<?xml version="1.0" encoding="utf-8"?>
<!-- Svg Vector Icons : http://www.onlinewebfonts.com/icon -->
<!DOCTYPE svg PUBLIC "-//W3C//DTD SVG 1.1//EN" "http://www.w3.org/Graphics/SVG/1.1/DTD/svg11.dtd">
<svg version="1.1" xmlns="http://www.w3.org/2000/svg" xmlns:xlink="http://www.w3.org/1999/xlink" x="0px" y="0px" viewBox="0 0 1000 1000" enable-background="new 0 0 1000 1000" xml:space="preserve">
<metadata> Svg Vector Icons : http://www.onlinewebfonts.com/icon </metadata>
<g><g transform="translate(0.000000,511.000000) scale(0.100000,-0.100000)"><path d="M4703.8,5002.5C2511.9,4888.2,629.9,3252.1,198.1,1081.6C-78.8-304.8,234.9-1695,1083-2835.5c214.9-288.5,683.5-757.1,972-972c867.4-644.8,1882-983.6,2941.2-983.6c2298.3,0,4292.7,1595.5,4792.2,3833.8c145.2,658.3,149.1,1415.4,9.7,2100.8c-96.8,468.6-375.6,1161.7-629.3,1558.7c-395,619.6-956.5,1181.1-1576.1,1576.1c-79.4,50.4-275,156.8-435.7,234.3C6374.7,4896,5600.2,5050.9,4703.8,5002.5z M5662.2,3972.4c826.8-154.9,1533.5-522.8,2104.7-1095.9c573.1-571.2,941-1281.8,1095.9-2104.7c48.4-263.3,58.1-888.7,17.4-1177.2c-122-892.6-518.9-1671-1165.6-2296.4c-590.6-569.3-1279.9-913.9-2106.6-1057.2c-304-52.3-931.3-46.5-1256.6,11.6c-1006.9,178.1-1884,714.5-2484.2,1518C827.4-833.4,831.2,1073.8,1876.8,2467.9c143.3,189.8,476.3,536.3,662.2,685.4c544.1,439.5,1208.2,728,1920.8,836.5C4705.7,4026.6,5426,4016.9,5662.2,3972.4z"/><path d="M2337.7,1860c-96.8-36.8-139.4-75.5-193.6-174.3c-40.7-77.5-40.7-85.2-46.5-1612.9c-3.9-1001.1,1.9-1560.6,15.5-1609c29-108.4,96.8-195.6,183.9-242c75.5-38.7,104.6-40.7,861.6-40.7c867.4,0,948.8,9.7,1198.5,125.9c166.5,79.4,329.2,247.8,416.3,429.9c92.9,199.4,116.2,319.5,104.6,578.9c-11.6,259.4-52.3,381.4-180.1,544.1c-71.6,91-263.3,244-342.7,273c-15.5,5.8,23.2,52.3,94.9,118.1c220.7,201.4,323.3,503.4,276.9,819c-54.2,389.2-286.6,668-648.6,776.4C3935.1,1890.9,2448,1900.6,2337.7,1860z M3642.7,1209.4c247.8-38.7,348.5-143.3,348.5-356.3c0-81.3-13.6-145.2-46.5-213c-92.9-199.4-166.5-224.6-683.5-238.2l-393.1-9.7v420.2v418.2h325.3C3371.6,1230.7,3573,1221,3642.7,1209.4z M3900.2-304.8c137.5-67.8,205.2-172.3,220.7-338.8c15.5-172.3-31-311.7-137.5-404.7c-133.6-118.1-182-127.8-673.8-135.5l-441.5-9.7v478.3V-237l460.8-7.8C3787.9-250.6,3787.9-250.6,3900.2-304.8z"/><path d="M5472.5,1865.8c-104.6-36.8-180.1-108.4-216.9-203.3c-32.9-87.1-34.8-183.9-34.8-1632.3c0-1442.5,1.9-1545.1,34.8-1630.3c42.6-108.4,122-180.1,230.4-211c54.2-13.6,298.2-17.4,749.3-13.6c741.6,9.7,780.3,15.5,1043.6,143.3c263.3,129.7,518.9,424,642.8,745.5c112.3,290.4,143.3,503.4,143.3,966.2c0,360.1-5.8,443.4-44.6,619.6c-83.3,395-232.4,675.8-474.4,904.2c-162.6,154.9-282.7,224.6-489.9,280.8c-139.4,38.7-205.2,42.6-838.4,46.5C5755.1,1885.1,5511.2,1881.3,5472.5,1865.8z M6765.9,1164.8c278.8-77.5,453.1-311.7,518.9-700.9c34.9-214.9,25.2-702.8-17.4-910c-71.6-329.2-199.4-528.6-404.7-631.2l-131.7-63.9l-381.4-7.7l-383.4-5.8v1185v1186.9l344.6-11.6C6535.5,1199.7,6692.3,1184.2,6765.9,1164.8z"/></g></g>
</svg>