<?xml version="1.0" encoding="utf-8"?>
<!-- Svg Vector Icons : http://www.onlinewebfonts.com/icon -->
<!DOCTYPE svg PUBLIC "-//W3C//DTD SVG 1.1//EN" "http://www.w3.org/Graphics/SVG/1.1/DTD/svg11.dtd">
<svg version="1.1" xmlns="http://www.w3.org/2000/svg" xmlns:xlink="http://www.w3.org/1999/xlink" x="0px" y="0px" viewBox="0 0 1000 1000" enable-background="new 0 0 1000 1000" xml:space="preserve">
<metadata> Svg Vector Icons : http://www.onlinewebfonts.com/icon </metadata>
<g><g transform="translate(0.000000,511.000000) scale(0.100000,-0.100000)"><path d="M100,110v-4372.5h551.7h551.7V-2301v1961.5h1665.2h1665.2v459.7v459.7H2868.5H1203.3v1491.5V3563H3175h1971.7v459.7v459.7H2623.4H100V110z"/><path d="M8951.2,2355.5c-376-63.3-790.7-306.5-1109.5-647.7c-79.7-85.8-218.6-267.7-308.5-402.5c-87.9-134.9-169.6-247.2-179.8-251.3c-24.5-10.2-34.7,69.5-71.5,557.8c-16.3,237-36.8,467.9-42.9,516.9l-10.2,85.8h-449.5h-447.5V-1024v-3238.5h541.5h541.5v2080v2080l141,286.1c480.1,970.5,1156.5,1366.9,1971.7,1152.4c87.9-24.5,161.4-40.9,165.5-36.8c2.1,4.1,47,204.3,100.1,445.4c53.1,241.1,100.1,453.6,106.2,472c6.1,26.6-22.5,42.9-128.7,77.6C9513.1,2375.9,9212.7,2398.4,8951.2,2355.5z"/></g></g>
</svg>