<?xml version="1.0" encoding="iso-8859-1"?>
<!-- Generator: Adobe Illustrator 16.0.0, SVG Export Plug-In . SVG Version: 6.00 Build 0)  -->
<!DOCTYPE svg PUBLIC "-//W3C//DTD SVG 1.1//EN" "http://www.w3.org/Graphics/SVG/1.1/DTD/svg11.dtd">
<svg xmlns="http://www.w3.org/2000/svg" xmlns:xlink="http://www.w3.org/1999/xlink" version="1.1" id="Layer_1" x="0px" y="0px" width="512px" height="512px" viewBox="0 0 612 612" style="enable-background:new 0 0 612 612;" xml:space="preserve">
<g>
	<g>
		<g>
			<path d="M494.671,283.53V105.25c39.053,10.865,65.943,45.854,65.943,86.675H612c0-69.67-49.501-127.646-117.329-139.365V0.771     h-51.386v52.144c-63.718,12.482-114.589,69.713-114.589,138.496c0,68.782,50.871,126.212,114.589,138.743v178.061     c-34.942-11.524-62.52-46.007-62.52-86.083H329.38c0,68.947,50.188,126.453,113.905,138.996v50.103h51.386v-49.727     c67.828-11.686,116.645-69.483,116.645-138.985S562.499,295.215,494.671,283.53z M380.081,191.54     c0-40.286,28.263-74.381,63.204-85.756v171.51C408.344,265.921,380.081,231.824,380.081,191.54z M494.671,508.855v-172.68     c39.053,10.721,65.259,45.308,65.259,86.34S533.724,498.134,494.671,508.855z" fill="#FFFFFF"/>
		</g>
		<g>
			<path d="M223.89,308.979c35.415-25.775,58.808-67.691,58.974-114.999h0.269c0-22.048-5.054-42.903-14.057-61.488     c-22.731-47.48-71.157-80.336-127.253-80.336c-77.81,0-141.131,63.212-141.31,140.981l-0.505,20.77L0,561.899h50.701V335.804     h91.636c51.264,0,89.24,36.448,89.24,84.786v141.31h51.385V420.59C282.963,373.884,260.06,333.402,223.89,308.979z      M50.701,284.418v-69.571l0.816-20.756l0.337-0.113h0.045c0-49.33,40.339-89.924,89.924-89.924     c38.521,0,71.45,24.505,84.231,58.567c3.517,9.626,5.437,20.012,5.437,30.844c0,50.15-40.337,90.952-89.667,90.952H50.701     V284.418z" fill="#FFFFFF"/>
		</g>
	</g>
</g>
<g>
</g>
<g>
</g>
<g>
</g>
<g>
</g>
<g>
</g>
<g>
</g>
<g>
</g>
<g>
</g>
<g>
</g>
<g>
</g>
<g>
</g>
<g>
</g>
<g>
</g>
<g>
</g>
<g>
</g>
</svg>
