<svg xmlns="http://www.w3.org/2000/svg" width="512" height="512">
  <circle cx="256.4" cy="255.9" r="256" fill="#ff7d00"/>
  <circle cx="106.7" cy="255.9" r="89.8" fill="#fff"/>
  <path d="M145.3 238.6c1 9-2.3 15.2-9.6 19a22 22 0 0 1 12.9 7.5c2.8 3.6 3.9 8.9 3.3 15.7-.4 3.4-1.2 6.5-2.4 9.1a20 20 0 0 1-11.8 10.8c-2.9 1.2-5.8 2-9 2.5a88 88 0 0 1-10.6 1.1V323h-11.3v-18.4h-9V323H86.7v-18.7a338 338 0 0 1-8 0H64l2.2-13.4h8.2c2.4 0 3.8-1.3 4.2-3.8v-29.4h1.2-1.2v-21.1c-.6-3.3-2.8-5-6.5-5H64v-12h22.6v-18.5h11.3v18.1l9-.1v-18H118v18.5a40.1 40.1 0 0 1 18.5 4.9 16 16 0 0 1 6 5.8 16 16 0 0 1 2.7 8.3zm-20.9 5.1a9.6 9.6 0 0 0-3.2-7.4 11 11 0 0 0-3.5-2 25.3 25.3 0 0 0-8.5-1.8 42.9 42.9 0 0 0-8.2-.1h-3V255a287.4 287.4 0 0 1 6 0l3.6-.1 4-.4 3.8-.8c1.4-.4 2.6-.8 3.5-1.4a20 20 0 0 0 2.8-2 7 7 0 0 0 2-2.8c.4-1 .6-2.3.6-3.7zm5.2 34.9c0-1.8-.4-3.4-1.1-4.7a11 11 0 0 0-7-5.6 35.5 35.5 0 0 0-10.1-2 79.4 79.4 0 0 0-13.3-.1v24.7a240.5 240.5 0 0 1 6.2.1 94.4 94.4 0 0 0 12.4-1 28.2 28.2 0 0 0 7.5-2.6 9.7 9.7 0 0 0 3-2.2 9.8 9.8 0 0 0 2.4-6.6z" fill="#ff7d00"/>
  <circle cx="406" cy="255.9" r="89.8" fill="#fff"/>
  <path d="M440.1 278.6c0 7.4-2.4 13.9-7.3 19.3a31.5 31.5 0 0 1-18.9 10v12.8c0 .7-.2 1.2-.7 1.7s-1 .6-1.6.6h-10c-.6 0-1.1-.2-1.6-.7-.4-.4-.7-1-.7-1.6v-12.8a46.2 46.2 0 0 1-22.2-9 41.5 41.5 0 0 1-4.7-4.2c-.8-1-.8-2-.1-3l7.5-9.8c.4-.5 1-.8 1.7-1 .8 0 1.3.2 1.8.7l.1.2a38.2 38.2 0 0 0 23.2 9.7c4 0 7.5-1 10.5-3.1s4.5-5.1 4.5-9c0-1.3-.4-2.6-1.1-3.8-.7-1.3-1.6-2.3-2.5-3.1-.9-.8-2.3-1.8-4.2-2.8a99.3 99.3 0 0 0-15.2-6.5 125.4 125.4 0 0 1-9.1-4.2 75.3 75.3 0 0 1-8-5.7l-3.3-3.6a18 18 0 0 1-2.6-4.3 29.2 29.2 0 0 1-2.1-10.6 25 25 0 0 1 7.1-17.7c4.8-5 11-8.3 18.7-9.8V194c0-.6.3-1.2.7-1.6.5-.5 1-.7 1.7-.7h9.9c.6 0 1.2.2 1.6.6s.7 1 .7 1.7v13a40.8 40.8 0 0 1 19.1 6.9 39 39 0 0 1 4 3.1c.8 1 1 1.8.3 2.8l-5.9 10.7c-.4.7-1 1.1-1.7 1.2-.7.1-1.3 0-2-.5l-1-1a41.1 41.1 0 0 0-12.6-6.1c-2.1-.6-4.2-.8-6.3-.8a19 19 0 0 0-11.3 3.1 9.6 9.6 0 0 0-4.4 8.1c0 1.3.2 2.5.6 3.6.4 1 1.1 2 2.2 3l2.8 2.4a113.7 113.7 0 0 0 13.7 6.3 242.5 242.5 0 0 1 11.5 4.8 44.4 44.4 0 0 1 10 6.8 19 19 0 0 1 6.3 10.3 25 25 0 0 1 1 6.9z" fill="#ff7d00"/>
  <path d="M262 220v35.4h34v9h-34V300h-9.6v-35.6h-34v-9h34V220h9.6z" fill="#fff"/>
</svg>
