<?xml version="1.0" encoding="utf-8"?>
<!-- Svg Vector Icons : http://www.onlinewebfonts.com/icon -->
<!DOCTYPE svg PUBLIC "-//W3C//DTD SVG 1.1//EN" "http://www.w3.org/Graphics/SVG/1.1/DTD/svg11.dtd">
<svg version="1.1" xmlns="http://www.w3.org/2000/svg" xmlns:xlink="http://www.w3.org/1999/xlink" x="0px" y="0px" viewBox="0 0 1000 1000" enable-background="new 0 0 1000 1000" xml:space="preserve">
<metadata> Svg Vector Icons : http://www.onlinewebfonts.com/icon </metadata>
<g><g transform="translate(0.000000,511.000000) scale(0.100000,-0.100000)"><path d="M100,156.5v-2502.1h298.2h296.2l-8.2,1752.5C678,718.2,667.8,1239,645.4,1484.1c-16.3,179.7-22.5,335-14.3,343.1c8.2,10.2,130.7-206.3,273.7-480c143-273.7,674-1215.3,1180.6-2093.6l921.2-1599.3h322.7H3654V156.5v2502.1h-298.2h-298.2l10.2-1689.2c8.2-1213.3,18.4-1803.6,40.8-2089.5c16.3-218.6,26.6-402.4,22.5-406.5c-16.3-18.4-49,36.8-314.6,545.4c-147.1,283.9-672,1215.3-1164.3,2073.2L755.7,2648.4l-326.8,6.1l-328.8,4.1V156.5z"/><path d="M4926.5-31.4c6.1-1350.1,8.2-1388.9,51.1-1556.4c138.9-524.9,410.6-776.2,904.9-839.5c443.2-55.2,821.1,91.9,1201,461.6c108.2,106.2,202.2,192,208.3,192c6.1,0,18.4-85.8,26.6-187.9c8.2-104.2,18.4-232.8,26.6-286l12.3-98h251.2h253.3v1848.5v1848.5h-306.4h-306.4V33.9v-1315.4l-185.9-194c-300.3-316.6-504.5-420.8-810.9-420.8c-386.1,0-584.2,165.4-667.9,561.7c-24.5,116.4-30.6,371.7-30.6,1415.5v1270.5H5235h-316.6L4926.5-31.4z"/><path d="M9291.5-1510.2c-292.1-116.4-386.1-551.5-167.5-780.3c134.8-143,359.5-185.9,524.9-102.1c428.9,220.6,273.7,906.9-204.3,902.8C9389.5-1489.8,9320.1-1500,9291.5-1510.2z"/></g></g>
</svg>