<?xml version="1.0" encoding="iso-8859-1"?>
<!-- Generator: Adobe Illustrator 18.0.0, SVG Export Plug-In . SVG Version: 6.00 Build 0)  -->
<!DOCTYPE svg PUBLIC "-//W3C//DTD SVG 1.1//EN" "http://www.w3.org/Graphics/SVG/1.1/DTD/svg11.dtd">
<svg xmlns="http://www.w3.org/2000/svg" xmlns:xlink="http://www.w3.org/1999/xlink" version="1.1" id="Capa_1" x="0px" y="0px" viewBox="0 0 329 329" style="enable-background:new 0 0 329 329;" xml:space="preserve" width="512px" height="512px">
<path d="M164.5,0C73.794,0,0,73.794,0,164.5S73.794,329,164.5,329S329,255.206,329,164.5S255.206,0,164.5,0z M222.453,110.832  c0,1.657-1.343,3-3,3h-66.406v28.682h49.752c1.657,0,3,1.343,3,3v23c0,1.657-1.343,3-3,3h-49.752v23h14.5c1.657,0,3,1.343,3,3v18  c0,1.657-1.343,3-3,3h-14.5v17.654c0,1.657-1.343,3-3,3h-23c-1.657,0-3-1.343-3-3v-17.654h-14.5c-1.657,0-3-1.343-3-3v-18  c0-1.657,1.343-3,3-3h14.5V87.832c0-1.657,1.343-3,3-3h92.406c1.657,0,3,1.343,3,3V110.832z" fill="#FFFFFF"/>
<g>
</g>
<g>
</g>
<g>
</g>
<g>
</g>
<g>
</g>
<g>
</g>
<g>
</g>
<g>
</g>
<g>
</g>
<g>
</g>
<g>
</g>
<g>
</g>
<g>
</g>
<g>
</g>
<g>
</g>
</svg>
