<?xml version="1.0" encoding="utf-8"?>
<!-- Svg Vector Icons : http://www.onlinewebfonts.com/icon -->
<!DOCTYPE svg PUBLIC "-//W3C//DTD SVG 1.1//EN" "http://www.w3.org/Graphics/SVG/1.1/DTD/svg11.dtd">
<svg version="1.1" xmlns="http://www.w3.org/2000/svg" xmlns:xlink="http://www.w3.org/1999/xlink" x="0px" y="0px" viewBox="0 0 1000 1000" enable-background="new 0 0 1000 1000" xml:space="preserve">
<metadata> Svg Vector Icons : http://www.onlinewebfonts.com/icon </metadata>
<g><g transform="translate(0.000000,511.000000) scale(0.100000,-0.100000)"><path d="M4878.1,4962.4c-47.6-47.6-47.6-78.5-47.6-4853c0-4774.5,0-4805.4,47.6-4853c61.8-61.8,176-61.8,237.9,0c47.6,47.6,47.6,78.5,47.6,4853c0,4774.5,0,4805.4-47.6,4853c-26.2,26.2-78.5,47.6-118.9,47.6S4904.3,4988.6,4878.1,4962.4z"/><path d="M4052.6,4117.9c-535.3-261.7-944.4-728-1139.5-1301.3c-161.8-480.5-138-1030.1,69-1536.8C3172.4,818.3,3636.3,342.5,4105,133.2c180.8-80.9,273.6-90.4,325.9-28.5c119,138,73.7,214.1-204.6,344.9c-509.1,240.3-837.4,609-1003.9,1122.9c-83.3,254.6-104.7,675.6-47.6,946.8c76.1,368.7,221.3,644.7,478.2,908.8c187.9,190.3,375.9,323.5,601.9,416.3c185.6,80.9,226,118.9,226,216.5c0,85.6-76.1,164.2-159.4,164.2C4295.3,4225,4174,4177.4,4052.6,4117.9z"/><path d="M5565.6,4182.1c-35.7-30.9-52.3-71.4-52.3-118.9c0-76.1,61.8-171.3,111.8-171.3c14.3,0,107.1-40.4,207-90.4c368.7-185.6,656.6-471,832.6-825.5c114.2-233.1,159.4-409.2,185.6-697c21.4-233.1,40.4-276,145.1-302.1c42.8-9.5,80.9,0,128.5,38.1l69,54.7l-14.3,237.9c-40.4,766-554.3,1496.3-1289.4,1836.5C5689.4,4236.8,5641.8,4241.6,5565.6,4182.1z"/><path d="M5563.3,116.5c-123.7-145.1-76.1-211.7,256.9-375.9c252.2-123.7,302.1-157,497.2-354.5c237.9-237.9,366.3-452,468.7-775.5c47.6-152.3,54.7-228.4,54.7-523.4c0-397.3-30.9-542.4-178.4-844.5c-173.7-359.2-485.3-663.7-856.4-835c-249.8-116.6-245-114.2-283.1-180.8c-28.6-50-28.6-66.6,0-126.1c54.7-114.2,135.6-126.1,321.2-47.6c661.3,280.7,1153.8,887.3,1306,1612.9c47.6,214.1,45.2,616.2-2.4,844.5C7012.1-820.8,6510.1-195.1,5889.2,88C5713.1,166.5,5615.6,176,5563.3,116.5z"/><path d="M2884.6-1774.7c-71.4-35.7-85.7-104.7-69-349.7c40.4-609,437.7-1270.3,977.7-1629.6c161.8-107.1,468.7-252.2,532.9-252.2c78.5,0,154.6,80.9,154.6,161.8c0,76.1-61.8,171.3-111.8,171.3c-14.3,0-107.1,40.4-207,90.4c-368.7,185.6-656.6,471-832.6,825.5c-114.2,233.1-159.4,409.2-185.6,697c-11.9,135.6-33.3,235.5-52.3,254.6C3044-1758.1,2946.4-1743.8,2884.6-1774.7z"/></g></g>
</svg>