<?xml version="1.0" encoding="iso-8859-1"?>
<!-- Generator: Adobe Illustrator 19.0.0, SVG Export Plug-In . SVG Version: 6.00 Build 0)  -->
<svg xmlns="http://www.w3.org/2000/svg" xmlns:xlink="http://www.w3.org/1999/xlink" version="1.1" id="Layer_1" x="0px" y="0px" viewBox="0 0 330.003 330.003" style="enable-background:new 0 0 330.003 330.003;" xml:space="preserve" width="512px" height="512px">
<path id="XMLID_439_" d="M255.002,190.002h-75v-29.999h75c8.284,0,15-6.716,15-15s-6.716-15-15-15h-64.887l58.094-107.889  c3.928-7.294,1.198-16.391-6.096-20.318c-7.294-3.927-16.392-1.199-20.318,6.096l-56.793,105.473L108.209,7.892  C104.28,0.597,95.18-2.132,87.89,1.796c-7.294,3.928-10.024,13.024-6.096,20.318l58.094,107.889H75.002c-8.284,0-15,6.716-15,15  s6.716,15,15,15h75v29.999h-75c-8.284,0-15,6.716-15,15c0,8.284,6.716,15,15,15h75v95.001c0,8.284,6.716,15,15,15s15-6.716,15-15  v-95.001h75c8.284,0,15-6.716,15-15C270.002,196.718,263.286,190.002,255.002,190.002z" fill="#FFFFFF"/>
<g>
</g>
<g>
</g>
<g>
</g>
<g>
</g>
<g>
</g>
<g>
</g>
<g>
</g>
<g>
</g>
<g>
</g>
<g>
</g>
<g>
</g>
<g>
</g>
<g>
</g>
<g>
</g>
<g>
</g>
</svg>
