<?xml version="1.0" encoding="iso-8859-1"?>
<!-- Generator: Adobe Illustrator 21.1.0, SVG Export Plug-In . SVG Version: 6.00 Build 0)  -->
<svg version="1.1" id="Layer_1" xmlns="http://www.w3.org/2000/svg" xmlns:xlink="http://www.w3.org/1999/xlink" x="0px" y="0px"
	 viewBox="0 0 7756 1614" style="enable-background:new 0 0 7756 1614;" xml:space="preserve">
<g>
	<g>
		<linearGradient id="SVGID_1_" gradientUnits="userSpaceOnUse" x1="1594.934" y1="1418.8734" x2="117.1413" y2="88.263">
			<stop  offset="0" style="stop-color:#DF4510"/>
			<stop  offset="1" style="stop-color:#FF8E4B"/>
		</linearGradient>
		<path style="fill:url(#SVGID_1_);" d="M1262.512,1614.5H352.738c-193.752,0-352.277-158.525-352.277-352.277V352.449
			c0-193.752,158.525-352.277,352.277-352.277h1260.629l1.422,1262.051C1614.789,1455.975,1456.264,1614.5,1262.512,1614.5z"/>
	</g>
	<g>
		<g>
			<g>
				<linearGradient id="SVGID_2_" gradientUnits="userSpaceOnUse" x1="243.8822" y1="570.1193" x2="1224.8962" y2="1257.0327">
					<stop  offset="0" style="stop-color:#776BBA"/>
					<stop  offset="0.1642" style="stop-color:#7165B3"/>
					<stop  offset="0.3954" style="stop-color:#6156A1"/>
					<stop  offset="0.6663" style="stop-color:#453D83"/>
					<stop  offset="0.9652" style="stop-color:#201A59"/>
					<stop  offset="1" style="stop-color:#1B1554"/>
				</linearGradient>
				<path style="fill:url(#SVGID_2_);" d="M1008.525,1010.541c-272.474,0-493.358-220.884-493.358-493.358
					c0-98.7,28.99-190.626,78.91-267.741c-225.228,86.009-385.201,304.091-385.201,559.54c0,330.68,268.069,598.748,598.748,598.748
					s598.748-268.069,598.748-598.748c0-0.001,0-0.003,0-0.004C1316.577,931.204,1171.819,1010.541,1008.525,1010.541z"/>
			</g>
			<linearGradient id="SVGID_3_" gradientUnits="userSpaceOnUse" x1="408.2182" y1="331.125" x2="1016.0255" y2="756.7162">
				<stop  offset="0" style="stop-color:#776BBA"/>
				<stop  offset="0.1642" style="stop-color:#7165B3"/>
				<stop  offset="0.3954" style="stop-color:#6156A1"/>
				<stop  offset="0.6663" style="stop-color:#453D83"/>
				<stop  offset="0.9652" style="stop-color:#201A59"/>
				<stop  offset="1" style="stop-color:#1B1554"/>
			</linearGradient>
			<path style="fill:url(#SVGID_3_);" d="M590.916,552.094c140.689,0,268.69,61.512,364.176,162.081l302.612-302.612
				c-109.86-125.43-271.063-204.622-450.738-204.622c-304.778,0-556.423,227.846-594.436,522.761
				C309.335,619.974,443.125,552.094,590.916,552.094z"/>
		</g>
		<g>
			<linearGradient id="SVGID_4_" gradientUnits="userSpaceOnUse" x1="242.7007" y1="571.8066" x2="746.9863" y2="924.9112">
				<stop  offset="0" style="stop-color:#4F479B"/>
				<stop  offset="0.1866" style="stop-color:#4A4394"/>
				<stop  offset="0.4492" style="stop-color:#3E3682"/>
				<stop  offset="0.7554" style="stop-color:#282264"/>
				<stop  offset="1" style="stop-color:#140F47"/>
			</linearGradient>
			<path style="fill:url(#SVGID_4_);" d="M413.977,1260.136l327.836-327.837c-136.346-87.783-226.646-240.903-226.646-415.116
				c0-98.7,28.99-190.626,78.91-267.741c-225.228,86.009-385.201,304.091-385.201,559.54
				C208.877,988.957,288.289,1150.377,413.977,1260.136z"/>
		</g>
	</g>
</g>
<g>
	<g>
		<path style="fill:#606060;" d="M1878.958,686.539c0-51.188,9.188-102.188,27.594-153c18.406-50.797,45.406-96.391,81-136.797
			s79-73,130.203-97.797c51.188-24.797,109.188-37.203,174-37.203c77.594,0,144,17.203,199.203,51.609
			c46.156,28.776,82.814,64.819,109.957,108.13c8.92,14.234,4.779,33.006-9.174,42.361l-53.077,35.586
			c-14.756,9.893-34.664,5.428-44.04-9.662c-8.358-13.451-17.581-25.462-27.666-36.025c-16.813-17.594-35.203-31.594-55.203-42
			s-40.813-17.797-62.406-22.203c-21.594-4.391-42.391-6.594-62.391-6.594c-44.813,0-84.016,9-117.609,27
			s-61.797,41.813-84.594,71.406c-22.813,29.594-40.016,62.797-51.609,99.594s-17.391,73.594-17.391,110.391
			c0,41.609,6.797,81.219,20.391,118.813s32.594,70.797,57,99.594c24.406,28.813,53.406,51.813,87,69
			c33.594,17.203,70.406,25.797,110.406,25.797c20.797,0,42.203-2.594,64.203-7.797c22-5.188,43.188-13.594,63.594-25.203
			c20.406-11.594,39.203-26.203,56.406-43.797c10.625-10.876,20.109-23.131,28.453-36.765c8.82-14.412,27.453-19.265,42.132-10.898
			l58.047,33.087c15.042,8.574,20.195,27.726,11.586,42.747c-11.835,20.65-26.376,39.462-43.624,56.438
			c-24.797,24.406-52.797,45-84,61.797s-64.203,29.594-99,38.391s-69,13.203-102.594,13.203c-60,0-114.813-12.797-164.406-38.391
			s-92.391-59-128.391-100.203s-64-88-84-140.406S1878.958,740.945,1878.958,686.539z"/>
	</g>
	<g>
		<path style="fill:#606060;" d="M3018.949,1130.539c-49.609,0-94.219-8.813-133.813-26.391
			c-39.594-17.594-73.391-41.203-101.391-70.797s-49.609-64.203-64.797-103.813c-15.203-39.594-22.797-81-22.797-124.203
			c0-43.188,7.594-84.594,22.797-124.188c15.188-39.594,36.984-74.203,65.391-103.797s62.406-53.203,102-70.813
			c39.594-17.594,83.797-26.406,132.609-26.406c48.797,0,93,8.813,132.594,26.406c39.594,17.609,73.594,41.219,102,70.813
			s50.203,64.203,65.406,103.797c15.188,39.594,22.797,81,22.797,124.188c0,43.203-7.609,84.609-22.797,124.203
			c-15.203,39.609-37,74.219-65.406,103.813s-62.406,53.203-102,70.797C3111.949,1121.727,3067.746,1130.539,3018.949,1130.539z
			 M2831.746,806.539c0,30.406,4.797,58.406,14.391,84c9.594,25.609,22.797,47.813,39.609,66.609
			c16.797,18.797,36.594,33.594,59.391,44.391c22.797,10.813,47.406,16.203,73.813,16.203c26.391,0,50.984-5.391,73.797-16.203
			c22.797-10.797,42.594-25.797,59.391-45c16.797-19.188,30-41.594,39.609-67.188c9.594-25.594,14.406-53.609,14.406-84.016
			c0-29.594-4.813-57.391-14.406-83.391c-9.609-26-22.813-48.594-39.609-67.797s-36.594-34.203-59.391-45
			c-22.813-10.797-47.406-16.203-73.797-16.203c-25.609,0-49.813,5.609-72.609,16.797c-22.797,11.203-42.594,26.406-59.391,45.594
			c-16.813,19.203-30.203,41.797-40.203,67.797S2831.746,776.945,2831.746,806.539z"/>
	</g>
	<g>
		<path style="fill:#606060;" d="M3459.338,356.515v-82.749c0-17.246,13.981-31.227,31.227-31.227h69.546
			c17.246,0,31.227,13.981,31.227,31.227v82.749c0,17.246-13.981,31.227-31.227,31.227h-69.546
			C3473.319,387.742,3459.338,373.761,3459.338,356.515z M3459.338,1087.312v-565.14c0-17.246,13.981-31.227,31.227-31.227h69.546
			c17.246,0,31.227,13.981,31.227,31.227v565.14c0,17.246-13.981,31.227-31.227,31.227h-69.546
			C3473.319,1118.539,3459.338,1104.558,3459.338,1087.312z"/>
	</g>
	<g>
		<path style="fill:#606060;" d="M4281.294,1118.539h-69.546c-17.246,0-31.227-13.981-31.227-31.227V766.945
			c0-59.203-9.406-102.203-28.203-129c-18.813-26.797-46.609-40.203-83.391-40.203c-19.219,0-38.422,3.609-57.609,10.797
			c-19.203,7.203-37.203,17.406-54,30.609c-16.813,13.203-31.813,28.797-45,46.797c-12.109,16.508-21.694,34.527-28.744,54.058
			c-1.228,3.402-1.85,6.994-1.85,10.611v336.698c0,17.246-13.981,31.227-31.227,31.227h-69.546
			c-17.246,0-31.227-13.981-31.227-31.227v-565.14c0-17.246,13.981-31.227,31.227-31.227h57.546
			c17.246,0,31.227,13.981,31.227,31.227v7.349c0,26.918,31.736,41.174,51.926,23.371c15.523-13.687,33.011-25.737,52.465-36.15
			c45.594-24.406,96-36.609,151.203-36.609c37.594,0,68.406,6.813,92.406,20.406c24,13.609,43,32.219,57,55.813
			s23.797,50.797,29.391,81.594s8.406,63.391,8.406,97.797v351.57C4312.521,1104.558,4298.541,1118.539,4281.294,1118.539z"/>
	</g>
	<g>
		<path style="fill:#606060;" d="M4498.537,242.539h69.546c17.246,0,31.227,13.981,31.227,31.227v663.57
			c0,23.203,6,41.406,18,54.609s28.797,19.797,50.391,19.797c8.797,0,19-1.594,30.594-4.797c0.116-0.032,0.232-0.064,0.348-0.096
			c17.704-4.909,35.828,6.28,39.186,24.342l7.951,42.767c2.858,15.371-6.088,30.479-20.936,35.376
			c-13.01,4.291-27.26,7.958-42.752,11.002c-26.406,5.188-50,7.797-70.781,7.797c-45.609,0-81.016-12.391-106.203-37.188
			c-25.203-24.797-37.797-60-37.797-105.609v-711.57C4467.31,256.52,4481.291,242.539,4498.537,242.539z"/>
	</g>
	<g>
		<path style="fill:#606060;" d="M4827.3,356.515v-82.749c0-17.246,13.981-31.227,31.227-31.227h69.546
			c17.246,0,31.227,13.981,31.227,31.227v82.749c0,17.246-13.981,31.227-31.227,31.227h-69.546
			C4841.281,387.742,4827.3,373.761,4827.3,356.515z M4827.3,1087.312v-565.14c0-17.246,13.981-31.227,31.227-31.227h69.546
			c17.246,0,31.227,13.981,31.227,31.227v565.14c0,17.246-13.981,31.227-31.227,31.227h-69.546
			C4841.281,1118.539,4827.3,1104.558,4827.3,1087.312z"/>
	</g>
	<g>
		<path style="fill:#606060;" d="M5345.688,1130.539c-50.406,0-100.609-8.203-150.609-24.594
			c-39.601-12.994-74.81-30.369-105.628-52.141c-13.507-9.542-17.096-28.044-8.294-42.044l20.462-32.546
			c9.26-14.729,28.766-19.031,43.385-9.598c28.724,18.533,57.213,33.172,85.481,43.922c36.797,14,74.391,21,112.797,21
			c39.188,0,70.188-7.594,93-22.797c22.797-15.188,34.203-36.797,34.203-64.797c0-26.406-12.813-45.609-38.406-57.609
			s-65.594-25.188-120-39.594c-39.203-10.406-72.797-20.406-100.797-30s-50.813-20.797-68.406-33.594s-30.391-27.594-38.391-44.406
			c-8-16.797-12-37.203-12-61.203c0-32,6.188-60.391,18.594-85.203c12.406-24.797,29.609-45.797,51.609-63
			c22-17.188,47.797-30.188,77.391-39c29.594-8.797,61.594-13.203,96-13.203c47.203,0,91.203,7.203,132,21.609
			c30.636,10.818,58.795,25.24,84.473,43.265c14.119,9.911,17.341,29.504,7.336,43.557l-20.652,29.006
			c-9.829,13.805-28.854,17.214-42.917,7.759c-51.146-34.388-104.955-51.587-161.428-51.587c-33.609,0-61.813,7-84.609,21
			c-22.813,14-34.203,36.203-34.203,66.594c0,12.813,2.391,23.609,7.203,32.406c4.797,8.813,12.594,16.406,23.406,22.797
			c10.797,6.406,24.797,12.203,42,17.406c17.188,5.203,38.594,11,64.203,17.391c42.391,10.406,78.984,20.813,109.797,31.203
			c30.797,10.406,56.203,22.594,76.203,36.594s34.797,30.406,44.391,49.203c9.594,18.813,14.406,41.406,14.406,67.797
			c0,60-22.609,107.406-67.813,142.203C5484.672,1113.148,5423.281,1130.539,5345.688,1130.539z"/>
	</g>
	<g>
		<path style="fill:#606060;" d="M6055.195,1060.122c4.044,15.291-3.977,31.186-18.68,37.015
			c-12.643,5.013-27.326,10.344-44.05,15.996c-29.594,10-61.203,15-94.797,15c-20.813,0-40.406-2.813-58.813-8.391
			c-18.406-5.594-34.594-14-48.594-25.203c-14-11.188-25-25.797-33-43.797s-12-39.797-12-65.406V624.172
			c0-17.246-13.981-31.227-31.227-31.227h-20.343c-17.246,0-31.227-13.981-31.227-31.227v-39.546
			c0-17.246,13.981-31.227,31.227-31.227h20.343c17.246,0,31.227-13.981,31.227-31.227V315.766
			c0-17.246,13.981-31.227,31.227-31.227h69.546c17.246,0,31.227,13.981,31.227,31.227v143.952
			c0,17.246,13.981,31.227,31.227,31.227h74.358c17.246,0,31.227,13.981,31.227,31.227v39.546c0,17.246-13.981,31.227-31.227,31.227
			h-74.358c-17.246,0-31.227,13.981-31.227,31.227V942.08c0,0.837,0.028,1.679,0.096,2.513c1.763,21.756,8.731,37.54,20.904,47.352
			c12.406,10,27.797,15,46.203,15s36-3.188,52.797-9.594c1.681-0.641,3.318-1.27,4.911-1.887
			c17.375-6.73,36.743,3.106,41.507,21.119L6055.195,1060.122z"/>
	</g>
	<g>
		<path style="fill:#606060;" d="M6153.258,356.515v-82.749c0-17.246,13.981-31.227,31.227-31.227h69.546
			c17.246,0,31.227,13.981,31.227,31.227v82.749c0,17.246-13.981,31.227-31.227,31.227h-69.546
			C6167.239,387.742,6153.258,373.761,6153.258,356.515z M6153.258,1087.312v-565.14c0-17.246,13.981-31.227,31.227-31.227h69.546
			c17.246,0,31.227,13.981,31.227,31.227v565.14c0,17.246-13.981,31.227-31.227,31.227h-69.546
			C6167.239,1118.539,6153.258,1104.558,6153.258,1087.312z"/>
	</g>
	<g>
		<path style="fill:#606060;" d="M6975.215,1118.539h-69.546c-17.246,0-31.227-13.981-31.227-31.227V766.945
			c0-59.203-9.406-102.203-28.203-129c-18.813-26.797-46.609-40.203-83.391-40.203c-19.219,0-38.422,3.609-57.609,10.797
			c-19.203,7.203-37.203,17.406-54,30.609c-16.813,13.203-31.813,28.797-45,46.797c-12.109,16.508-21.694,34.527-28.744,54.058
			c-1.228,3.402-1.85,6.994-1.85,10.611v336.698c0,17.246-13.981,31.227-31.227,31.227h-69.546
			c-17.246,0-31.227-13.981-31.227-31.227v-565.14c0-17.246,13.981-31.227,31.227-31.227h57.546
			c17.246,0,31.227,13.981,31.227,31.227v7.349c0,26.918,31.736,41.174,51.926,23.371c15.522-13.687,33.011-25.737,52.464-36.15
			c45.594-24.406,96-36.609,151.203-36.609c37.594,0,68.406,6.813,92.406,20.406c24,13.609,43,32.219,57,55.813
			s23.797,50.797,29.391,81.594s8.406,63.391,8.406,97.797v351.57C7006.442,1104.558,6992.461,1118.539,6975.215,1118.539z"/>
	</g>
	<g>
		<path style="fill:#606060;" d="M7408.418,1124.539c-42.406,0-81.203-8.594-116.391-25.797
			c-35.203-17.188-65.406-40.594-90.609-70.203c-25.203-29.594-44.797-63.594-58.797-102c-14-38.391-21-78.797-21-121.203
			c0-44.797,7.188-87,21.594-126.594s34.406-74,60-103.203c25.594-29.188,56.203-52.391,91.797-69.594s75-25.813,118.219-25.813
			c50.391,0,94.594,12,132.594,36c14.978,9.46,28.929,20.038,41.855,31.736c20.156,18.241,52.348,4.186,52.348-22.999v-2.698
			c0-17.246,13.981-31.227,31.227-31.227h53.937c17.246,0,31.227,13.981,31.227,31.227v578.367c0,45.594-8.406,86-25.203,121.203
			c-16.797,35.188-40.188,64.984-70.188,89.406c-30,24.391-65.406,42.984-106.203,55.797c-40.813,12.781-84.813,19.188-132,19.188
			c-69.609,0-127.406-11.813-173.406-35.391c-37.023-19.002-69.258-44.087-96.69-75.255c-11.18-12.702-10.32-31.965,2.036-43.525
			l28.938-27.072c12.552-11.743,32.303-11.198,44.034,1.366c20.543,22.001,44.974,39.567,73.292,52.689
			c38,17.578,78.594,26.391,121.797,26.391c27.188,0,52.984-3.609,77.391-10.797c24.406-7.203,45.797-18.406,64.203-33.594
			c18.406-15.219,33-34.422,43.797-57.609c10.797-23.203,16.203-50.797,16.203-82.797v-10.852c0-26.601-31.022-40.888-51.42-23.814
			c-12.45,10.42-26.106,19.574-40.97,27.463C7492.824,1114.148,7451.621,1124.539,7408.418,1124.539z M7451.621,1017.742
			c20,0,39.188-3.391,57.594-10.203c18.406-6.797,35.406-16,51-27.594s29-24.797,40.203-39.609
			c10.093-13.331,17.587-27.474,22.48-42.429c1.019-3.115,1.52-6.376,1.52-9.654V734.793c0-4.24-0.848-8.445-2.532-12.337
			c-7.623-17.621-17.184-33.783-28.671-48.511c-12.797-16.406-27.391-30.609-43.797-42.609s-33.797-21.391-52.203-28.188
			s-36.797-10.203-55.188-10.203c-28.813,0-54.609,6.203-77.406,18.594c-22.813,12.406-42.203,28.797-58.203,49.203
			s-28.406,43.406-37.203,69s-13.188,52-13.188,79.203c0,28.797,5,55.797,15,81s23.797,47.203,41.391,66s38.203,33.797,61.797,45
			S7423.621,1017.742,7451.621,1017.742z"/>
	</g>
</g>
</svg>
