<svg xmlns="http://www.w3.org/2000/svg" width="397.3" height="397.3">
  <path fill="#f89728" fill-rule="evenodd" d="M162.8 150.7a117.7 117.7 0 1 0 0 235.4 117.7 117.7 0 0 0 0-235.4zm0 216.8a99 99 0 1 1 0-198.2 99 99 0 0 1 0 198.2z" clip-rule="evenodd"/>
  <path fill="#260d3d" fill-rule="evenodd" d="M320.8 104.4l-1.5 1.7c-.5.6-.9 1.2-1.2 1.9l-1.2 1.6c-2.8 3.6-5.5 7.2-9.7 9.5l-3 1.5-1.5.7a95.2 95.2 0 0 1-12 4.2l-1.7.4-1.7.6c-.7.2-1.5.7-1.4 1.4.5 1.1.7 2.2.8 3.4v1.7a78 78 0 0 1-.5 4.8l-.2 1.6c-.6 3.7.1 7.3.6 10.8l.3 1.6c1.4 6.9 3.9 15.1 5.8 24.8 5.3 35.2-3.5 53.1-10 59v.4l-.2 1c-.5 1.2-.9 1.2-1.5 1.7-.9.5-1.8.6-2.3.6h-.9c-.1 2.3-.1 6.5-3.4 9.6-1.9 2.5-7.1 2.6-8.3 2.1-1.9-.6-3.7-1.3-5.4-2.1-7.7 5.5-24.8 14-40.8 21.3-6.7 4.3-2.7 11-2.5 17.3a50 50 0 0 1-1.5 17.6c-1.3 4.9-2.3 9.5-3.2 13.4a23 23 0 0 1-.7 2.8c-.8 3.3-1.3 6.9-2.1 10.3l-.4 2-.3 1.4c-11.1 16.9-40.6 22.4-60.5 6v-2.9l-.3-5.1-.2-1.5c-.2-1.6-.5-3.3-1-5.2l-.6.1h-1.7l-1.8-.1c-1.6-.1 7.4 13.8 5.5 20.7-.5 1.6-3.8 4.9-6.8 3.2-.9 3.1-7.9 3.2-8.1 3.8-1.2 4.4-9.2-.5-9.8 1.5-.6 1.8-3.8.9-4.9.2-1.6-1-2.4-2.1-3.1-4.3l-6.3-16.8c-.4-.7-1-1.7-1.8-1.9-.4-.1-3 1.2-3.4 1.1-5.7-2.2-8.6-4.2-15-7.1l-1.5-.6-1.5-.6-1.5-.6-1.5-.6-1.6-.7-1.6-.7-1.4-.6A134.7 134.7 0 0 1 38 295.4a69.5 69.5 0 0 1-19-32.6c-1.9-5.5-1.6-13.7 2.2-18.7 3.3-5.3 7.5-9 11.6-12.1A89.4 89.4 0 0 1 62 218.2c.4-1.3.9-2.6 2.3-4.1 2.3-2.6 6.6-2.1 8-1.2a15 15 0 0 1 3.2 1.9l1.3-2.5c.2-.4 1.1-1.3 2-1.9 1.6-.9 3.3-.8 4.5-.2 1 .5 1.6 1 2 1.5a52 52 0 0 1 14.3-5.1c5.9-.5 7.4-1 10.7 0l.6.2-.4-3-.3-1.1-.7-2.6-.4-1.2-.4-1.2-.4-1.1c-1.2-3.7-2.5-7.3-3.9-10.9l-.4-1c-.9-2.4-2-4.6-3.4-6.5l-1.7.4c-2.3.4-4.5-.2-6.5-1.4l-1.2-.8a29 29 0 0 1-7-7.8l-.6-1.1-1.8-3.4-.5-1-.4-1-.4-1.2-.4-1.2-.3-1.2-.3-1.2-.1-1.2v-1.2c.1-.5.2-1 .4-1.3 1.5-2.6 5.8-1.9 8.4-1.4l1.1.3a605 605 0 0 1-12.9-23.9l-.7-1.3-.7-1.1-.6-1.2-.5-1.2-.5-1.2-.9-3.6-.2-1.2c-.2-1.8-.4-3.5-.4-5.3l.1-2.6.5-2.8.3-1.4c.3-1.3.8-2.5 1.5-3.6l.7-1.1 1.5-1.8 1.7-1.6.9-.7.9-.7c3.6-2.6 7.6-4.7 11.5-6.9l1.3-.7a128 128 0 0 1 18.4-8.1c6.6-2.3 13.2-6.2 20.5-5.1 3.8.6 7.2 2.3 10.5 4.3l1.1.6c1.4 1 3.5.9 4.5 2 1.3 1.5 1.8 3.6 2.4 5.5l.3 1.3c.3 1.3.4 2.6.4 4v1.2l-.3 3.6-.1 1.3c-.2 2.6-.4 5.2-.2 7.9 1 2.3 3.8 2.8 4.7 5.2-3.8 4.4-2.3 15.2 1.7 19.4 1 1.1 2.4 1.4 3.6 1.9a3 3 0 0 1 1.5 1c.7.9.8 1.9.7 2.9l-.1 1c-.5 2-1.2 3.9-1.2 6v.6c-.1 1.8.4 3.3 1.1 4.9l.4.9.9 1.8.6 1.1c1 1.7 2.2 3.3 3.6 4.8 4.1 4 10.3 6.9 16 9.8l1.3.7a51 51 0 0 1 7.1 4.2l.7.6 1.8 2.1.6.8 1 1.7.5 1a37 37 0 0 1 2.8 8.8l.3 2 .1 1a29 29 0 0 1 0 5.9l-.1 1.2-.3 1.3c-.6 3.2-2 6.4-4.4 8.7l7.7-4c10.1-5.4 24.5-8.7 30.5-10.1 1.1-4.4 2.9-7.5 4.1-8.6 1.8-1.4 1.9.7 3.1.9.6 0 3.1-1.1 3.5-4.5.2-1.7 1.4-3.6 2.3-2.5l.9.9c-.1-4 .3-8.5 1.4-13.6l.7-2.3.3-1.1c1.9-5.3 5.3-9.9 7.6-15.1l.8-1.6.7-1.6.6-1.7a62.1 62.1 0 0 0 2.4-12l.6-4.8.1-1.5.1-1.5-.1-1.7a7 7 0 0 0-1.4-3.2l-.5-1.5a25 25 0 0 1-.9-7.7v-3.2l-.1-4.3c.4-6.5-2.9-12.2-4.9-18.2-.2-1.3.1-2.6.9-3.8l1.2-1.4a7.7 7.7 0 0 1 3.8-1.7l1.4-.1c.7.1 1.4.4 2 .6 6.3 3.1 5.6 11.2 9.6 16.2.3.5.7.9 1.2 1.3.4.4.9.7 1.5 1 .9.6 2 1 3.2 1.1 1.2.1 2.6.1 4.1-.3h4.6l1.7-.1 1.1.4c5.3 1.6 8.8 8.8 14.5 3.8 2.1-1.8 4.1-4.2 5.8-6.2 2.2-2.6 3.8-3.8 6.4-5.9 1.4-1.1 3.4-3.1 5.1-3.8 2.2-.9 5.2-.5 6.7 1.3l.9 1.5c3.2 7.5-4.9 12.2-9.6 16.6z" clip-rule="evenodd"/>
  <path fill="#260d3d" fill-rule="evenodd" d="M42 102.7c2.1 20.7 23.2 34.5 46.4 32.8l1.6 1.4-.6-1.3c-.8-2.3-1-4.7-1.2-7.2-.3-4.7-.2-9.3 2.2-13.5 2.3-4 4.9-8.2 7.7-11.9 2.6-3.3 5.9-6 9.7-7.8a71 71 0 0 1 12.6-4.8c4.7-1.2 9.8-.4 14.5.6 4.7.9 8.4 2.9 12 6 1.1 1 2.4 1.6 3.7 2l-1.8-2c4.9-6.8 10.5-12.5 11.7-22.1 2.5-19.4-13.5-26.4-29.6-29.6-4.7-9.8-13.8-24.6-21.6-22.1-1.5.7-2.3 1.8-1.9 4.2-10-6.4-28.6 2.7-17.4 11.7-14.1 4.2-24 12.6-27.8 27-12.4 8-22 19.1-20.2 36.6z" clip-rule="evenodd"/>
  <path fill="#260d3d" d="M253.3 268.4a90.1 90.1 0 1 1-180.2 0 90.1 90.1 0 0 1 180.2 0z"/>
  <path fill="#f4e5c8" fill-rule="evenodd" d="M175.3 232.5c-1.4 1.4-5.6 6.9-15 8.1-5 .7-9.5.7-12.4.7A320 320 0 0 0 137 229l-1.3-1.4-1.6-1.6c-1.3-1.5-1.9-1.9-3.4-3.5-1.7-1.5-3.3-3.1-4.8-4.3-3.4-2.7-5.6-4.7-9.5-7.3-1.2-.8-2.4-1.6-4.2-2.4-.6-2.9-1-5.9-1.9-8.8l-.4-1.5-.8-2.8-.4-1.4-.4-1.3-.4-1.3-.4-1.2c-1.8-5.3-4-10.2-6.9-14.9-.6-1.8 2.4-2.1.9-3.4a9.8 9.8 0 0 1-4.4 2.9c-.7.2-1.4.3-2.2.3a9 9 0 0 1-5-1.8l-.8-.7-.7-.7c-1.1-.8-1.8-2.2-2.8-3.2l-.6-.9-1.8-2.7-.5-.9-.5-1-.6-1.2-.5-1.2-.4-1.2c-.2-.9-.4-1.8-.4-2.7l.4-.7c.2-.2.3-.5.6-.6 1.7-1.3 3.7-.6 5.6 0l1 .4 1 .4 1.3.5c2.9 1.3 5.8 3.1 8.4 3.8-.8-4.5 4.3-9.4 3.4-14.2-.7-3.7-7.4-7-9.9-10.3a25.6 25.6 0 0 1-5-17.1l.2-1.5c.6-4.3 2.3-8.9 5.4-12l.8-.9 2.6-2.7 1-.9 3.1-2.8 1.1-.9 5.6-4 1.1-.7 2.2-1.4 1-.6 3.1-1.6 1-.5 2.2-.8 1.2-.4c4-1 7.6-3.2 11.7-4.1l1.2-.2h1.2l1.3.2a7 7 0 0 1 2.5 1.4l.6.7 1 1.4.5 1.1c1.3 3.5 1.6 7.2 3 10.8l.4 1.2 3.1 8.3a5 5 0 0 1-1.3-.5l-1.2-.8c-2.2-1.7-4.5-4.2-7.5-3.5 1.7 2.2 2.5 4.8 3.7 7.1l.7 1.1a8.6 8.6 0 0 0 8.2 4.3c1.2 3.7-1.3 4.2-3.4 5.6-.4-3.9-2.4.2-4.3 0-2.7-1.5-4-4.4-6-6.5 1.2 8.1 9.2 11.6 15.1 15.9 2.6 1.9 7.5 4.8 7.7 6.9.6 4.9-10 11.7-13.3 13.8 4.7 0 7.3-2.3 10.5-3.8l1.1-.5 2 3.7.8 1.2c3.1 4.8 7.2 9.1 12.3 12.7 3.3 2.4 6.9 4.2 10.5 6l1.2.6c2.9 1.5 6 2.7 8 5.3l.7.9.7 1 .5 1 .7 1.7.9 2.8.3 1.4c.5 2.2.8 4.4.8 6.7v1.1c0 2.1-.3 4.2-.8 6.2l-.3 1.1-.4 1.2c-.5 1-.8 2.2-1.7 3l-.6.7-1.4 1.3-.7.6-.8.5c-1.3.1-1.5-3.1-2.2-2.1-.4 2-1.1 3.8-2 5.4l-.6.9c-.3.6-1 1.1-1.3 1.7l-1 1-1 .9a7 7 0 0 1-1 .8l-1.1.7-1.1.6-1.2.5-.8.3-2 .6c-2 .3-3.9.7-5.9.5l-1.8-.2-1.8-.4-1.2-.3c-1.2-.3-2.3-.8-3.4-1.2l-1.3-.5a7 7 0 0 0-1.3-.5l-1.1-.4-1-.5-1.3-.7-1.3-.7-1.3-.7-1-.5-3.1-1.7-1-.6-1.9-1.2-1-.6-1-.6-1.2-.7c-8-4.7-14.8-10.4-21.1-13.8a87 87 0 0 0 9.6 9.6l2.1 1.8.9.7c2.8 2.1 5.7 4.2 8.7 6.2l1 .6 6.3 3.6 1.2.6.8.4.8.4a85.8 85.8 0 0 0 12.4 5.2l1.2.3c2.7.6 5.3.7 8 .4l1.3-.2 1.3-.3 1.3-.3a12.2 12.2 0 0 0 5.1-2.5l.1-.1c-1.1 2.1-2.1 4.4-3.2 6.9l-2.2 5.2zm-59.6 111.6c.8 2.4 4.4 17.4 7.6 6.3 0 0 9.2 8.5 8.3-.5 0 0 8.6 6 7.5-1.9 0 0 10.4 2.7 7-5.6a95 95 0 0 0-9.8-18.5c1.2.2 2.4.5 3.5.5l1.7.2c1.2.1 2.3.2 3.5.1l2.2-.4a7.3 7.3 0 0 0 5-3.8c.2-.5.2-1.1.2-1.6 0-1-.3-2-.9-2.3-2.7-1.5-6-.6-9.3.1-1.1.2-2.1.5-3.2.6-5 .6-8.1-4-12.2-5.9-.7-.2-1.4-.7-2-.7a11 11 0 0 0-8 .3l-2.9 1.2-1.7.7-1.7.6-1.7.4c-1.7.3-3.4.4-5.1.2l-1.7-.3-1.7-.5-1.6-.7-1.5-.8-1.4-1-1.3-1.1-1.3-1.1c-.6-.7-1.3-1.4-1.9-2.3-1.9-2.6-3.9-6-5.8-9.8a45 45 0 0 0-10.7-15.7c-3.2-2.4-6-1.8-7-2.3a38.6 38.6 0 0 1-13.9 3.2c-1.4-.6 23.7-8.1 28.7-22.6a64.6 64.6 0 0 0-14-23.3 38.4 38.4 0 0 1-6-8.7c-.8-1.6-1.2-3.1-.8-5.4-2.3.9-5.2 1.1-8.3 2.5a89.4 89.4 0 0 0-22.1 14.1 30.8 30.8 0 0 0-9.1 13.3c-1.2 5.4.5 11.5 2.6 17.3 9.2 23.5 30.6 37.9 46.7 47l8.9 4.6 1.2.6 1.5.7 1.5.7 1.4.7 3.1 1.4 1.6.7a96.7 96.7 0 0 0 15.9 5.6l1.1.2c.7.2 2.1.8 2.6 1.5a62.1 62.1 0 0 1 5.3 11.5zM331.1 90c-.1-.7-.4-1.4-.9-2.2-4.9-3.4-9.1 2.4-12.5 5.2-.5.4-.6.9-1 1.4-1.4 1.3-1.7 3-2.9 4.4a20.3 20.3 0 0 1-8.8 5.4c-5 .6-14.6-.2-16-.5-1.2-.3-6.5-2.4-8-3-2.3-1-1.9-1.1-4.1-2.6-1.1-.7-2.2-1.3-3.2-2.2l-1-1-.8-1.2c-2.3-4.5-2.2-11.6-7.9-13.8-.5-.2-1.1-.2-1.7 0a6 6 0 0 0-2.3 1.3c-.7 1-1.5 2.1-.9 3.3 2.2 5.2 4.9 10.1 4.1 15.6v8.6a37.2 37.2 0 0 0 1.3 8.2c.5 2.2 3 3.6 3 5.7l-.1 1.5-.2 1.5-.3 1.7-.3 1.7-.6 4.5-.2 1.5-.1 1.2a44 44 0 0 1-2.1 8.5l-.6 1.7-.6 1.5-.6 1.5c-1.8 4.9-5.3 9-7.2 13.8l-.4 1.1a54.8 54.8 0 0 0-.8 29.4 44.8 44.8 0 0 0 11.8 17.8c4 4 8.3 7.7 12.2 11.9a27.4 27.4 0 0 1 6.1 9 96 96 0 0 0 7.4-32.7c.5-7-.2-20.5-1.4-26.4-1.3-6.2-3.1-12.2-3.9-17.9l-.2-1.3-.2-1.2c-.6-5-.9-10.1-.2-15.1l.1-1.5v-1.5c0-1.4 0-2.9-.7-4.3l-.8-1.4c-.3-.5-.6-.9-1.1-1.3-.2-.2.3-.9.9-1.1l1.5-.8 1.5-.6 1.6-.6c4.7-1.9 9.6-3.5 14.2-5.5l2-.9a66.3 66.3 0 0 0 8.1-4.7c1.9-1.7 3.6-4 5.3-6.4l1.1-1.5 1.1-1.8 1.3-1.7c2.2-4.5 10.7-7.5 10-12.2z" clip-rule="evenodd"/>
  <path fill="#f3e6d6" fill-rule="evenodd" d="M153.3 128.7c-2.2-1.1-4.3-2.3-4.7-5.2 1.1-.2 1.3-1.3 2.6-1.3.5 2.4 1.4 4.3 2.1 6.5z" clip-rule="evenodd"/>
  <path fill="#260d3d" fill-rule="evenodd" d="M123.2 126.1c-.2-1.8 3.7-1.8 1.7-3-5.3-2.9-6.9 10.8-16.4 8.2 7.4 3.8 15.7 4.1 23.7 7.3-2.2-5-5.7-8.6-9-12.5zm-3.1 5.2c-.4-9.8 9.1 4.5 9.9 5.6-2.8-.8-5.1-2.1-8.2-2.6 1-2.6-1.5-1.6-1.7-3zm42 55.5l-.7-.9-.6-1-.5-1.1-.5-1.1a34 34 0 0 1-1.8-11.4l.1-1.2.3-2.4.2-1.4 1-4 .7-2 .8-1.9c-2.5.7-5.3 1.3-8.4 1.7l-1.3.2c-3.8.4-7.8.5-11.7.6h-2.6l-1.2-.1-3.6-.4-1.3-.1-3.8-.3-1.4-.2-4-.7-1.1-.3-.8-.4c-.6-.4-1.5-1-1.1-1.6.5-.9 1.9-.9 3-.7h1.1l1.1-.1c-.3-.4-.6-.7-1-.9a8.6 8.6 0 0 0-7.5.2c-3.1 1.4-5.2 4.5-4.7 7.9l.2 1c.3 1.3.9 2.6 1.8 3.6.4.4.8.7 1.3.9l-.1-.8-.1-.8c-.3-1.6-.4-3.2-.1-4.7l.3-.9 1 1 1 1.1 1 1 5 4.9 1 .9 1.1.9 1.1.9 2.9 2.4 1 .8 4.4 2.9 1.1.7 5.4 3.1 1.1.6 1 .4 1 .5a66.2 66.2 0 0 0 15.6 4.8l1.1.2 1.4.1 1.4-.1 1.2-.6-.9-.6c-.4-.1-.6-.4-.9-.6z" clip-rule="evenodd"/>
  <path fill="#fff" fill-rule="evenodd" d="M119.1 161.4l1.8.4.9.2.9.2 3.7.5 1.2.2 4.6.4 1.2.1 1.1.1 1.1.1 1.1.1h1.1c4.2.1 8.5-.1 12.7-.4l1.2-.1 3.6-.3-.1.9-.1.9-.1 1.4c-.2 3.8-.3 7.7.5 11.6l.2 1.1.2 1.1.3 1.1c.6 1.8 1.5 3.5 2.6 5.1-2.1-.6-4.2-.7-6.1-1.6l-1-.3-1.9-.6-1.1-.4-2.1-.9-2-.9c-2.9-1.2-5.6-2.8-8.3-4.2l-2-1.1-3.9-2.4-1-.7-1.8-1.5-.7-.6-.7-.7-1.1-1-2.9-3.1-1.8-2.3c-.3-.8-.8-1.6-1.3-2.4z" clip-rule="evenodd"/>
  <path fill="#260d3d" fill-rule="evenodd" d="M128.9 103.9c-.3.1-.7.1-.9.3l-.7.5-2.1 2.5-.7.8a11 11 0 0 1-2.3 2l-.8.6a36.7 36.7 0 0 1-5.2 2.7l-1.1.5-5.3 2.3-1.3.6c-3.9 1.8-5.3 6-6.8 9.7a34 34 0 0 0 8.9-2.7l1.1-.4 4.5-1.9 1-.5c2.3-1.3 4.6-2.9 6.4-4.8l.8-.9c1.3-1.6 2.3-3.5 3.1-5.4l.4-1.2c.4-1.2.7-2.5.9-3.8l.1-.9z" clip-rule="evenodd"/>
  <path fill="#260d3d" d="M263.7 71.4a33.4 33.4 0 1 1 66.8 0 33.5 33.5 0 0 1-66.8 0zm3.9 0a29.5 29.5 0 1 0 59 0 29.6 29.6 0 0 0-59 0z"/>
  <path fill="#732d8c" fill-rule="evenodd" d="M84.4 130.8s-15.5-.4-26.8-9.2l-3.1-2.2c-11.3-13.7-10.1-39.2 3.9-50.2a67.4 67.4 0 0 1 53.5-11.7c-15.3-6.3-36.2-.3-46.9 4.7a36.8 36.8 0 0 1 24.8-21.7c3 7.3 13.9 6.7 21.6 9.4-.6 1.9-4.3 3.2-3.8 4.7 5.8-8.2 14.5.8 16 8-2.8.8-4.2 3-5.2 5.6-3.9-1.9-11.8-3.6-16.9-1.4 7.5-.2 14.4.3 16.4 5.6-5.9 1.9-11.1 4.5-14.1 9.4 3.6-3.6 8.3-6 14.5-7 .5 10.6 18.2 11.2 17.4-.9 7.2-.3 12.6 3.7 16 5.6-4-4.1-9-7.3-16.4-8 2.5-5.3 9.4-6.3 15.5-8-7.3-.2-12.1 2-16.4 4.7-.8-2.8-3.7-3.5-4.7-6.1a36.2 36.2 0 0 0 1.4-15.5c26.1-1.9 34.2 33.4 16.4 47.4-19.2-17.4-52.5-3.4-59.3 15.8-3.9 7.9-3.8 21-3.8 21z" clip-rule="evenodd"/>
  <path fill="#fff" fill-rule="evenodd" d="M123.1 46.5c-5.8-8.3-14.9-21.3-26.7-16.4-10.7 5.9 9.5 5.4 16.7 13.3 1.4 1.5 2.6 3 1.9 2.9-5.9-2.3-17.7-8.5-19.5-5.4-3.2 6.4 12.8 5.5 19.2 7.5 7 2.2 11.8 7.8 12.7 16.9 6.8-15-9.8-40.8-13.7-37.6-2 1.3 2.7 4.7 4.5 7.2 2.2 3.1 4.2 6.5 4.9 11.6z" clip-rule="evenodd"/>
  <path fill="#f89728" d="M328.6 71.4a31.5 31.5 0 1 1-63 0 31.5 31.5 0 0 1 63 0zm-76.9-6.1l3.6.6-3.4 1.3c-1 .4-1.6 1.2-1.8 2.2l-.6 3.6-1.3-3.4a3 3 0 0 0-2.2-1.8l-3.6-.6 3.4-1.3c1-.4 1.6-1.2 1.8-2.2l.6-3.6 1.3 3.4a3 3 0 0 0 2.2 1.8M274.1 23c-1.6-.3-3-1.4-3.6-2.9l-2.1-5.5-1 5.8c-.3 1.6-1.4 3-2.9 3.5L259 26l5.8 1c1.6.3 3 1.4 3.5 2.9l2.1 5.5 1-5.8c.3-1.6 1.4-3 2.9-3.5l5.5-2.1-5.7-1m67.3 6.3c-1.1-.2-2-.9-2.4-1.9l-1.4-3.6-.6 3.8c-.2 1.1-.9 2-1.9 2.3l-3.6 1.4 3.8.6c1.1.2 2 .9 2.3 1.9l1.4 3.6.6-3.8c.2-1.1.9-2 1.9-2.4l3.6-1.4-3.7-.5m-27.6 104.5c-1.6-.3-3-1.4-3.6-2.9l-2.1-5.5-1 5.8c-.3 1.6-1.4 3-2.9 3.5l-5.5 2.1 5.8 1c1.6.3 3 1.4 3.5 2.9l2.1 5.5 1-5.8c.3-1.6 1.4-3 2.9-3.5l5.5-2.1-5.7-1"/>
  <path fill="#260d3d" fill-rule="evenodd" d="M290.3 44.3h4.7l-.1 7.6 3.8-.1v-7.6h4.7l-.1 7.7c6.1.6 11.8 2.9 11.5 9.6a7.3 7.3 0 0 1-4.1 6.5c3.8 1 6.4 3.1 6.8 7.4v2.1c-.6 7.7-6.5 9.9-14.4 10.2l-.1 7.9h-4.7l.1-7.7c-1.1-.2-2.5 0-3.7-.1-.2 2.4-.1 5.2-.1 7.8h-4.7l.1-7.8c-3-.3-6.6 0-9.6-.2v-.2l1-5.4c1.9-.2 4.6.6 5.2-1.1.4-1.3.1-3.9.1-5.6l.1-11.2c0-1.8.3-4.3-.1-5.5-.7-2-3.6-1.5-6-1.6v-5.1l9.6.1v-7.7zm4.7 13.4l-.1 9.2c3.9.1 8.2.1 10.1-1.9 1-1.1 1.4-3.2.5-4.8-1.5-2.8-5.9-2.7-10.4-2.7l-.1.2zm11.7 22.6c1-.8 1.5-2.1 1.5-3.3 0-5.3-7.7-5.5-13.3-5.2 0 3.5-.2 7.1 0 10.4 4.9 0 9.2.2 11.8-1.9z" clip-rule="evenodd"/>
  <path fill="#f89728" d="M116.2 346.5l-10.7 6.9-.4-.4 10.8-7-.4-.9-11.1 7.2c-.3.2-.5.6-.2 1.1.2.4.6.8 1.1.9.3.1.5 0 .7-.1l10.9-7-.7-.7zm78.5-52.9l-54 35.8.3.6.5.6 53.7-35.5.5-.3c.5-.4-.5-1.5-1-1.2z"/>
  <path fill="#f89728" d="M194.1 304.8l-1.1-9.2-8.2-4.4 8.5-3.9 1.6-9.2 6.3 6.9 9.2-1.4-4.5 8.2 4.1 8.4-9.2-1.9z"/>
</svg>
