<?xml version="1.0" encoding="iso-8859-1"?>
<!-- Generator: Adobe Illustrator 19.0.0, SVG Export Plug-In . SVG Version: 6.00 Build 0)  -->
<svg version="1.1" id="Layer_1" xmlns="http://www.w3.org/2000/svg" xmlns:xlink="http://www.w3.org/1999/xlink" x="0px" y="0px"
	 viewBox="0 0 330 330" style="enable-background:new 0 0 330 330;" xml:space="preserve">
<path id="XMLID_334_" d="M287.5,120.01h-21.077c0.705-4.904,1.077-9.914,1.077-15.01c0-5.089-0.371-10.093-1.074-14.99H287.5
	c8.284,0,15-6.716,15-15c0-8.284-6.716-15-15-15h-30.141C240.48,24.562,204.307,0,162.5,0c-0.208,0-0.416,0.004-0.623,0.013h-89.3
	c-0.026,0-0.051-0.004-0.077-0.004c-8.284,0-15,6.716-15,15v0.004V60.01h-15c-8.284,0-15,6.716-15,15c0,8.284,6.716,15,15,15h15v30
	h-15c-8.284,0-15,6.716-15,15c0,8.284,6.716,15,15,15h15V195v120c0,8.284,6.716,15,15,15s15-6.716,15-15V210h75
	c41.799,0,77.966-24.553,94.851-59.99H287.5c8.284,0,15-6.716,15-15C302.5,126.726,295.784,120.01,287.5,120.01z M87.5,30.013h75
	c0.19,0,0.38-0.003,0.568-0.011c24.256,0.181,45.803,11.94,59.394,30.008H87.5V30.013z M87.5,90.01h148.494
	c0.986,4.845,1.506,9.858,1.506,14.99c0,5.139-0.521,10.158-1.511,15.01H87.5V90.01z M162.5,180h-75v-29.99h134.951
	C208.754,168.208,186.98,180,162.5,180z"/>
<g>
</g>
<g>
</g>
<g>
</g>
<g>
</g>
<g>
</g>
<g>
</g>
<g>
</g>
<g>
</g>
<g>
</g>
<g>
</g>
<g>
</g>
<g>
</g>
<g>
</g>
<g>
</g>
<g>
</g>
</svg>
