<?xml version="1.0" encoding="iso-8859-1"?>
<!-- Generator: Adobe Illustrator 19.0.0, SVG Export Plug-In . SVG Version: 6.00 Build 0)  -->
<svg version="1.1" id="Layer_1" xmlns="http://www.w3.org/2000/svg" xmlns:xlink="http://www.w3.org/1999/xlink" x="0px" y="0px"
	 viewBox="0 0 445.452 445.452" style="enable-background:new 0 0 445.452 445.452;" xml:space="preserve">
<g>
	<path style="fill:#ffffff;" d="M198.773,116.618c0,47.52-36.279,86.18-80.871,86.18H40.909V0.452h-40v445h40V242.798h76.993
		c44.592,0,80.871,38.672,80.871,86.207v116.446h40V329.005c0-44.522-22.195-83.732-55.637-106.205
		c33.442-22.468,55.637-61.67,55.637-106.182V0.452h-40V116.618z"/>
	<polygon style="fill:#ffffff;" points="368.653,86.537 404.699,18.946 369.405,0.123 351.548,33.606 333.322,0 298.159,19.069 
		334.747,86.531 	"/>
	<path style="fill:#ffffff;" d="M351.396,405.452c-29.305,0-53.146-23.841-53.146-53.146V199.158
		c0-29.305,23.841-53.146,53.146-53.146s53.146,23.841,53.146,53.146h40c0-51.361-41.785-93.146-93.146-93.146
		s-93.146,41.785-93.146,93.146v153.147c0,51.361,41.785,93.146,93.146,93.146s93.146-41.785,93.146-93.146h-40
		C404.543,381.61,380.701,405.452,351.396,405.452z"/>
</g>
<g>
</g>
<g>
</g>
<g>
</g>
<g>
</g>
<g>
</g>
<g>
</g>
<g>
</g>
<g>
</g>
<g>
</g>
<g>
</g>
<g>
</g>
<g>
</g>
<g>
</g>
<g>
</g>
<g>
</g>
</svg>
