<?xml version="1.0" encoding="utf-8"?>
<!-- Svg Vector Icons : http://www.onlinewebfonts.com/icon -->
<!DOCTYPE svg PUBLIC "-//W3C//DTD SVG 1.1//EN" "http://www.w3.org/Graphics/SVG/1.1/DTD/svg11.dtd">
<svg version="1.1" xmlns="http://www.w3.org/2000/svg" xmlns:xlink="http://www.w3.org/1999/xlink" x="0px" y="0px" viewBox="0 0 1000 1000" enable-background="new 0 0 1000 1000" xml:space="preserve">
<metadata> Svg Vector Icons : http://www.onlinewebfonts.com/icon </metadata>
<g><g transform="translate(0.000000,511.000000) scale(0.100000,-0.100000)"><path d="M1490.9,2662.5c-381.9-30.6-1027.4-130.7-1313.3-206.3l-77.6-20.4v-337c0-314.5,2-339,36.8-324.7c375.8,149.1,874.2,236.9,1525.7,267.6l265.5,12.3l-208.3-104.2c-355.4-177.7-643.4-424.8-915-784.3C404.3,632.3,226.6,44.1,281.8-552.3c49-500.4,216.5-892.6,518.8-1211.2c398.3-418.7,947.7-622.9,1821.9-682.2c688.3-44.9,1325.6,63.3,1721.8,288l106.2,61.3v337c0,185.9-4.1,337-8.2,337c-2,0-106.2-47-226.7-104.2c-488.1-230.8-851.7-314.6-1348-310.5c-992.6,8.2-1607.4,335-1840.3,976.3c-132.8,363.6-98,898.7,83.7,1309.2c89.9,200.2,263.5,441.2,463.6,631.1c488.1,473.9,1080.5,737.3,1805.5,806.8c122.5,10.2,243.1,20.4,269.6,20.4c44.9,0,44.9,4.1,44.9,283.9v283.9l-183.8,42.9C2996.2,2640,2062.8,2705.4,1490.9,2662.5z"/><path d="M8202.4,2495c189.9-167.5,428.9-422.8,561.7-598.4c149.1-194,345.2-590.3,394.2-788.4c49-196.1,34.7-482-28.6-614.8c-108.2-222.6-435-443.2-770-518.8c-241-53.1-441.2-30.6-921.2,106.2l-47,12.2v-337v-339l138.9-42.9c75.6-24.5,239-59.2,361.5-75.6c189.9-28.6,261.4-30.6,459.6-10.2c943.6,96,1476.7,580.1,1544.1,1403.2c24.5,306.4-53.1,604.6-261.4,1017.1c-149.1,292.1-316.6,522.9-533.1,735.3l-163.4,157.3h-426.9h-428.9L8202.4,2495z"/><path d="M5308.3-105v-480h388.1h388.1v480v480h-388.1h-388.1V-105z"/><path d="M2428.4-207.2v-275.7h275.7h275.7v275.7V68.6h-275.7h-275.7V-207.2z"/></g></g>
</svg>