<svg xmlns="http://www.w3.org/2000/svg" viewBox="0 0 314 314"><circle cx="157" cy="157" r="157" fill="#f68922"/><path d="m153 89s-48 7-55 60c0 0-7.42 59.33 53.61 75.34a51.05 51.05 0 0 0 12.95 1.66h3a23.43 23.43 0 0 1 23.44 23.43 23.34 23.34 0 0 1 -21.6 23.37c-30 2-70.27-12.62-96.4-47.8 0 0-51.17-73.09 4.6-140.24a118.32 118.32 0 0 1 49.76 -35.5c22.92-8.52 56.49-14 85.64 8.74 0 0 39 30 19 79 0 0-14 39-62 42l-6.67-.37a22.1 22.1 0 0 1 -21.26 -25.63 22.1 22.1 0 0 1 21.15 -18.54l6.78-.46s23-1 21-28c0 0-2-24-38-17" fill="#2a2460"/></svg>