<?xml version="1.0" encoding="iso-8859-1"?>
<!-- Generator: Adobe Illustrator 18.1.1, SVG Export Plug-In . SVG Version: 6.00 Build 0)  -->
<svg version="1.1" id="Capa_1" xmlns="http://www.w3.org/2000/svg" xmlns:xlink="http://www.w3.org/1999/xlink" x="0px" y="0px"
	 viewBox="0 0 13.531 13.531" style="enable-background:new 0 0 13.531 13.531;" xml:space="preserve">
<g>
	<path style="fill:#010002;" d="M11.432,10.994v2.537H2.099v-1.658c1.086-0.449,2.271-1.616,2.271-3.009
		c0-0.287,0-0.552-0.041-0.819H2.322V5.917h1.64C3.858,5.404,3.798,4.83,3.798,4.257C3.798,1.7,5.66,0,8.424,0
		c1.105,0,1.943,0.245,2.395,0.492l-0.493,2.354c-0.41-0.225-0.983-0.368-1.739-0.368c-1.454,0-1.904,0.921-1.904,1.923
		c0,0.534,0.084,1.005,0.206,1.517h2.804v2.128H7.155c0.021,0.492-0.04,0.982-0.185,1.453c-0.183,0.513-0.511,1.024-1.002,1.453
		v0.042H11.432z"/>
</g>
<g>
</g>
<g>
</g>
<g>
</g>
<g>
</g>
<g>
</g>
<g>
</g>
<g>
</g>
<g>
</g>
<g>
</g>
<g>
</g>
<g>
</g>
<g>
</g>
<g>
</g>
<g>
</g>
<g>
</g>
</svg>
