<?xml version="1.0" encoding="utf-8"?>
<!-- Svg Vector Icons : http://www.onlinewebfonts.com/icon -->
<!DOCTYPE svg PUBLIC "-//W3C//DTD SVG 1.1//EN" "http://www.w3.org/Graphics/SVG/1.1/DTD/svg11.dtd">
<svg version="1.1" xmlns="http://www.w3.org/2000/svg" xmlns:xlink="http://www.w3.org/1999/xlink" x="0px" y="0px" viewBox="0 0 1000 1000" enable-background="new 0 0 1000 1000" xml:space="preserve">
<metadata> Svg Vector Icons : http://www.onlinewebfonts.com/icon </metadata>
<g><g transform="translate(0.000000,511.000000) scale(0.100000,-0.100000)"><path d="M1474,110v-4900h1343.4c737,0,1470,10.2,1627.2,20.4C6608.8-4608.3,7980.8-3409.8,8405.5-1309c102.1,500.2,120.5,728.9,120.5,1449.6c2,857.5-40.8,1223-216.4,1857.9c-455.3,1657.8-1639.5,2674.6-3415.7,2938c-400.2,59.2-792.2,73.5-2096.8,73.5H1474V110z M4648.8,3932C6176,3640,7011,2660,7223.3,906.3c47-377.7,44.9-1137.2,0-1521c-122.5-1014.7-432.8-1739.5-971.8-2276.5c-383.8-383.8-812.6-620.7-1388.3-765.6c-365.5-91.9-616.6-112.3-1421-112.3H2699V112v3881.2l863.6-10.2C4326.2,3974.9,4448.7,3968.7,4648.8,3932z"/></g></g>
</svg>