<?xml version="1.0" encoding="iso-8859-1"?>
<!-- Generator: Adobe Illustrator 16.0.0, SVG Export Plug-In . SVG Version: 6.00 Build 0)  -->
<!DOCTYPE svg PUBLIC "-//W3C//DTD SVG 1.1//EN" "http://www.w3.org/Graphics/SVG/1.1/DTD/svg11.dtd">
<svg xmlns="http://www.w3.org/2000/svg" xmlns:xlink="http://www.w3.org/1999/xlink" version="1.1" id="Layer_1" x="0px" y="0px" width="512px" height="512px" viewBox="0 0 612 612" style="enable-background:new 0 0 612 612;" xml:space="preserve">
<g>
	<g>
		<g>
			<path d="M266.349,334.907h46.13c23.917,0,40.588,17.455,40.588,41.504v82.379h51.618v-82.379     c0-52.219-40.117-93.123-92.206-93.123h-12.017l114.441-128.013h-69.238l-79.316,87.953v-87.953h-51.618V458.79h27.529h24.089     V334.907z" fill="#FFFFFF"/>
		</g>
		<g>
			<polygon points="192.019,155.276 188.577,155.276 140.401,155.276 140.401,281.224 51.618,281.224 51.618,155.276 0,155.276      0,458.79 51.618,458.79 51.618,332.843 140.401,332.843 140.401,458.79 188.577,458.79 192.019,458.79    " fill="#FFFFFF"/>
		</g>
		<g>
			<path d="M611.535,373.364c0-41.721-27.219-77.153-66.448-88.153v-74.303c10.323,7.206,15.295,18.267,15.295,31.088H612     c0-42.7-27.684-77.367-66.913-88.079v-23.418h-51.618v23.887c-37.165,11.375-64.83,46.233-64.83,87.439     c0,41.253,27.665,76.198,64.83,87.553v73.768c-8.259-7.365-12.748-17.885-12.748-29.01h-51.618     c0,40.537,27.201,75.588,64.366,87.008v20.357h51.618v-20.012C584.316,450.454,611.535,415.046,611.535,373.364z      M480.256,241.868c0-11.783,4.954-22.344,13.213-29.635v59.317C485.21,264.26,480.256,253.676,480.256,241.868z M545.087,404.38     v-61.809c10.323,7.383,14.83,18.482,14.83,30.793C559.917,385.802,555.41,396.999,545.087,404.38z" fill="#FFFFFF"/>
		</g>
	</g>
</g>
<g>
</g>
<g>
</g>
<g>
</g>
<g>
</g>
<g>
</g>
<g>
</g>
<g>
</g>
<g>
</g>
<g>
</g>
<g>
</g>
<g>
</g>
<g>
</g>
<g>
</g>
<g>
</g>
<g>
</g>
</svg>
