<?xml version="1.0" encoding="utf-8"?>
<!-- Svg Vector Icons : http://www.onlinewebfonts.com/icon -->
<!DOCTYPE svg PUBLIC "-//W3C//DTD SVG 1.1//EN" "http://www.w3.org/Graphics/SVG/1.1/DTD/svg11.dtd">
<svg version="1.1" xmlns="http://www.w3.org/2000/svg" xmlns:xlink="http://www.w3.org/1999/xlink" x="0px" y="0px" viewBox="0 0 1000 1000" enable-background="new 0 0 1000 1000" xml:space="preserve">
<metadata> Svg Vector Icons : http://www.onlinewebfonts.com/icon </metadata>
<g><g transform="translate(0.000000,511.000000) scale(0.100000,-0.100000)"><path d="M5422.7,4998.7c-749.9-55.2-1473.2-292.2-2053.5-674.3C2022.7,3437.6,1317.8,1778.5,1419.9-273c81.7-1685.7,715.2-2999.5,1826.7-3796.4c239.1-171.6,692.7-398.4,1001.2-500.6c1458.9-480.2,3244.7-153.2,4225.5,774.4l116.5,110.3v1979.9V272.6H7036.9H5484v-490.4v-490.4h1001.2h1001.2v-1242.3v-1242.3l-106.3-77.7c-455.6-341.2-1152.4-514.9-1849.2-461.8c-794.8,61.3-1354.7,302.4-1857.3,805.1c-531.3,533.3-835.7,1217.8-982.8,2208.8c-45,308.5-51.1,1307.7-10.2,1593.8c143,997.1,459.7,1712.3,995.1,2249.6c500.6,504.7,1080.9,764.2,1841,825.5c854.1,67.4,1557-173.7,2139.3-733.5l141-134.9l42.9,53.1c24.5,30.6,175.7,202.3,335.1,382.1l292.2,326.9l-192.1,181.9c-476.1,449.5-1093.2,772.4-1728.6,903.1C6201.2,5000.7,5794.6,5027.3,5422.7,4998.7z"/></g></g>
</svg>