<?xml version="1.0" encoding="iso-8859-1"?>
<!-- Generator: Adobe Illustrator 16.0.0, SVG Export Plug-In . SVG Version: 6.00 Build 0)  -->
<!DOCTYPE svg PUBLIC "-//W3C//DTD SVG 1.1//EN" "http://www.w3.org/Graphics/SVG/1.1/DTD/svg11.dtd">
<svg xmlns="http://www.w3.org/2000/svg" xmlns:xlink="http://www.w3.org/1999/xlink" version="1.1" id="Layer_1" x="0px" y="0px" width="512px" height="512px" viewBox="0 0 612 612" style="enable-background:new 0 0 612 612;" xml:space="preserve">
<g>
	<g>
		<g>
			<path d="M241.286,216.171c27.066-22.528,44.564-56.961,44.564-95.499C285.85,54.134,232.029,0,165.552,0     C99.137,0,45.149,54.134,45.149,120.718l0.072,301.866h50.786V243.462h69.825c40.399,0,70.179,27.389,70.179,63.71v115.412     h51.472V307.172C287.483,269.766,269.781,237.079,241.286,216.171z M96.008,191.99v-54.062l0.268-17.255     c0.002-38.157,31.073-69.201,69.104-69.201c38.093,0,68.742,31.044,68.742,69.201c0,39.328-31.052,71.325-68.112,71.325v0.012     c0-0.002,0.113-0.021-0.177-0.021H96.008z" fill="#FFFFFF"/>
		</g>
		<g>
			<g>
				<path d="M446.772,187.763c-66.307,0-119.57,54.418-119.57,120.724c0,2.139,0.086,303.513,0.086,303.513h50.785V407.184      c20.59,13.302,43.16,21.083,68.357,21.083c66.305,0,120.42-53.945,120.42-120.251      C566.851,241.709,513.077,187.763,446.772,187.763z M447.114,376.944c-38.188,0-69.146-30.957-69.146-69.143      c0-38.186,30.959-69.144,69.146-69.144c38.186,0,69.141,30.958,69.141,69.144C516.255,345.987,485.3,376.944,447.114,376.944z" fill="#FFFFFF"/>
			</g>
		</g>
	</g>
</g>
<g>
</g>
<g>
</g>
<g>
</g>
<g>
</g>
<g>
</g>
<g>
</g>
<g>
</g>
<g>
</g>
<g>
</g>
<g>
</g>
<g>
</g>
<g>
</g>
<g>
</g>
<g>
</g>
<g>
</g>
</svg>
