<?xml version="1.0" encoding="iso-8859-1"?>
<!-- Generator: Adobe Illustrator 16.0.0, SVG Export Plug-In . SVG Version: 6.00 Build 0)  -->
<!DOCTYPE svg PUBLIC "-//W3C//DTD SVG 1.1//EN" "http://www.w3.org/Graphics/SVG/1.1/DTD/svg11.dtd">
<svg xmlns="http://www.w3.org/2000/svg" xmlns:xlink="http://www.w3.org/1999/xlink" version="1.1" id="Capa_1" x="0px" y="0px" width="512px" height="512px" viewBox="0 0 746.222 746.222" style="enable-background:new 0 0 746.222 746.222;" xml:space="preserve">
<g>
	<g>
		<path d="M297.844,30.65c156.321,0,164.258,114.183,164.258,137.028V500.58c0,8.463,6.841,15.347,15.348,15.347    c8.463,0,15.347-6.84,15.347-15.347V167.678C492.796,90.329,441.712,0,297.844,0H82.458c-8.463,0-15.347,6.84-15.347,15.347    c0,0.526,0.219,0.964,0.263,1.447c-0.044,0.438-0.263,0.833-0.263,1.359v712.721c0,8.463,6.884,15.348,15.347,15.348    s15.347-6.841,15.347-15.348V30.65H297.844z" fill="#FFFFFF"/>
		<path d="M663.764,0c-8.463,0-15.348,6.84-15.348,15.347v700.224H448.377c-156.321,0-164.258-114.183-164.258-137.028V245.642    c0-8.462-6.884-15.347-15.347-15.347c-8.462,0-15.347,6.84-15.347,15.347v332.901c0,77.35,51.04,167.679,194.952,167.679h215.387    c8.462,0,15.347-6.841,15.347-15.348c0-0.525-0.263-0.92-0.307-1.446c0.044-0.438,0.307-0.877,0.307-1.359V15.347    C679.111,6.84,672.226,0,663.764,0z" fill="#FFFFFF"/>
	</g>
</g>
<g>
</g>
<g>
</g>
<g>
</g>
<g>
</g>
<g>
</g>
<g>
</g>
<g>
</g>
<g>
</g>
<g>
</g>
<g>
</g>
<g>
</g>
<g>
</g>
<g>
</g>
<g>
</g>
<g>
</g>
</svg>
