<svg xmlns="http://www.w3.org/2000/svg" viewBox="0 0 144 145.09"><g data-name="logo2   -30753443"><g fill="#b2a3f6"><ellipse cx="55.28" cy="39.45" rx="9" ry="8.91"/><ellipse cx="80.99" cy="29.27" rx="9" ry="8.91"/><ellipse cx="91.28" cy="90.36" rx="9" ry="8.91"/><ellipse cx="5.14" cy="81.45" rx="5.14" ry="5.09"/><ellipse cx="19.28" cy="115.82" rx="3.86" ry="3.82"/><ellipse cx="60.42" cy="141.27" rx="3.86" ry="3.82"/><ellipse cx="127.28" cy="118.36" rx="3.86" ry="3.82"/><ellipse cx="86.14" cy="110.73" rx="3.86" ry="3.82"/><ellipse cx="109.28" cy="92.91" rx="3.86" ry="3.82"/><ellipse cx="82.28" cy="140" rx="5.14" ry="5.09"/><ellipse cx="105.42" cy="76.36" rx="5.14" ry="5.09"/><ellipse cx="113.14" cy="127.27" rx="5.14" ry="5.09"/><ellipse cx="11.56" cy="100.55" rx="6.43" ry="6.36"/><ellipse cx="73.28" cy="123.45" rx="9" ry="8.91"/><ellipse cx="24.42" cy="80.18" rx="9" ry="8.91"/><ellipse cx="73.28" cy="103.09" rx="6.43" ry="6.36"/><ellipse cx="42.42" cy="49.64" rx="3.86" ry="3.82"/><ellipse cx="66.85" cy="61.09" rx="7.71" ry="7.64"/><ellipse cx="84.85" cy="71.27" rx="5.14" ry="5.09"/><ellipse cx="93.85" cy="8.91" rx="3.86" ry="3.82"/><ellipse cx="75.85" cy="6.36" rx="6.43" ry="6.36"/><ellipse cx="79.71" cy="48.36" rx="5.14" ry="5.09"/><ellipse cx="30.85" cy="101.82" rx="7.71" ry="7.64"/><ellipse cx="105.42" cy="109.45" rx="7.71" ry="7.64"/><ellipse cx="95.14" cy="127.27" rx="7.71" ry="7.64"/><ellipse cx="34.71" cy="126" rx="9" ry="8.91"/><ellipse cx="7.71" cy="61.09" rx="7.71" ry="7.64"/></g><g data-name="Group-62   -30753443" fill="#fc4c04"><ellipse cx="46.28" cy="71.27" rx="10.29" ry="10.18"/><ellipse cx="100.28" cy="56" rx="10.29" ry="10.18"/><ellipse cx="128.56" cy="101.82" rx="7.71" ry="7.64"/><ellipse cx="136.28" cy="71.27" rx="7.71" ry="7.64"/><ellipse cx="106.71" cy="36.91" rx="6.43" ry="6.36"/><ellipse cx="107.99" cy="17.82" rx="5.14" ry="5.09"/><ellipse cx="119.56" cy="24.18" rx="3.86" ry="3.82"/><ellipse cx="140.14" cy="54.73" rx="3.86" ry="3.82"/><ellipse cx="29.56" cy="21.64" rx="3.86" ry="3.82"/><ellipse cx="24.42" cy="54.73" rx="3.86" ry="3.82"/><ellipse cx="34.71" cy="59.82" rx="3.86" ry="3.82"/><ellipse cx="47.56" cy="11.45" rx="3.86" ry="3.82"/><ellipse cx="140.14" cy="87.82" rx="3.86" ry="3.82"/><ellipse cx="127.28" cy="42" rx="9" ry="8.91"/><ellipse cx="119.56" cy="64.91" rx="6.43" ry="6.36"/><ellipse cx="32.14" cy="36.91" rx="6.43" ry="6.36"/><ellipse cx="60.42" cy="19.09" rx="6.43" ry="6.36"/><ellipse cx="43.71" cy="22.91" rx="5.14" ry="5.09"/><ellipse cx="15.42" cy="43.27" rx="5.14" ry="5.09"/><ellipse cx="123.42" cy="84" rx="5.14" ry="5.09"/><ellipse cx="68.14" cy="82.73" rx="9" ry="8.91"/><ellipse cx="51.42" cy="91.64" rx="5.14" ry="5.09"/><ellipse cx="53.99" cy="109.45" rx="7.71" ry="7.64"/><ellipse cx="53.99" cy="127.27" rx="5.14" ry="5.09"/></g></g></svg>