<?xml version="1.0" encoding="utf-8"?>
<!-- Svg Vector Icons : http://www.onlinewebfonts.com/icon -->
<!DOCTYPE svg PUBLIC "-//W3C//DTD SVG 1.1//EN" "http://www.w3.org/Graphics/SVG/1.1/DTD/svg11.dtd">
<svg version="1.1" xmlns="http://www.w3.org/2000/svg" xmlns:xlink="http://www.w3.org/1999/xlink" x="0px" y="0px" viewBox="0 0 1000 1000" enable-background="new 0 0 1000 1000" xml:space="preserve">
<metadata> Svg Vector Icons : http://www.onlinewebfonts.com/icon </metadata>
<g><g transform="translate(0.000000,511.000000) scale(0.100000,-0.100000)"><path d="M7940,3166.2c-722.8-42.9-1127-202.1-1523.1-602.3c-292-294-430.8-649.2-410.4-1061.7c10.2-251.1,63.3-398.1,189.9-539c108.2-120.5,220.5-189.9,383.8-236.8l120.4-34.7l-118.4-63.3c-136.8-75.5-496.1-408.3-634.9-592.1c-238.9-314.4-338.9-751.3-294-1267.9c69.4-788.1,436.9-1253.6,1200.5-1523.1c412.4-145,851.4-208.3,1443.5-208.3c612.5,0,994.3,75.5,1394.5,271.5l208.3,102.1v363.4v363.4l-218.5-108.2c-271.5-132.7-577.8-238.9-851.4-298.1c-167.4-36.7-273.6-44.9-573.7-44.9c-775.8,2.1-1304.6,161.3-1639.5,496.2c-169.5,169.5-234.8,332.8-261.3,645.2C6302.6-506.8,6688.5-8.6,7615.4,448.8c426.7,212.3,896.3,355.2,1365.9,418.5l173.5,24.5l6.1,361.4l4.1,363.4l-96-12.3c-522.7-71.5-1000.4-179.7-1312.8-296c-96-36.7-222.5-81.7-279.7-104.1c-204.2-73.5-494.1-34.7-649.3,87.8c-173.5,136.8-177.6,537-10.2,765.6c175.6,238.9,651.3,412.4,1220.9,447.1l228.7,14.3v334.8c0,304.2-2,332.8-34.7,328.7C8211.5,3182.5,8080.9,3174.4,7940,3166.2z"/><path d="M1053.5,2114.8c475.7-449.2,761.5-875.9,884-1325c63.3-228.7,53.1-526.8-24.5-675.8c-106.2-204.2-320.5-369.5-624.7-479.8C984-478.2,667.6-470,249-335.3l-149,47v-363.4v-361.4l149-42.9c255.2-73.5,385.9-91.9,647.2-93.9c394-2,733,75.5,1041.2,234.8c483.9,251.1,739.1,659.5,786,1255.6c24.5,316.5-71.5,681.9-287.9,1088.2c-153.1,287.9-273.6,451.2-498.2,681.9l-216.4,218.5h-449.2H824.8L1053.5,2114.8z"/><path d="M3999.6-131.1c-93.9-42.9-177.6-124.5-228.7-224.6c-51-98-71.5-304.2-38.8-404.2c112.3-336.9,528.8-451.2,782-214.4c159.2,151.1,198,424.7,87.8,628.8c-38.8,67.4-96,134.7-149,173.5c-75.5,51-110.3,61.3-234.8,65.3C4118-102.5,4048.6-110.7,3999.6-131.1z"/></g></g>
</svg>