<?xml version="1.0" encoding="utf-8"?>
<!-- Svg Vector Icons : http://www.onlinewebfonts.com/icon -->
<!DOCTYPE svg PUBLIC "-//W3C//DTD SVG 1.1//EN" "http://www.w3.org/Graphics/SVG/1.1/DTD/svg11.dtd">
<svg version="1.1" xmlns="http://www.w3.org/2000/svg" xmlns:xlink="http://www.w3.org/1999/xlink" x="0px" y="0px" viewBox="0 0 1000 1000" enable-background="new 0 0 1000 1000" xml:space="preserve">
<metadata> Svg Vector Icons : http://www.onlinewebfonts.com/icon </metadata>
<g><g transform="translate(0.000000,512.000000) scale(0.100000,-0.100000)"><path d="M4635.9,5013.6C3315.2,4851,2312.3,3744.7,2314.3,2450.9c0-384.7,59.3-562.7,465.1-1406.7c442.1-918.7,591.4-1326.4,646.9-1764.6l17.2-130.2h-581.8c-692.8,0-713.9-5.7-713.9-174.2c0-34.4,19.1-74.6,47.8-103.4l45.9-47.9h595.2h593.3v-51.7c-1.9-88-68.9-365.5-143.5-587.6c-101.4-302.4-262.2-668-595.2-1355.1c-426.8-878.5-543.6-1182.8-543.6-1408.7c0-84.2,9.6-109.1,49.8-151.2l49.8-49.8l252.6,11.5c444,23,794.3,89.9,1494.8,290.9c543.6,155,706.2,187.6,928.3,187.6c220.1,0,338.8-24.9,1100.5-216.3c759.8-193.3,1198.1-266.1,1594.3-267.9c122.5,0,145.5,5.7,185.7,47.9c65.1,63.1,65.1,166.5,0,229.7c-38.3,40.2-65.1,47.9-156.9,47.9c-390.4,0-830.6,76.6-1690,294.7c-1035.4,262.2-1102.4,260.3-2086.2-19.1c-482.3-137.8-890-225.9-1177.1-252.6c-105.3-11.5-193.3-17.2-195.2-15.3c-9.6,7.7,84.2,266,153.1,423c36.4,84.2,195.2,421.1,354.1,746.4c329.2,681.3,484.2,1033.5,593.3,1358.9c70.8,212.5,149.3,534,160.8,669.9l5.7,57.4l679.4,3.8c455.5,3.8,692.9,13.4,719.6,26.8c45.9,22.9,84.2,93.8,84.2,153.1c0,21.1-24.9,65.1-55.5,95.7l-55.5,55.5H4456h-681.4l-7.7,44c-3.8,23-21.1,132.1-38.3,243.1c-38.3,246.9-118.7,524.4-233.5,821.1c-84.2,208.6-141.6,334.9-549.3,1198.1c-317.7,675.6-365.6,922.5-269.9,1397.2c208.6,1025.9,1062.2,1770.4,2109.2,1839.3c1012.5,67,1984.8-593.3,2300.6-1561.8c67-206.7,114.8-472.7,114.8-646.9c0-109.1,5.7-128.2,55.5-178c72.7-70.8,156.9-74.6,222-7.7c42.1,40.2,47.9,63.2,47.9,195.2c0,82.3-13.4,227.8-28.7,321.5C7323,3894,6521.1,4738,5449.3,4969.6C5280.9,5006,4790.9,5032.8,4635.9,5013.6z"/></g></g>
</svg>