<?xml version="1.0" encoding="utf-8"?>
<!-- Svg Vector Icons : http://www.onlinewebfonts.com/icon -->
<!DOCTYPE svg PUBLIC "-//W3C//DTD SVG 1.1//EN" "http://www.w3.org/Graphics/SVG/1.1/DTD/svg11.dtd">
<svg version="1.1" xmlns="http://www.w3.org/2000/svg" xmlns:xlink="http://www.w3.org/1999/xlink" x="0px" y="0px" viewBox="0 0 1000 1000" enable-background="new 0 0 1000 1000" xml:space="preserve">
<metadata> Svg Vector Icons : http://www.onlinewebfonts.com/icon </metadata>
<g><g transform="translate(0.000000,511.000000) scale(0.100000,-0.100000)"><path d="M100,220v-4548.4h531.5H1163V220v4548.4H631.5H100V220z"/><path d="M7164.8,553.2c218.7-188.1,695-672.5,852.4-864.7c222.8-276,359.8-492.7,504.9-791.1c259.6-539.7,337.3-946.5,255.5-1330.8c-53.1-249.4-243.3-519.2-484.5-684.8c-251.4-171.7-676.6-335.3-969-372.1c-290.3-36.8-717.5,26.6-1130.5,165.6c-96.1,32.7-179.9,59.3-190.1,59.3c-8.2,0-16.4-239.2-16.4-529.5v-529.5l159.4-53.1c412.9-137,909.7-198.3,1316.5-159.5c1091.6,102.2,1854.1,545.8,2201.6,1279.7c171.7,357.8,235.1,662.3,235.1,1095.7c-2.1,417-73.6,699.1-300.5,1200c-251.4,549.9-478.3,881.1-895.4,1300.1l-300.5,300.5h-668.5h-670.5L7164.8,553.2z"/><path d="M3671.3-2981.2c-229-34.8-419.1-182-523.3-404.8c-47-102.2-53.1-139-53.1-339.3s6.1-237.1,53.1-337.3c67.5-143.1,194.2-269.8,341.4-341.4c100.2-49,141.1-57.2,290.3-57.2c155.4,0,188.1,6.1,310.7,67.5c265.7,130.8,394.5,347.5,392.5,668.5c-2,233-53.2,376.1-192.2,527.4C4131.2-3022.1,3908.4-2944.5,3671.3-2981.2z"/></g></g>
</svg>