<svg xmlns="http://www.w3.org/2000/svg" width="1732" height="2000" viewBox="0 0 1732 2000"><path fill="#648495" d="M866 0 0 500.02 866 2000 1732 500.02 866 0z"/><path fill="#dcf3ff" d="M866 0 0 500.02 577.35 500.02 866 0z"/><path fill="#e6f8ff" d="m0 500.02l484.38 161.03 92.97-161.03h-577.35"/><path fill="#9bc5dc" d="m484.38 661.05l92.97-161.03h1154.65l-1247.62 161.03"/><path fill="#7b9fb1" d="M577.35 500.02 866 0 1732 500.02 577.35 500.02z"/><path fill="#49606d" d="M0 500.02 484.38 661.05 866 2000 0 500.02z"/><path fill="#fff" d="m476.23 658.36l389.77-658.36-371.41 659.75-10.21 1.3-8.15-2.69"/></svg>