<?xml version="1.0" encoding="utf-8"?>
<!-- Svg Vector Icons : http://www.onlinewebfonts.com/icon -->
<!DOCTYPE svg PUBLIC "-//W3C//DTD SVG 1.1//EN" "http://www.w3.org/Graphics/SVG/1.1/DTD/svg11.dtd">
<svg version="1.1" xmlns="http://www.w3.org/2000/svg" xmlns:xlink="http://www.w3.org/1999/xlink" x="0px" y="0px" viewBox="0 0 1000 1000" enable-background="new 0 0 1000 1000" xml:space="preserve">
<metadata> Svg Vector Icons : http://www.onlinewebfonts.com/icon </metadata>
<g><g transform="translate(0.000000,511.000000) scale(0.100000,-0.100000)"><path d="M5939.6,171.2v-3611.5h418.3h418.3v1793.5V146.7l189.7,171.4c234.6,214.2,369.3,322.4,512.1,402c440.7,253,1005.9,228.5,1283.4-55.1c112.2-114.3,183.6-251,244.8-467.3c42.9-157.1,44.9-179.6,51-1897.6l6.1-1740.4h418.3H9900l-8.1,1791.5C9885.7-75.7,9879.6,161,9849,314c-53,273.4-89.8,383.6-191.8,591.7c-210.2,428.5-579.5,659-1128.3,703.9c-552.9,44.9-1048.8-159.1-1638.4-673.3l-161.2-140.8l12.2,132.6c8.2,71.4,20.4,742.7,26.5,1493.6l14.3,1360.9h-422.4h-420.3V171.2z"/><path d="M2011.9,3295.1c-730.5-153-1265-569.3-1475.2-1148.7C275.5,1419.9,506,689.5,1146.7,212c204-151,404-253,1085.5-548.9c1005.9-436.6,1183.4-534.6,1377.3-746.8c122.4-134.6,179.6-244.8,218.3-430.5c36.7-177.5,36.7-267.3,0-446.8c-42.9-202-122.4-348.9-263.2-491.7c-453-453-1407.9-504-2177.1-120.4c-189.8,95.9-475.4,293.8-636.6,440.7c-118.3,106.1-142.8,122.4-167.3,97.9c-14.3-16.3-128.5-146.9-255-293.8L100-2593.5l79.6-67.3c246.9-216.3,338.7-287.7,485.6-383.6c532.5-344.8,1124.3-518.3,1771.1-518.3c338.7,0,510.1,20.4,759,83.6c1042.6,267.3,1644.6,1118.2,1491.5,2113.9c-57.1,381.6-210.2,675.4-485.6,936.5c-281.6,267.3-459.1,365.2-1430.3,781.5C1848.6,748.6,1718,820.1,1532.4,1020c-177.5,189.8-244.8,361.1-244.8,612.1c0,477.5,328.5,828.4,875.3,938.6c226.5,44.9,677.4,30.6,889.6-28.6c351-97.9,540.7-197.9,852.9-448.9c116.3-91.8,144.9-106.1,165.3-83.7c14.3,16.3,116.3,136.7,226.5,269.3l200,240.8l-59.2,61.2c-173.4,181.6-577.4,440.7-867.2,557c-350.9,140.8-550.9,179.6-987.5,187.7C2262.8,3331.8,2162.8,3325.7,2011.9,3295.1z"/></g></g>
</svg>