<?xml version="1.0" encoding="iso-8859-1"?>
<!-- Generator: Adobe Illustrator 19.0.0, SVG Export Plug-In . SVG Version: 6.00 Build 0)  -->
<svg xmlns="http://www.w3.org/2000/svg" xmlns:xlink="http://www.w3.org/1999/xlink" version="1.1" id="Layer_1" x="0px" y="0px" viewBox="0 0 330.001 330.001" style="enable-background:new 0 0 330.001 330.001;" xml:space="preserve" width="512px" height="512px">
<path id="XMLID_452_" d="M255.001,169.999h-5v-29.999h5c8.284,0,15-6.716,15-15s-6.716-15-15-15h-5V15c0-8.284-6.716-15-15-15  s-15,6.716-15,15v95.001h-110V15c0-8.284-6.716-15-15-15s-15,6.716-15,15v95.001h-5c-8.284,0-15,6.716-15,15s6.716,15,15,15h5  v29.999h-5c-8.284,0-15,6.716-15,15c0,8.284,6.716,15,15,15h5V315c0,6.872,4.67,12.865,11.333,14.545  c6.667,1.68,13.617-1.384,16.874-7.434l56.793-105.473l56.793,105.473c2.661,4.942,7.785,7.89,13.205,7.89  c1.216,0,2.447-0.149,3.669-0.457c6.663-1.68,11.333-7.673,11.333-14.545V199.999h5c8.284,0,15-6.716,15-15  C270.001,176.715,263.285,169.999,255.001,169.999z M110.001,140.001h110v29.999h-110V140.001z M110.001,199.999h29.887  l-29.887,55.504V199.999z M220.001,255.504l-29.887-55.504h29.887V255.504z" fill="#FFFFFF"/>
<g>
</g>
<g>
</g>
<g>
</g>
<g>
</g>
<g>
</g>
<g>
</g>
<g>
</g>
<g>
</g>
<g>
</g>
<g>
</g>
<g>
</g>
<g>
</g>
<g>
</g>
<g>
</g>
<g>
</g>
</svg>
