<?xml version="1.0" encoding="utf-8"?>
<!-- Svg Vector Icons : http://www.onlinewebfonts.com/icon -->
<!DOCTYPE svg PUBLIC "-//W3C//DTD SVG 1.1//EN" "http://www.w3.org/Graphics/SVG/1.1/DTD/svg11.dtd">
<svg version="1.1" xmlns="http://www.w3.org/2000/svg" xmlns:xlink="http://www.w3.org/1999/xlink" x="0px" y="0px" viewBox="0 0 1000 1000" enable-background="new 0 0 1000 1000" xml:space="preserve">
<metadata> Svg Vector Icons : http://www.onlinewebfonts.com/icon </metadata>
<g><g transform="translate(0.000000,511.000000) scale(0.100000,-0.100000)"><path d="M4060.6,1099.1c0-1170.9-8.2-1847.3-22.5-1967.9c-28.6-241.1-106.3-478.2-188-584.4c-136.9-181.9-523.1-421-846-527.2c-214.6-71.5-486.3-108.3-813.3-108.3c-574.2-4.1-1099.4,124.7-1314,320.8c-143,128.7-165.5,235-114.4,547.7l14.3,75.6H468.1c-188,0-312.7-8.2-320.8-20.4c-8.2-12.3-24.5-108.3-36.8-216.6C53.3-1870.2,227-2162.4,713.3-2401.5c400.5-196.2,754.1-259.5,1457-259.5c1011.5-2,1536.7,155.3,2000.6,596.7c206.4,196.2,302.4,345.4,382.1,590.6c126.7,396.4,126.7,380.1,134.9,2460.4l8.2,1894.3h-316.7h-318.8V1099.1z"/><path d="M2744.6,1407.6c-286.1-36.8-568.1-167.6-660.1-306.5c-106.3-163.5-81.7-427.1,53.1-570.1c57.2-61.3,108.3-87.9,226.8-122.6c212.5-59.3,277.9-92,316.7-151.2c57.2-85.8,8.2-151.2-183.9-247.3l-161.4-81.7h-312.7h-312.6v-136.9c0-75.6,10.2-143,20.4-149.2c12.3-8.2,126.7-18.4,253.4-24.5c461.8-22.5,833.8,128.7,940,386.2c83.8,198.2,53.1,439.4-65.4,525.2c-55.2,38.8-85.8,47-357.6,116.5c-151.2,36.8-198.2,85.8-198.2,208.4c0,122.6,200.3,237.1,486.3,275.9l167.6,22.5v139c0,120.6-4.1,139-34.7,136.9C2901.9,1426,2822.2,1415.8,2744.6,1407.6z"/><path d="M8486.8,208.1c371.9-365.8,547.7-619.2,686.6-987c59.2-153.3,65.4-196.2,65.4-396.5c2-196.2-4.1-237-45-316.7c-124.7-241.1-418.9-425-780.6-490.4c-159.4-28.6-400.5,0-631.5,71.5c-85.8,28.6-161.4,51.1-171.6,51.1c-8.2,0-12.3-138.9-10.2-310.6l6.1-310.6l145.1-44.9c228.9-71.5,521.1-98.1,766.3-69.5c844,98.1,1322.2,547.7,1379.4,1297.6c36.8,465.9-253.4,1113.7-696.8,1559.2l-188,188h-384.2h-384.2L8486.8,208.1z"/><path d="M6155.2-1706.7c-208.4-73.6-320.8-324.9-255.4-566.1c92-329,562-386.2,745.9-89.9c114.4,186,67.4,467.9-96.1,590.6C6418.8-1676,6298.2-1655.6,6155.2-1706.7z"/></g></g>
</svg>