<?xml version="1.0" encoding="utf-8"?>
<!-- Svg Vector Icons : http://www.onlinewebfonts.com/icon -->
<!DOCTYPE svg PUBLIC "-//W3C//DTD SVG 1.1//EN" "http://www.w3.org/Graphics/SVG/1.1/DTD/svg11.dtd">
<svg version="1.1" xmlns="http://www.w3.org/2000/svg" xmlns:xlink="http://www.w3.org/1999/xlink" x="0px" y="0px" viewBox="0 0 1000 1000" enable-background="new 0 0 1000 1000" xml:space="preserve">
<metadata> Svg Vector Icons : http://www.onlinewebfonts.com/icon </metadata>
<g><g transform="translate(0.000000,511.000000) scale(0.100000,-0.100000)"><path d="M4856.2,4965.1c-149-75.5-183.8-169.5-183.8-490c0-253.2-2-261.3-44.9-269.5c-26.5-4.1-147-22.5-269.5-42.9c-963.7-149-1639.5-657.4-1886.5-1419c-183.8-567.6-142.9-1310.8,98-1774.2C2736.9,649,3039.1,336.6,3357.6,159c269.5-151.1,875.9-385.9,1229.1-477.8l85.8-22.5v-1276v-1278.1l-55.1,14.3c-32.7,6.1-134.7,51-230.7,96c-142.9,69.4-206.2,116.4-359.3,269.5c-216.4,216.4-281.7,336.9-457.3,839.1c-120.5,349.1-167.4,432.8-289.9,514.5c-145,100-216.4,118.4-424.7,118.4c-245,0-359.3-47-510.4-206.2c-163.3-171.5-194-259.3-189.9-528.8c2-175.6,14.3-263.4,55.1-404.2c187.8-628.8,628.8-1147.4,1255.6-1470c328.7-171.5,600.2-249.1,1131.1-330.8l75.5-12.2v-259.3c0-230.7,6.1-271.5,47-351.2c49-98,179.7-183.8,279.7-183.8c100,0,230.7,85.8,281.7,183.8c38.8,79.6,44.9,120.5,44.9,351.2v259.3l77.6,12.2c506.3,77.6,882,181.7,1169.9,328.7c434.9,218.5,810.5,592.1,1022.9,1018.8c183.7,365.5,249.1,653.3,249.1,1092.3c2.1,332.8-16.3,451.2-104.1,724.8C7563.4-263.6,7116.3,228.4,6563,475.5C6418,540.8,5791.2,749,5505.4,826.6l-179.6,49v1139.2v1139.2l47-14.3c116.4-36.7,275.6-118.4,396.1-204.2c216.4-155.2,357.3-365.5,465.5-696.2c134.7-418.5,363.4-598.2,735-573.7c177.6,12.2,310.3,71.5,432.9,191.9c134.7,136.8,175.6,232.8,185.8,447.1c8.2,165.4,2.1,204.2-57.2,377.7c-104.1,312.4-257.2,555.3-530.8,845.2c-365.5,383.8-828.9,586-1566,675.8l-108.2,14.3v259.3c0,228.7-6.1,269.5-44.9,349.1c-51,98-181.7,183.8-281.7,183.8C4970.5,5010,4905.2,4989.6,4856.2,4965.1z M4672.4,2110.8c0-571.7-4.1-1041.3-8.2-1041.3c-6.1,0-81.7,30.6-169.5,67.4c-367.5,155.2-618.6,349.1-710.5,549.2c-134.8,296-102.1,775.8,67.4,1000.4c151.1,196,590,463.5,765.6,465.5h55.1V2110.8z M5585-625c524.7-198,806.5-449.2,896.3-794.2c44.9-183.8,32.7-518.6-28.6-686c-100-273.6-336.9-532.9-612.5-671.7c-151.1-75.5-389.9-155.2-465.5-155.2h-49v1194.4c0,831,6.1,1194.4,22.5,1194.4C5358.4-543.3,5466.6-580.1,5585-625z"/></g></g>
</svg>