<?xml version="1.0" encoding="utf-8"?>
<!-- Svg Vector Icons : http://www.onlinewebfonts.com/icon -->
<!DOCTYPE svg PUBLIC "-//W3C//DTD SVG 1.1//EN" "http://www.w3.org/Graphics/SVG/1.1/DTD/svg11.dtd">
<svg version="1.1" xmlns="http://www.w3.org/2000/svg" xmlns:xlink="http://www.w3.org/1999/xlink" x="0px" y="0px" viewBox="0 0 1000 1000" enable-background="new 0 0 1000 1000" xml:space="preserve">
<metadata> Svg Vector Icons : http://www.onlinewebfonts.com/icon </metadata>
<g><g transform="translate(0.000000,511.000000) scale(0.100000,-0.100000)"><path d="M3133,1227.3c0-1032.1-8.2-1882.3-20.4-2017.2c-22.5-247.3-75.6-488.5-143.1-647.9c-65.4-149.2-210.5-339.3-331.1-431.3c-329-253.4-966.7-425.1-1334.6-355.6c-255.5,47-498.7,210.5-590.7,394.5c-92,186-65.4,508.9,69.5,805.2c32.7,75.6,61.3,141,61.3,145.1s-126.7,4.1-280,2l-282-6.1l-55.2-104.2C138.8-1151.7,102-1325.4,100-1578.9c0-359.7,85.8-582.5,312.7-807.3c304.5-302.5,797.1-449.6,1306-390.4c609.1,71.5,1140.4,290.2,1459.3,598.8c239.1,230.9,355.6,459.9,447.6,866.6c47,202.3,47,210.5,53.1,2262.5l8.2,2058.1h-278H3133V1227.3z"/><path d="M9325.7,1125.1c0-2062.2-4.1-2121.5-118.6-2456.6c-143.1-416.9-443.5-674.5-950.4-819.6c-451.7-126.7-735.8-120.6-1017.8,22.5c-130.8,65.4-273.9,196.2-331.1,304.5c-92,167.6-42.9,568.2,100.2,852.3l49.1,98.1H6771h-286.1l-63.3-124.7c-155.4-308.6-161.5-817.5-16.4-1107.7c155.3-304.5,447.6-523.2,854.3-631.5c230.9-63.3,633.6-61.3,932,2.1c578.4,122.6,962.6,312.7,1250.8,623.4c153.3,161.4,249.4,333.1,322.9,564.1c118.5,380.1,118.5,365.8,126.7,2550.6l8.2,2007h-286.1h-288.2V1125.1z"/><path d="M4935.6-1127.2c-94-32.7-198.3-141-224.8-233c-89.9-296.3,94-553.9,376-531.4c239.1,20.4,388.3,237.1,333.1,482.3C5368.9-1176.2,5148.2-1049.5,4935.6-1127.2z"/></g></g>
</svg>