<?xml version="1.0" encoding="utf-8"?>
<!-- Generator: Adobe Illustrator 21.1.0, SVG Export Plug-In . SVG Version: 6.00 Build 0)  -->
<svg version="1.1" id="Layer_1" xmlns="http://www.w3.org/2000/svg" xmlns:xlink="http://www.w3.org/1999/xlink" x="0px" y="0px"
	 viewBox="0 0 59.5 59.5" style="enable-background:new 0 0 59.5 59.5;" xml:space="preserve">
<style type="text/css">
	.st0{opacity:0.35;fill:#3CD483;enable-background:new    ;}
	.st1{fill:#3CD483;}
</style>
<path class="st0" d="M45.7,59.5c-3.6,0-7.1-1.4-9.8-4L4,23.5c-3.9-3.9-5.1-9.9-3-15C3.2,3.4,8.2,0,13.8,0h31.9
	c7.6,0,13.8,6.2,13.8,13.8v31.9c0,5.6-3.4,10.6-8.5,12.7C49.2,59.1,47.4,59.5,45.7,59.5z"/>
<path class="st1" d="M13.8,59.5c-3.5,0-7.1-1.3-9.7-4C-1.3,50-1.3,41.3,4,35.9L35.9,4C41.3-1.3,50-1.3,55.4,4
	c5.4,5.4,5.4,14.1,0,19.5L23.5,55.4C20.8,58.1,17.3,59.5,13.8,59.5z"/>
</svg>
