<?xml version="1.0" encoding="utf-8"?>
<!-- Svg Vector Icons : http://www.onlinewebfonts.com/icon -->
<!DOCTYPE svg PUBLIC "-//W3C//DTD SVG 1.1//EN" "http://www.w3.org/Graphics/SVG/1.1/DTD/svg11.dtd">
<svg version="1.1" xmlns="http://www.w3.org/2000/svg" xmlns:xlink="http://www.w3.org/1999/xlink" x="0px" y="0px" viewBox="0 0 1000 1000" enable-background="new 0 0 1000 1000" xml:space="preserve">
<metadata> Svg Vector Icons : http://www.onlinewebfonts.com/icon </metadata>
<g><g transform="translate(0.000000,511.000000) scale(0.100000,-0.100000)"><path d="M9197.8,1247.8c-6.1-2106.6-10.2-2392.3-40.8-2537.3c-147-720.6-463.4-1079.8-1139-1304.4c-308.2-102.1-508.3-138.8-763.4-140.8c-259.2,0-393.9,32.6-608.3,144.9c-255.2,132.7-404.2,328.7-434.8,569.5c-24.5,208.2,55.1,563.4,183.7,818.5l55.1,106.1l-353.1-4.1l-353.1-6.1l-65.3-132.7c-93.9-191.9-130.6-347-142.9-614.4c-34.7-730.8,326.6-1224.7,1069.6-1465.6c610.3-196,1661.6-24.5,2304.6,375.6c455.2,283.8,722.6,638.9,855.3,1137c120.4,455.2,118.4,404.2,126.6,3023.1l8.2,2402.5h-347h-347L9197.8,1247.8z"/><path d="M973.6,804.8c342.9-306.2,585.8-616.5,751.2-951.2c371.5-757.3,200-1245.2-526.7-1492.1c-275.6-93.9-561.3-81.7-943,40.8l-155.1,49v-342.9v-342.9l98-32.7c214.3-71.4,406.2-100,667.5-100c557.3-2.1,1004.3,151,1324.8,455.2c245,232.7,377.6,516.4,420.5,902.2c38.8,330.7-32.7,638.9-244.9,1059.4c-151,298-285.8,487.9-512.4,718.5l-198,198h-430.7H794L973.6,804.8z"/><path d="M3855.9-1393.6c-291.9-126.6-377.6-557.3-157.2-783.8c345-353.1,902.2-6.1,761.4,475.6C4380.5-1430.3,4100.8-1287.4,3855.9-1393.6z"/></g></g>
</svg>