<?xml version="1.0" encoding="utf-8"?>
<!-- Svg Vector Icons : http://www.onlinewebfonts.com/icon -->
<!DOCTYPE svg PUBLIC "-//W3C//DTD SVG 1.1//EN" "http://www.w3.org/Graphics/SVG/1.1/DTD/svg11.dtd">
<svg version="1.1" xmlns="http://www.w3.org/2000/svg" xmlns:xlink="http://www.w3.org/1999/xlink" x="0px" y="0px" viewBox="0 0 1000 1000" enable-background="new 0 0 1000 1000" xml:space="preserve">
<metadata> Svg Vector Icons : http://www.onlinewebfonts.com/icon </metadata>
<g><g transform="translate(0.000000,511.000000) scale(0.100000,-0.100000)"><path d="M6876,2116.9c277.7-275.6,434.8-475.7,551.2-710.5c142.9-285.8,175.6-404.2,177.6-632.9c0-181.7-6.1-214.4-55.1-306.2c-138.8-265.4-541-479.8-900.3-479.8c-147,0-359.4,38.8-534.9,98l-114.3,38.8l6.1-308.3l6.1-308.3l163.3-51c147-44.9,198-49,520.6-49c302.2,0,381.8,8.2,520.6,44.9c622.7,169.5,971.8,579.8,1022.8,1200.5c38.8,467.5-253.1,1108.6-704.4,1553.6l-151,149h-375.7h-373.6L6876,2116.9z"/><path d="M1849.6,1986.2c-212.3-73.5-457.3-275.6-626.8-514.5c-149-212.3-185.8-326.7-198-610.4l-8.2-240.9l-75.5-10.2C559.4,551,287.8,301.9,151-114.6c-32.7-100-36.7-212.3-44.9-1065.7l-6.1-955.4h336.9h338.9v918.7c0,1071.8-6.1,1033,189.9,1175.9c157.2,116.4,216.4,116.4,449.2,8.2c220.5-104.1,426.7-157.2,716.6-185.8c292-28.6,447.1,2,706.4,136.8c242.9,124.6,383.8,255.2,459.4,420.6c53.1,114.3,59.2,157.2,67.4,385.9c14.3,443-77.6,696.2-349.1,947.3c-151.1,140.9-394,273.6-596.1,326.7C2247.8,2041.3,1998.7,2037.3,1849.6,1986.2z M2388.6,1332.9c63.3-14.3,132.7-47,173.5-81.7c128.6-112.3,202.1-385.9,155.2-563.5c-30.6-110.2-136.8-251.1-226.6-298.1c-96-49-318.5-34.7-596.1,38.8c-240.9,65.3-242.9,69.4-247,334.8c-2,189.9,12.2,232.7,144.9,416.5c44.9,61.2,104.1,114.3,155.2,136.8C2043.6,1359.5,2229.4,1367.6,2388.6,1332.9z"/><path d="M4603.7,263.1c-44.9-16.3-116.4-65.3-157.2-108.2c-253.2-271.5-71.5-718.6,289.9-718.6c281.7,0,465.5,267.4,381.8,553.3c-40.8,134.8-149.1,247.1-273.6,281.8C4744.6,299.9,4703.8,297.8,4603.7,263.1z"/><path d="M9360.6,263.1c-44.9-16.3-116.4-65.3-157.2-108.2c-253.2-271.5-71.5-718.6,289.9-718.6c369.5,0,545.1,459.4,277.7,726.8C9648.5,285.6,9515.8,318.2,9360.6,263.1z"/></g></g>
</svg>