<?xml version="1.0" encoding="utf-8"?>
<!-- Svg Vector Icons : http://www.onlinewebfonts.com/icon -->
<!DOCTYPE svg PUBLIC "-//W3C//DTD SVG 1.1//EN" "http://www.w3.org/Graphics/SVG/1.1/DTD/svg11.dtd">
<svg version="1.1" xmlns="http://www.w3.org/2000/svg" xmlns:xlink="http://www.w3.org/1999/xlink" x="0px" y="0px" viewBox="0 0 1000 1000" enable-background="new 0 0 1000 1000" xml:space="preserve">
<metadata> Svg Vector Icons : http://www.onlinewebfonts.com/icon </metadata>
<g><g transform="translate(0.000000,511.000000) scale(0.100000,-0.100000)"><path d="M1897.8,1825.9C1545.6,785.7,996.9-836,679.5-1777.9L100-3493.9h464.8h464.8l49.2,159.7c26.6,86,182.2,579.5,344,1095.5l296.9,935.8h1320.7h1320.7L4699-2398.4l337.8-1095.5h487.4c454.6,0,487.3,2,477.1,36.9c-6.1,18.4-554.9,1638.1-1218.4,3597.7L3579,3703.6l-520.1,6.1l-520.1,4.1L1897.8,1825.9z M3081.4,2890.7c71.7-268.2,385-1335.1,497.6-1695.5c149.5-481.2,522.1-1670.9,538.5-1724.1c10.2-34.8-51.2-36.9-1075-36.9c-597.9,0-1087.3,4.1-1087.3,8.2c0,14.3,266.2,868.2,430,1384.2c172,544.7,391.1,1281.8,524.2,1775.3c59.4,223.2,110.6,374.7,124.9,374.7C3048.6,2976.7,3069.1,2937.8,3081.4,2890.7z"/><path d="M9031.8,1942.6c-393.1-100.3-788.3-413.6-1079.1-858c-69.6-108.5-135.2-196.6-143.3-196.6c-16.4,0-32.8,129-59.4,522.2c-12.3,170-26.6,337.9-32.8,374.7l-10.2,65.5h-366.5h-368.6V-821.7v-2672.2h450.5h450.5v1726.2V-41.5l92.1,188.4c372.7,767.9,913.2,1120.1,1525.5,997.2c96.3-18.4,192.5-36.9,215-36.9c34.8-4.1,47.1,34.8,116.7,333.8c106.5,473,108.5,428-24.6,477.1C9646.1,1971.3,9208,1985.6,9031.8,1942.6z"/></g></g>
</svg>