<?xml version="1.0" encoding="utf-8"?>
<!-- Svg Vector Icons : http://www.onlinewebfonts.com/icon -->
<!DOCTYPE svg PUBLIC "-//W3C//DTD SVG 1.1//EN" "http://www.w3.org/Graphics/SVG/1.1/DTD/svg11.dtd">
<svg version="1.1" xmlns="http://www.w3.org/2000/svg" xmlns:xlink="http://www.w3.org/1999/xlink" x="0px" y="0px" viewBox="0 0 1000 1000" enable-background="new 0 0 1000 1000" xml:space="preserve">
<metadata> Svg Vector Icons : http://www.onlinewebfonts.com/icon </metadata>
<g><g transform="translate(0.000000,511.000000) scale(0.100000,-0.100000)"><path d="M100,181.5v-3669.4h460h459.9v1155v1155l464,545.8c823.8,973,807.5,954.6,832,921.9c12.3-18.4,504.9-874.9,1095.7-1903.2l1073.2-1872.5l517.2-2c282.1,0,515.2,4.1,515.2,10.2c0,4.1-594.9,1026.2-1320.6,2269.1L2878.1,1052.4l79.7,96.1c42.9,53.2,523.3,639.8,1067.1,1302.2C4568.7,3115,5049,3699.6,5094,3754.8l79.7,96.1l-529.5-2h-527.4L2593.9,2009.1C1755.8,999.2,1060.8,171.3,1046.5,171.3c-20.4,0-26.6,372.1-26.6,1839.8v1839.8H560H100V181.5z"/><path d="M7569.6,2041.8C6764.2,1896.6,6259.2,1416.3,6171.3,713c-51.1-408.8,69.5-768.6,349.6-1050.7c247.4-251.4,578.5-435.4,1193.8-666.4c551.9-206.5,872.9-368,1048.7-531.5c202.4-188.1,259.6-308.7,257.6-541.7c-2.1-224.9-57.3-370-196.3-521.3c-190.1-208.5-492.6-314.8-887.2-316.9c-480.4,0-928.1,159.4-1392.1,494.7c-108.3,77.7-202.4,134.9-212.6,124.7c-8.2-8.2-112.4-145.1-229-300.5l-212.6-284.1l53.2-45c28.6-24.5,108.3-81.8,175.8-128.8c535.6-361.8,1197.9-576.5,1788.7-576.5c866.8,0,1541.4,341.4,1831.6,930.1c126.7,259.6,159.5,400.6,159.5,695c0,392.5-102.2,668.5-343.4,926C9307.2-814,9018.9-656.6,8246.2-360.2c-543.8,206.5-764.6,310.7-924,431.3c-200.3,151.3-278,296.4-276,519.2c2.1,361.8,239.2,633.7,639.8,738c188.1,49.1,551.9,45,764.5-10.2c190.1-49.1,515.2-204.4,703.2-337.3l132.9-92l210.6,280.1c114.5,153.3,210.5,286.2,210.5,294.4c0,28.6-300.5,226.9-494.7,325c-404.8,204.4-754.3,286.2-1208.1,282.1C7845.6,2070.4,7649.3,2056.1,7569.6,2041.8z"/></g></g>
</svg>