<?xml version="1.0" encoding="utf-8"?>
<!-- Svg Vector Icons : http://www.onlinewebfonts.com/icon -->
<!DOCTYPE svg PUBLIC "-//W3C//DTD SVG 1.1//EN" "http://www.w3.org/Graphics/SVG/1.1/DTD/svg11.dtd">
<svg version="1.1" xmlns="http://www.w3.org/2000/svg" xmlns:xlink="http://www.w3.org/1999/xlink" x="0px" y="0px" viewBox="0 0 1000 1000" enable-background="new 0 0 1000 1000" xml:space="preserve">
<metadata> Svg Vector Icons : http://www.onlinewebfonts.com/icon </metadata>
<g><g transform="translate(0.000000,511.000000) scale(0.100000,-0.100000)"><path d="M108.2,1033.5c8.2-1969.8,6.1-1945.3,126.6-2361.7c163.3-561.3,481.7-949.2,945.1-1143.1c422.5-177.6,1083.9-204.1,1545.2-59.2c643,202.1,1018.6,673.6,1177.8,1481.9c44.9,224.5,44.9,269.5,53.1,2061.7l6.1,1831h-328.6h-326.6V1104.9c0-1857.5-4.1-1951.4-102.1-2271.9c-185.8-600.1-620.5-898.1-1257.4-861.4C1335-1993.7,992-1665.1,834.8-962.9c-44.9,202.1-46.9,226.6-53.1,2006.5L773.6,2844H436.8H100L108.2,1033.5z"/><path d="M5409.3,159.8v-2684.2h318.4h318.4L6036-703.6c-8.2,1435-16.3,1900.4-42.9,2190.3c-36.7,430.7-40.8,557.3-14.3,528.7c10.2-10.2,108.2-265.4,216.4-569.5c106.2-302.1,436.8-1200.2,730.8-1994.3l532.8-1445.2h187.8h189.9l42.9,118.4c83.7,222.5,1139,3098.6,1275.8,3476.2c138.8,383.8,163.3,442.9,179.6,426.6c6.1-6.1-2-165.3-18.4-357.2c-53.1-675.7-69.4-1261.5-69.4-2718.9v-1475.8h326.6H9900V159.8V2844h-404.1h-404.2l-53.1-157.2c-28.6-87.8-273.5-773.6-543-1526.8c-269.5-751.2-561.3-1577.9-647.1-1833c-93.9-273.5-169.4-461.3-181.7-457.2c-12.2,4.1-57.1,104.1-98,220.4c-42.9,116.4-363.4,1008.4-714.4,1984.1L6215.6,2844h-402.1h-404.2V159.8z"/></g></g>
</svg>