<?xml version="1.0" encoding="utf-8"?>
<!-- Svg Vector Icons : http://www.onlinewebfonts.com/icon -->
<!DOCTYPE svg PUBLIC "-//W3C//DTD SVG 1.1//EN" "http://www.w3.org/Graphics/SVG/1.1/DTD/svg11.dtd">
<svg version="1.1" xmlns="http://www.w3.org/2000/svg" xmlns:xlink="http://www.w3.org/1999/xlink" x="0px" y="0px" viewBox="0 0 1000 1000" enable-background="new 0 0 1000 1000" xml:space="preserve">
<metadata> Svg Vector Icons : http://www.onlinewebfonts.com/icon </metadata>
<g><g transform="translate(0.000000,511.000000) scale(0.100000,-0.100000)"><path d="M6686.8,2597.1c-310.6-100.1-698.8-284-1438.6-682.5l-478.1-255.4l-247.3,122.6c-269.7,134.9-486.3,210.5-602.8,210.5c-153.3-2-390.3-165.5-474.1-331c-102.2-198.2,8.2-514.9,253.4-731.5c75.6-65.4,75.6-67.4,40.9-108.3c-42.9-47-508.8-398.5-690.7-519c-216.6-145.1-727.5-437.3-1066.7-611C1423-592.6,1047-719.3,603.6-772.5C313.5-809.3,244-844,170.4-997.2c-108.3-220.7-89.9-482.3,42.9-615.1c92-89.9,218.6-134.9,425-149.2c147.1-8.2,181.9-4.1,347.4,55.2c574.2,200.2,1671.5,827.6,3193.8,1822.7l557.9,363.7l433.2-226.8c312.6-165.5,459.8-230.9,525.2-237C5812.3,4,6129,77.6,6208.7,134.8c130.8,92,196.2,337.2,130.8,476.1c-51.1,108.3-161.4,183.9-580.3,400.5c-202.3,106.3-365.8,194.1-361.7,198.2c2.1,2,77.7,18.4,167.6,34.7c294.3,53.1,1164.7,380.1,1469.2,553.8c322.9,185.9,386.2,259.5,371.9,445.5c-14.3,165.5-79.7,257.5-241.1,339.2C7009.7,2660.4,6891.2,2664.5,6686.8,2597.1z"/><path d="M8910.1-884.8c-145.1-51.1-259.5-134.9-341.3-247.3c-275.9-378-202.3-915.4,159.4-1164.7c194.1-132.8,472-165.5,698.8-81.7c165.5,63.4,351.5,247.3,414.8,414.8c155.3,416.9-10.2,878.7-382.1,1056.4C9324.9-844,9057.2-831.7,8910.1-884.8z"/></g></g>
</svg>