<?xml version="1.0" encoding="utf-8"?>
<!-- Svg Vector Icons : http://www.onlinewebfonts.com/icon -->
<!DOCTYPE svg PUBLIC "-//W3C//DTD SVG 1.1//EN" "http://www.w3.org/Graphics/SVG/1.1/DTD/svg11.dtd">
<svg version="1.1" xmlns="http://www.w3.org/2000/svg" xmlns:xlink="http://www.w3.org/1999/xlink" x="0px" y="0px" viewBox="0 0 1000 1000" enable-background="new 0 0 1000 1000" xml:space="preserve">
<metadata> Svg Vector Icons : http://www.onlinewebfonts.com/icon </metadata>
<g><g transform="translate(0.000000,511.000000) scale(0.100000,-0.100000)"><path d="M100,110v-2654.2h306.2h306.2v1680.3c0,1472-6.1,1747.7-40.8,2237.7c-36.7,518.6-38.8,598.2-10.2,569.6c6.1-6.1,120.5-316.5,255.2-692.1S1376-8.4,1637.4-716.9l477.8-1286.2H2305h189.9l385.9,1051.5c212.3,577.8,534.9,1463.9,720.7,1966.1c183.8,504.3,338.9,920.8,345,926.9c28.6,28.6,28.6-24.5-2-351.2c-26.5-277.7-34.7-724.8-40.8-2239.7l-8.2-1894.7h316.5h318.5V110v2654.2l-400.2-4.1l-400.2-6.1l-524.7-1470c-289.9-808.5-602.3-1692.6-694.2-1964.1c-93.9-273.6-177.6-496.1-185.8-496.1c-18.4,0,16.3-89.8-530.8,1429.2c-249.1,690.1-553.3,1537.4-677.8,1884.5l-226.6,626.8H494H100V110z"/><path d="M5980,110v-2654.2h336.9h336.9v847.3v847.3L7105-318.8c249.1,292,453.3,530.8,457.3,530.8c2,0,361.4-620.7,796.3-1378.1l792.2-1378.1h373.6H9900l-93.9,159.3c-51,85.7-483.9,824.8-959.6,1641.5L7980.8,740.9l798.3,975.9c439,537,812.6,992.2,831,1012.7c28.6,32.7,10.2,34.7-347.1,34.7h-377.7L7774.6,1424.8L6664,87.6l-6.1,1337.3l-4.1,1339.3h-336.9H5980V110z"/></g></g>
</svg>