<?xml version="1.0" encoding="iso-8859-1"?>
<!-- Generator: Adobe Illustrator 17.1.0, SVG Export Plug-In . SVG Version: 6.00 Build 0)  -->
<!DOCTYPE svg PUBLIC "-//W3C//DTD SVG 1.1//EN" "http://www.w3.org/Graphics/SVG/1.1/DTD/svg11.dtd">
<svg xmlns="http://www.w3.org/2000/svg" xmlns:xlink="http://www.w3.org/1999/xlink" version="1.1" id="Capa_1" x="0px" y="0px" viewBox="0 0 470 470" style="enable-background:new 0 0 470 470;" xml:space="preserve" width="512px" height="512px">
<g>
	<path d="M401.17,68.83C356.784,24.444,297.771,0,235,0C172.229,0,113.215,24.444,68.83,68.83C24.444,113.215,0,172.229,0,235   s24.444,121.785,68.83,166.17C113.215,445.556,172.229,470,235,470c62.771,0,121.784-24.444,166.17-68.83   C445.556,356.785,470,297.771,470,235S445.556,113.215,401.17,68.83z M235,455c-121.309,0-220-98.691-220-220S113.691,15,235,15   s220,98.691,220,220S356.309,455,235,455z" fill="#FFFFFF"/>
	<path d="M212.81,340.683h44.381c4.143,0,7.5-3.358,7.5-7.5V134.802c0-4.142-3.357-7.5-7.5-7.5H212.81   c-3.012,0-5.732,1.802-6.907,4.576l-26.568,62.76c-0.98,2.316-0.735,4.97,0.655,7.066c1.389,2.097,3.737,3.357,6.252,3.357h16.642   c1.338,0,2.426,1.088,2.426,2.426v125.695C205.31,337.325,208.667,340.683,212.81,340.683z M202.883,190.062h-5.322l20.218-47.76   h31.912v183.381H220.31V207.487C220.31,197.879,212.492,190.062,202.883,190.062z" fill="#FFFFFF"/>
	<path d="M182.259,253.386c4.142,0,7.5-3.358,7.5-7.5v-10.139c0-7.608-5.996-13.825-13.509-14.217v-3.396c0-4.142-3.358-7.5-7.5-7.5   s-7.5,3.358-7.5,7.5v3.396c-7.512,0.392-13.509,6.608-13.509,14.217v17.548c0,6.457,4.086,13.439,9.716,16.602l15.24,8.561   c0.867,0.487,2.062,2.529,2.062,3.523v16.795h-5.999c-0.02,0-6.019,0-6.019,0v-9.393c0-4.142-3.358-7.5-7.5-7.5s-7.5,3.358-7.5,7.5   v10.139c0,7.608,5.996,13.825,13.509,14.217v3.396c0,4.142,3.358,7.5,7.5,7.5s7.5-3.358,7.5-7.5v-3.396   c7.512-0.392,13.509-6.608,13.509-14.217v-17.541c0-6.457-4.086-13.439-9.716-16.602l-15.24-8.561   c-0.867-0.487-2.062-2.529-2.062-3.523v-16.802h12.018v9.393C174.759,250.028,178.117,253.386,182.259,253.386z" fill="#FFFFFF"/>
	<path d="M215.662,64.495c3.586,2.071,8.174,0.841,10.245-2.745L235,46l9.094,15.75c1.39,2.406,3.91,3.751,6.502,3.751   c1.272,0,2.563-0.324,3.743-1.006c3.587-2.071,4.816-6.658,2.745-10.245l-15.589-27c-1.34-2.32-3.815-3.75-6.495-3.75   s-5.155,1.43-6.495,3.75l-15.588,27C210.845,57.837,212.074,62.424,215.662,64.495z" fill="#FFFFFF"/>
	<path d="M57.993,258.09c2.592,0,5.113-1.346,6.502-3.751c2.071-3.587,0.842-8.174-2.745-10.245L46,235l15.75-9.093   c3.587-2.071,4.816-6.658,2.745-10.245s-6.659-4.817-10.245-2.745l-27,15.588c-2.32,1.34-3.75,3.815-3.75,6.495   s1.43,5.155,3.75,6.495l27,15.588C55.431,257.766,56.721,258.09,57.993,258.09z" fill="#FFFFFF"/>
	<path d="M254.339,405.505c-3.587-2.072-8.175-0.842-10.245,2.745L235,424l-9.093-15.75c-2.071-3.587-6.658-4.816-10.245-2.745   c-3.587,2.071-4.816,6.658-2.745,10.245l15.588,27c1.34,2.32,3.815,3.75,6.495,3.75s5.155-1.43,6.495-3.75l15.589-27   C259.155,412.163,257.926,407.576,254.339,405.505z" fill="#FFFFFF"/>
	<path d="M442.75,228.505l-27-15.588c-3.589-2.072-8.175-0.842-10.245,2.745c-2.071,3.587-0.842,8.174,2.745,10.245L424,235   l-15.75,9.093c-3.587,2.071-4.816,6.658-2.745,10.245c1.389,2.406,3.91,3.751,6.502,3.751c1.272,0,2.563-0.324,3.743-1.006   l27-15.588c2.32-1.34,3.75-3.815,3.75-6.495S445.07,229.845,442.75,228.505z" fill="#FFFFFF"/>
	<path d="M423.303,264.809l-13.225-2.63c-1.949-0.388-3.978,0.015-5.633,1.122c-1.654,1.107-2.802,2.826-3.188,4.779   c-13.359,67.543-65.636,119.82-133.179,133.179c-1.953,0.386-3.672,1.533-4.778,3.188c-1.107,1.654-1.511,3.681-1.122,5.633   l2.631,13.224c0.71,3.569,3.843,6.038,7.348,6.038c0.485,0,0.978-0.047,1.472-0.146c4.063-0.809,6.7-4.757,5.892-8.819   l-1.195-6.009c6.909-1.661,13.678-3.735,20.301-6.164l2.347,5.666c1.196,2.888,3.988,4.632,6.932,4.632   c0.956,0,1.929-0.184,2.867-0.573c3.827-1.585,5.645-5.973,4.059-9.799l-2.344-5.659c6.421-2.972,12.668-6.305,18.708-10.004   l3.405,5.096c1.446,2.164,3.822,3.334,6.243,3.334c1.432,0,2.88-0.41,4.16-1.265c3.443-2.301,4.37-6.959,2.069-10.403l-3.426-5.127   c5.687-4.156,11.16-8.642,16.384-13.464l4.369,4.369c1.465,1.464,3.385,2.197,5.304,2.197s3.839-0.732,5.304-2.197   c2.929-2.929,2.929-7.678,0-10.606l-4.37-4.37c4.822-5.224,9.307-10.697,13.463-16.384l5.126,3.425   c1.28,0.855,2.728,1.265,4.16,1.265c2.421,0,4.797-1.17,6.243-3.334c2.301-3.444,1.374-8.102-2.069-10.403l-5.097-3.405   c3.699-6.041,7.032-12.288,10.004-18.708l5.66,2.344c0.938,0.389,1.91,0.573,2.867,0.573c2.942,0,5.735-1.744,6.932-4.632   c1.586-3.827-0.231-8.214-4.059-9.799l-5.666-2.347c2.428-6.622,4.503-13.391,6.163-20.3l6.011,1.195   c4.063,0.806,8.011-1.83,8.818-5.893C430.004,269.565,427.365,265.617,423.303,264.809z" fill="#FFFFFF"/>
	<path d="M201.921,401.258c-67.543-13.36-119.819-65.636-133.179-133.179c-0.386-1.953-1.533-3.672-3.188-4.779   s-3.681-1.511-5.633-1.122l-13.224,2.63c-4.063,0.808-6.701,4.757-5.893,8.819s4.756,6.7,8.819,5.893l6.009-1.195   c1.661,6.909,3.735,13.678,6.163,20.3l-5.666,2.347c-3.827,1.585-5.644,5.973-4.059,9.799c1.197,2.889,3.989,4.632,6.932,4.632   c0.957,0,1.929-0.184,2.867-0.573l5.659-2.344c2.972,6.42,6.305,12.668,10.004,18.708l-5.096,3.405   c-3.444,2.301-4.371,6.959-2.07,10.403c1.446,2.164,3.822,3.334,6.243,3.334c1.432,0,2.88-0.41,4.16-1.265l5.127-3.426   c4.156,5.687,8.642,11.161,13.464,16.385l-4.369,4.369c-2.929,2.929-2.929,7.678,0,10.606c1.464,1.464,3.384,2.197,5.303,2.197   s3.839-0.732,5.303-2.197l4.369-4.369c5.224,4.822,10.698,9.308,16.384,13.464l-3.426,5.127c-2.301,3.444-1.375,8.102,2.07,10.403   c1.28,0.855,2.728,1.265,4.16,1.265c2.421,0,4.797-1.17,6.243-3.334l3.405-5.096c6.04,3.699,12.288,7.032,18.708,10.004   l-2.344,5.659c-1.585,3.827,0.232,8.214,4.059,9.799c0.938,0.389,1.911,0.573,2.867,0.573c2.943,0,5.735-1.744,6.932-4.632   l2.347-5.666c6.622,2.429,13.391,4.503,20.3,6.164l-1.195,6.009c-0.808,4.063,1.83,8.011,5.893,8.819   c0.494,0.098,0.986,0.146,1.471,0.146c3.505,0,6.638-2.47,7.348-6.038l2.63-13.224c0.388-1.953-0.016-3.979-1.122-5.633   C205.593,402.791,203.874,401.645,201.921,401.258z" fill="#FFFFFF"/>
	<path d="M268.079,68.742c67.543,13.359,119.819,65.636,133.179,133.179c0.386,1.953,1.533,3.672,3.188,4.779   c1.243,0.832,2.696,1.266,4.17,1.266c0.488,0,0.978-0.047,1.463-0.144l13.225-2.63c4.063-0.808,6.701-4.756,5.893-8.819   c-0.807-4.062-4.758-6.702-8.818-5.893l-6.011,1.195c-1.66-6.909-3.735-13.678-6.163-20.3l5.666-2.347   c3.827-1.585,5.645-5.973,4.059-9.799c-1.585-3.826-5.971-5.644-9.799-4.059l-5.66,2.344c-2.972-6.42-6.305-12.668-10.004-18.708   l5.097-3.405c3.443-2.301,4.37-6.958,2.069-10.403c-2.302-3.443-6.958-4.371-10.403-2.069l-5.126,3.425   c-4.156-5.687-8.641-11.16-13.463-16.384l4.37-4.37c2.929-2.929,2.929-7.678,0-10.606c-2.93-2.929-7.678-2.929-10.607,0   l-4.369,4.369c-5.224-4.822-10.698-9.308-16.384-13.464l3.426-5.127c2.301-3.444,1.374-8.102-2.069-10.403   c-3.443-2.299-8.102-1.375-10.403,2.07l-3.405,5.096c-6.04-3.699-12.288-7.032-18.708-10.004l2.344-5.659   c1.586-3.827-0.231-8.214-4.059-9.799c-3.823-1.583-8.213,0.232-9.799,4.059l-2.347,5.666c-6.622-2.428-13.392-4.503-20.301-6.164   l1.195-6.009c0.809-4.063-1.829-8.011-5.892-8.819c-4.063-0.808-8.011,1.83-8.819,5.893l-2.631,13.224   c-0.389,1.952,0.015,3.979,1.122,5.633C264.407,67.209,266.126,68.355,268.079,68.742z" fill="#FFFFFF"/>
	<path d="M46.697,205.191l13.224,2.63c0.486,0.097,0.976,0.144,1.463,0.144c1.474,0,2.927-0.435,4.17-1.266   c1.655-1.107,2.801-2.826,3.188-4.779c13.36-67.543,65.636-119.819,133.179-133.179c1.953-0.386,3.672-1.533,4.779-3.188   c1.106-1.654,1.51-3.681,1.122-5.633l-2.63-13.224c-0.808-4.063-4.758-6.7-8.819-5.893c-4.063,0.808-6.701,4.757-5.893,8.819   l1.195,6.009c-6.909,1.661-13.678,3.735-20.3,6.164l-2.347-5.666c-1.585-3.827-5.973-5.642-9.799-4.059   c-3.827,1.585-5.644,5.973-4.059,9.799l2.344,5.659c-6.421,2.972-12.668,6.305-18.708,10.004l-3.405-5.096   c-2.301-3.445-6.959-4.37-10.403-2.07c-3.444,2.301-4.371,6.959-2.07,10.403l3.426,5.127c-5.687,4.156-11.16,8.642-16.384,13.464   l-4.369-4.369c-2.929-2.929-7.678-2.929-10.606,0c-2.929,2.929-2.929,7.678,0,10.606l4.369,4.369   c-4.822,5.224-9.308,10.698-13.464,16.385l-5.127-3.426c-3.444-2.3-8.102-1.375-10.403,2.07c-2.301,3.444-1.375,8.102,2.07,10.403   l5.096,3.405c-3.699,6.04-7.032,12.288-10.004,18.708l-5.659-2.344c-3.825-1.585-8.214,0.232-9.799,4.059   c-1.585,3.827,0.232,8.214,4.059,9.799l5.666,2.347c-2.428,6.622-4.503,13.391-6.163,20.3l-6.009-1.195   c-4.067-0.806-8.011,1.831-8.819,5.893C39.997,200.435,42.635,204.383,46.697,205.191z" fill="#FFFFFF"/>
	<path d="M333.5,236.493c4.143,0,7.5-3.358,7.5-7.5v-31.432c0-2.902-1.674-5.544-4.299-6.783c-2.623-1.238-5.728-0.852-7.969,0.993   L319,199.785l-9.732-8.014c-2.243-1.846-5.347-2.231-7.969-0.993c-2.625,1.239-4.299,3.88-4.299,6.783v31.432   c0,4.142,3.357,7.5,7.5,7.5s7.5-3.358,7.5-7.5v-15.542l2.232,1.838c2.77,2.28,6.766,2.28,9.535,0l2.232-1.838v15.542   C326,233.135,329.357,236.493,333.5,236.493z" fill="#FFFFFF"/>
	<path d="M327,180.5c0-4.411-3.589-8-8-8s-8,3.589-8,8s3.589,8,8,8S327,184.911,327,180.5z" fill="#FFFFFF"/>
	<path d="M337.179,110.578C308.487,86.99,272.2,74,235,74c-88.776,0-161,72.224-161,161s72.224,161,161,161   c88.775,0,161-72.224,161-161c0-37.201-12.99-73.488-36.578-102.179c-2.63-3.201-7.358-3.661-10.556-1.03   c-3.2,2.63-3.661,7.357-1.03,10.557C369.222,168.36,381,201.265,381,235c0,80.505-65.495,146-146,146S89,315.505,89,235   S154.495,89,235,89c33.734,0,66.639,11.778,92.653,33.165c3.199,2.631,7.925,2.169,10.557-1.031   C340.84,117.935,340.379,113.208,337.179,110.578z" fill="#FFFFFF"/>
</g>
<g>
</g>
<g>
</g>
<g>
</g>
<g>
</g>
<g>
</g>
<g>
</g>
<g>
</g>
<g>
</g>
<g>
</g>
<g>
</g>
<g>
</g>
<g>
</g>
<g>
</g>
<g>
</g>
<g>
</g>
</svg>
