<?xml version="1.0" encoding="iso-8859-1"?>
<!-- Generator: Adobe Illustrator 17.1.0, SVG Export Plug-In . SVG Version: 6.00 Build 0)  -->
<!DOCTYPE svg PUBLIC "-//W3C//DTD SVG 1.1//EN" "http://www.w3.org/Graphics/SVG/1.1/DTD/svg11.dtd">
<svg xmlns="http://www.w3.org/2000/svg" xmlns:xlink="http://www.w3.org/1999/xlink" version="1.1" id="Capa_1" x="0px" y="0px" viewBox="0 0 470 470" style="enable-background:new 0 0 470 470;" xml:space="preserve" width="512px" height="512px">
<g>
	<path d="M401.17,68.83C356.785,24.444,297.771,0,235,0S113.215,24.444,68.83,68.83C24.444,113.215,0,172.229,0,235   s24.444,121.785,68.83,166.17C113.215,445.556,172.229,470,235,470s121.785-24.444,166.17-68.83   C445.556,356.785,470,297.771,470,235S445.556,113.215,401.17,68.83z M235,455c-121.309,0-220-98.691-220-220S113.691,15,235,15   s220,98.691,220,220S356.309,455,235,455z" fill="#FFFFFF"/>
	<path d="M282.699,340.022c-4.142,0-7.5,3.358-7.5,7.5s3.358,7.5,7.5,7.5H314c4.142,0,7.5-3.358,7.5-7.5s-3.358-7.5-7.5-7.5H282.699   z" fill="#FFFFFF"/>
	<path d="M156,340.022c-4.142,0-7.5,3.358-7.5,7.5s3.358,7.5,7.5,7.5h31.301c4.142,0,7.5-3.358,7.5-7.5s-3.358-7.5-7.5-7.5H156z" fill="#FFFFFF"/>
	<path d="M210.183,395.836c0,4.142,3.358,7.5,7.5,7.5h34.634c4.142,0,7.5-3.358,7.5-7.5c0-2.853-1.594-5.333-3.939-6.602v-90.027   c0-2.522-1.268-4.876-3.375-6.264c-2.106-1.388-4.771-1.624-7.087-0.626l-26.688,11.473c-0.019,0.008-0.038,0.016-0.057,0.024   l-3.95,1.698c-3.806,1.636-5.564,6.047-3.928,9.852c0.695,1.616,1.892,2.858,3.329,3.632v70.237   C211.777,390.502,210.183,392.983,210.183,395.836z M240.878,388.336h-11.756v-72.687l11.756-5.054V388.336z" fill="#FFFFFF"/>
	<path d="M177.436,127.46c-14.532,0-26.593,10.42-32.264,27.874c-1.118,3.44-1.867,6.827-2.263,10.122   c-28.147,11.902-49.99,32.603-60.326,57.375c-1.426,3.418-0.144,7.366,3.02,9.293c15.494,9.44,34.218,14.292,53.941,14.292   c8.248,0,16.672-0.864,25.105-2.581c2.997,6.327,8.053,12.171,14.836,17.099c8.202,5.959,16.918,9.109,25.205,9.109   c9.777,0,18.45-4.525,24.42-12.743c2.338-3.219,4.28-8.177,5.892-14.032c1.612,5.855,3.553,10.813,5.892,14.032   c5.971,8.218,14.643,12.743,24.42,12.743c8.287,0,17.002-3.15,25.205-9.109c6.783-4.928,11.839-10.772,14.836-17.099   c8.433,1.717,16.856,2.58,25.105,2.58c19.721,0,38.448-4.853,53.941-14.292c3.163-1.927,4.446-5.875,3.02-9.293   c-10.336-24.772-32.179-45.472-60.326-57.375c-0.396-3.294-1.145-6.681-2.263-10.12c-0.796-2.45-1.744-4.814-2.818-7.024   c-1.811-3.726-6.297-5.279-10.023-3.468c-3.726,1.81-5.278,6.298-3.468,10.023c0.773,1.591,1.46,3.307,2.043,5.103   c2.148,6.612,2.436,12.902,0.81,17.711c-1.591,4.704-4.852,7.798-9.971,9.461c-7.874,2.557-33.879-2.156-54.504-7.259   c3.246-5.184,7.299-11.892,11.245-19.052c8.363-9.248,18.781-16.574,30.773-21.436c21.623-8.767,46.042-8.801,68.759-0.098   c3.869,1.481,8.206-0.452,9.687-4.321c1.481-3.868-0.453-8.205-4.321-9.687c-26.279-10.066-54.605-9.993-79.761,0.205   c-4.098,1.661-8.039,3.568-11.813,5.7c0.972-3.376,1.545-6.446,1.545-9.015c0-19.206-15.276-32.109-38.012-32.109   s-38.012,12.903-38.012,32.109c0,3.98,1.349,9.137,3.488,14.824c-4.748-3.792-9.236-6.668-13.021-7.898   C184.096,128.014,180.725,127.46,177.436,127.46z M159.438,159.97c3.563-10.963,10.291-17.509,17.998-17.509   c1.712,0,3.524,0.307,5.385,0.911c7.699,2.502,25.335,20.816,38.909,36.819c-12.793,3.116-33.571,7.631-46.56,7.631   c-3.896,0-5.79-0.426-6.571-0.68c-5.118-1.663-8.379-4.758-9.97-9.461C157.001,172.873,157.289,166.583,159.438,159.97z    M99.292,222.548c8.984-16.958,25.05-31.711,44.782-41.168c0.111,0.371,0.222,0.742,0.345,1.107   c3.125,9.24,9.883,15.783,19.544,18.921c2.929,0.952,6.594,1.414,11.207,1.414c1.247,0,2.554-0.039,3.9-0.104   c-5.042,3.329-9.137,6.692-11.466,9.897c-3.763,5.18-5.795,10.776-6.059,16.538C139.203,233.686,117.126,231.347,99.292,222.548z    M216.973,248.484c-3.207,4.414-7.225,6.56-12.285,6.56c-5.025,0-10.846-2.218-16.388-6.245   c-5.625-4.086-9.555-9.006-11.065-13.852c-1.478-4.741-0.658-9.161,2.504-13.515c4.761-6.553,27.652-17.676,47.073-25.64   C225.239,216.723,221.734,241.931,216.973,248.484z M281.7,248.799c-5.542,4.027-11.363,6.245-16.388,6.245   c-5.06,0-9.078-2.146-12.285-6.56c-4.761-6.554-8.266-31.761-9.839-52.693c19.418,7.96,42.307,19.082,47.073,25.641   c3.163,4.354,3.982,8.774,2.505,13.515C291.255,239.793,287.325,244.712,281.7,248.799z M306.037,201.408   c9.661-3.139,16.42-9.682,19.544-18.921c0.123-0.365,0.234-0.736,0.345-1.107c19.731,9.458,35.798,24.211,44.782,41.168   c-17.836,8.799-39.913,11.137-62.253,6.605c-0.264-5.761-2.296-11.358-6.059-16.537c-2.338-3.218-6.459-6.597-11.529-9.939   c1.337,0.061,2.64,0.095,3.895,0.095C299.205,202.771,303.086,202.367,306.037,201.408z M235,105.071   c5.398,0,23.012,1.234,23.012,17.109c0,5.449-5.423,17.392-12.329,30.062c-4.438,5.116-8.352,10.709-11.685,16.721   c-10.741-17.567-22.009-38.92-22.009-46.783C211.988,106.305,229.602,105.071,235,105.071z" fill="#FFFFFF"/>
	<path d="M234.993,25c-53.226,0-104.028,20.024-143.048,56.385c-38.817,36.172-62.381,85.064-66.35,137.671   c-0.312,4.13,2.784,7.731,6.914,8.043c4.138,0.315,7.731-2.784,8.043-6.914C48.175,119.146,133.584,40,234.993,40   c107.523,0,195,87.477,195,195s-87.477,195-195,195c-46.522,0-91.604-16.729-126.942-47.106c-3.142-2.699-7.876-2.342-10.577,0.798   c-2.7,3.141-2.343,7.876,0.798,10.577C136.33,426.983,184.885,445,234.993,445c115.794,0,210-94.206,210-210S350.787,25,234.993,25   z" fill="#FFFFFF"/>
	<path d="M40.552,249.815c-0.312-4.13-3.909-7.237-8.043-6.914c-4.13,0.312-7.226,3.913-6.914,8.043   c3.379,44.792,20.714,86.556,50.129,120.776c1.483,1.726,3.581,2.611,5.691,2.611c1.731,0,3.47-0.596,4.886-1.813   c3.141-2.7,3.499-7.436,0.798-10.577C59.785,330.167,43.689,291.394,40.552,249.815z" fill="#FFFFFF"/>
</g>
<g>
</g>
<g>
</g>
<g>
</g>
<g>
</g>
<g>
</g>
<g>
</g>
<g>
</g>
<g>
</g>
<g>
</g>
<g>
</g>
<g>
</g>
<g>
</g>
<g>
</g>
<g>
</g>
<g>
</g>
</svg>
