<?xml version="1.0" encoding="iso-8859-1"?>
<!-- Generator: Adobe Illustrator 17.1.0, SVG Export Plug-In . SVG Version: 6.00 Build 0)  -->
<!DOCTYPE svg PUBLIC "-//W3C//DTD SVG 1.1//EN" "http://www.w3.org/Graphics/SVG/1.1/DTD/svg11.dtd">
<svg xmlns="http://www.w3.org/2000/svg" xmlns:xlink="http://www.w3.org/1999/xlink" version="1.1" id="Capa_1" x="0px" y="0px" viewBox="0 0 470 470" style="enable-background:new 0 0 470 470;" xml:space="preserve" width="512px" height="512px">
<g>
	<path d="M401.17,68.83C356.784,24.444,297.771,0,235,0C172.229,0,113.215,24.444,68.83,68.83C24.444,113.215,0,172.229,0,235   s24.444,121.785,68.83,166.17C113.215,445.556,172.229,470,235,470c62.771,0,121.784-24.444,166.17-68.83   C445.556,356.785,470,297.771,470,235S445.556,113.215,401.17,68.83z M235,455c-121.309,0-220-98.691-220-220S113.691,15,235,15   s220,98.691,220,220S356.309,455,235,455z" fill="#FFFFFF"/>
	<path d="M155.892,207.145c-4.398,0-7.977,3.578-7.977,7.977s3.578,7.977,7.977,7.977s7.977-3.578,7.977-7.977   S160.29,207.145,155.892,207.145z" fill="#FFFFFF"/>
	<path d="M282.095,84.006c-50.996,0-92.67,40.683-94.279,91.296h-31.447c-21.957,0-39.819,17.863-39.819,39.819   c0,8.178,2.546,15.884,6.911,22.301l-35.687,35.687c-2.929,2.929-2.929,7.678,0,10.606c1.464,1.464,3.384,2.197,5.303,2.197   s3.839-0.732,5.303-2.197l35.667-35.667c4.844,3.31,10.461,5.585,16.547,6.471l117.798,17.149c0.75,0.109,1.504,0.196,2.258,0.287   v40.071h-22.868c-4.143,0-7.5,3.358-7.5,7.5s3.357,7.5,7.5,7.5h12.261l-8.67,8.67c-2.929,2.929-2.929,7.678,0,10.606   c1.465,1.464,3.385,2.197,5.304,2.197s3.839-0.732,5.304-2.197l21.474-21.474c0.012-0.012,0.022-0.025,0.034-0.038   c0.161-0.164,0.316-0.333,0.462-0.511c0.076-0.092,0.142-0.189,0.213-0.285c0.075-0.101,0.154-0.199,0.224-0.304   c0.074-0.111,0.139-0.227,0.207-0.341c0.057-0.096,0.117-0.189,0.17-0.288c0.062-0.116,0.115-0.235,0.17-0.354   c0.049-0.104,0.1-0.205,0.144-0.311c0.048-0.116,0.087-0.235,0.129-0.353c0.04-0.113,0.084-0.224,0.119-0.339   c0.036-0.119,0.063-0.241,0.093-0.361c0.029-0.117,0.062-0.231,0.085-0.351c0.028-0.141,0.045-0.284,0.065-0.427   c0.014-0.1,0.033-0.197,0.043-0.298c0.025-0.249,0.038-0.498,0.037-0.748v-46.933c14.115-0.526,27.449-4.161,39.329-10.25v49.688   h-22.868c-4.143,0-7.5,3.358-7.5,7.5s3.357,7.5,7.5,7.5h12.261l-8.67,8.67c-2.929,2.929-2.929,7.678,0,10.606   c1.465,1.464,3.385,2.197,5.304,2.197s3.839-0.732,5.304-2.197l21.474-21.474c0.012-0.012,0.022-0.025,0.034-0.038   c0.161-0.164,0.316-0.333,0.462-0.511c0.076-0.092,0.142-0.189,0.213-0.285c0.075-0.101,0.154-0.199,0.224-0.304   c0.074-0.111,0.139-0.227,0.207-0.341c0.057-0.096,0.117-0.189,0.17-0.288c0.062-0.116,0.115-0.235,0.17-0.354   c0.049-0.104,0.1-0.205,0.144-0.311c0.048-0.116,0.087-0.235,0.129-0.353c0.04-0.113,0.084-0.224,0.119-0.339   c0.036-0.119,0.063-0.241,0.093-0.361c0.029-0.117,0.062-0.231,0.085-0.351c0.028-0.141,0.045-0.284,0.065-0.427   c0.014-0.1,0.033-0.197,0.043-0.298c0.025-0.249,0.038-0.498,0.037-0.748v-66.761c22.163-17.275,36.443-44.213,36.443-74.426   C376.423,126.322,334.107,84.006,282.095,84.006z M339.979,232.495v-5.366c0-4.142-3.357-7.5-7.5-7.5s-7.5,3.358-7.5,7.5v17.889   c-12.376,7.987-27.092,12.644-42.885,12.644c-3.84,0-7.723-0.282-11.541-0.838l-117.798-17.149   c-12.089-1.759-21.206-12.315-21.206-24.554c0-13.685,11.134-24.819,24.819-24.819h39.012c2.055,0,4.021-0.843,5.436-2.333   c1.416-1.49,2.159-3.495,2.054-5.547c-0.068-1.347-0.103-2.722-0.103-4.087c0-43.742,35.586-79.328,79.327-79.328   s79.328,35.586,79.328,79.328C361.423,199.26,353.265,218.306,339.979,232.495z" fill="#FFFFFF"/>
	<path d="M235,395.5c-12.334,0-24.646-1.418-36.591-4.214c-4.033-0.942-8.067,1.561-9.012,5.593   c-0.944,4.033,1.56,8.068,5.593,9.012c13.065,3.058,26.527,4.609,40.01,4.609c30.75,0,61.028-8.106,87.562-23.442   c25.727-14.87,47.443-36.181,62.803-61.631c2.141-3.546,1.001-8.156-2.546-10.297c-3.544-2.139-8.155-1.001-10.296,2.546   C343.551,365.68,290.855,395.5,235,395.5z" fill="#FFFFFF"/>
	<path d="M97.478,317.676c-2.141-3.545-6.749-4.686-10.297-2.546c-3.546,2.141-4.686,6.75-2.546,10.297   c18.751,31.068,47.376,56.136,80.602,70.585c0.974,0.423,1.989,0.624,2.987,0.624c2.895,0,5.653-1.687,6.882-4.511   c1.652-3.799-0.088-8.217-3.887-9.869C140.822,369.038,114.634,346.103,97.478,317.676z" fill="#FFFFFF"/>
	<path d="M388.487,91.818c-36.257-38.84-85.244-62.365-137.938-66.242c-4.119-0.296-7.726,2.799-8.029,6.93   c-0.305,4.131,2.798,7.726,6.93,8.03C350.692,47.985,430,133.403,430,235c0,107.523-87.477,195-195,195S40,342.523,40,235   c0-46.659,16.813-91.84,47.343-127.223c2.706-3.136,2.357-7.872-0.779-10.578c-3.136-2.707-7.873-2.358-10.578,0.779   C43.107,136.083,25,184.745,25,235c0,115.794,94.206,210,210,210c115.794,0,210-94.206,210-210   C445,181.706,424.931,130.856,388.487,91.818z" fill="#FFFFFF"/>
	<path d="M102.881,89.165c1.735,0,3.479-0.599,4.896-1.822c31.92-27.542,70.916-43.728,112.773-46.807   c4.131-0.304,7.233-3.899,6.93-8.03s-3.899-7.226-8.03-6.93c-45.092,3.317-87.096,20.749-121.471,50.41   c-3.136,2.706-3.485,7.442-0.779,10.578C98.683,88.283,100.776,89.165,102.881,89.165z" fill="#FFFFFF"/>
</g>
<g>
</g>
<g>
</g>
<g>
</g>
<g>
</g>
<g>
</g>
<g>
</g>
<g>
</g>
<g>
</g>
<g>
</g>
<g>
</g>
<g>
</g>
<g>
</g>
<g>
</g>
<g>
</g>
<g>
</g>
</svg>
