<?xml version="1.0" encoding="utf-8"?>
<!-- Svg Vector Icons : http://www.onlinewebfonts.com/icon -->
<!DOCTYPE svg PUBLIC "-//W3C//DTD SVG 1.1//EN" "http://www.w3.org/Graphics/SVG/1.1/DTD/svg11.dtd">
<svg version="1.1" xmlns="http://www.w3.org/2000/svg" xmlns:xlink="http://www.w3.org/1999/xlink" x="0px" y="0px" viewBox="0 0 1000 1000" enable-background="new 0 0 1000 1000" xml:space="preserve">
<metadata> Svg Vector Icons : http://www.onlinewebfonts.com/icon </metadata>
<g><g transform="translate(0.000000,511.000000) scale(0.100000,-0.100000)"><path d="M1384.2,110v-4900h612.5h612.5v1551.7v1551.7l841.2,990.2c461.4,545.1,845.2,990.2,851.4,990.2c6.1,0,669.7-1145.4,1472-2541.9L7233.6-4790h690.1h692.1l-49,85.8c-26.5,49-824.8,1412.8-1770.1,3033.9L5075.5,1277.8l38.8,42.9c98,108.2,3007.4,3668.9,3007.4,3679.1c0,6.1-310.3,10.2-690.1,10.2h-690.1L4699.9,2549.8C3579,1196.2,2648,89.6,2635.7,89.6c-20.4,0-26.5,506.3-26.5,2460.2V5010h-612.5h-612.5V110z"/></g></g>
</svg>