<svg xmlns="http://www.w3.org/2000/svg" viewBox="0 0 182.7 183.19"><path d="m0 0h182.7v182.7h-182.7z"/><path d="m4.2 31.5s81.1-60.9 174.3-2.6c0 0 9.1 97.1-86.3 149 0-.1-87.3-43.8-88-146.4" fill="none" stroke="#fff" stroke-width="6.287" stroke-miterlimit="10"/><g fill="#fff"><path d="m25.5 57.8h7.5c4.8 0 8.7 1.5 8.7 6.1s-3.9 6.4-8.6 6.4h-2.7v6.4h-4.9m7.4-9.8c2.7 0 4-1 4-3s-1.5-2.7-4.1-2.7h-2.3v5.7"/><path d="m52.2 57.8h4.9v18.9h-4.9"/><path d="M69,57.8h5V73.2h8.6v3.6H69Z"/><path d="M93.1,57.8H98V73.2h8.6v3.6H93.1Z"/><path d="m121.2 57.8h5.9l6.9 18.9h-5.2l-2.9-9.6c-.6-1.9-1.2-4.1-1.8-6.1h-.1c-.5 2-1.1 4.2-1.7 6.1l-2.9 9.6h-5.1m4.6-7.8h10.5v3.3h-10.5"/><path d="m143.1 57.8h7.9c4.6 0 8.4 1.4 8.4 5.9s-3.8 6.2-8.4 6.2h-3v6.8h-4.9m7.4-10.2c2.6 0 4-1 4-2.8s-1.4-2.5-4-2.5h-2.5v5.3m2 2.3l3.4-2.7 7 10.7h-5.5"/></g></svg>