<svg xmlns="http://www.w3.org/2000/svg" viewBox="0 0 200.06 200.6"><path d="m101.46.2c6.2 6.9 12.9 13.2 19.3 19.8 1.2 1.2 2.4.9 3.7.5 7.8-2 15.7-4 23.5-6.2 2.3-.7 3-.2 3.6 2.1 1.9 7.8 4.1 15.4 6.1 23.2.5 2.1 1.4 3.3 3.7 3.8 8.1 2 16 4.4 24 6.4 2.1.5 2.4 1.3 1.8 3.2-2.2 7.8-4.2 15.6-6.5 23.4a4.55 4.55 0 0 0 1.4 5.4c5.6 5.4 10.9 11.1 16.5 16.5 1.9 1.9 2.1 2.9 0 4.9-5.8 5.5-11.4 11.3-17.1 16.8a4 4 0 0 0 -1.2 4.7c2.2 7.9 4.2 15.9 6.4 23.7.7 2.4 0 3.3-2.3 3.8-7.8 1.9-15.4 4.1-23.2 6-2.2.5-3.3 1.4-3.8 3.7-1.9 7.7-4.3 15.4-6.2 23.1-.6 2.3-1.5 2.7-3.7 2.1-7.7-2.2-15.4-4.1-23.1-6.4a4.62 4.62 0 0 0 -5.4 1.5c-5.6 5.8-11.4 11.3-16.9 17.1-1.8 1.8-2.8 1.7-4.5-.1-5.5-5.7-11.1-11.2-16.6-16.9a5 5 0 0 0 -5.7 -1.6c-7.7 2.2-15.5 4-23.2 6.2-2 .6-2.7.1-3.2-1.9-2-7.9-4.2-15.6-6.2-23.5-.5-2.1-1.4-3.3-3.7-3.8-7.8-1.9-15.4-4.2-23.2-6.1-2.9-.7-3.3-1.8-2.5-4.5 2.3-7.7 4.2-15.4 6.4-23.1a3.9 3.9 0 0 0 -1.3 -4.6c-5.8-5.7-11.4-11.5-17.2-17.2-1.5-1.5-1.6-2.4 0-3.9 5.9-5.7 11.6-11.6 17.5-17.3a4 4 0 0 0 1.2 -4.7c-2.2-7.8-4-15.7-6.3-23.4-.8-2.7-.1-3.6 2.5-4.2 7.9-1.9 15.6-4.1 23.5-6.1a3.71 3.71 0 0 0 3.1 -3.2c2-7.8 4.3-15.6 6.3-23.4.6-2.3 1.5-2.7 3.7-2.1 7.8 2.2 15.6 4.2 23.4 6.4a4.07 4.07 0 0 0 4.7 -1.2c5.9-6 11.9-11.9 17.9-17.8a1.36 1.36 0 0 0 .7 -1.3 8.61 8.61 0 0 0 2.1 .2m-41.4 39c-2.2.6-4.4 1.2-6.6 1.6a2 2 0 0 0 -1.8 2.4c.1 1.6 0 3.2 0 5.1 3.2-3.1 6-5.9 8.8-8.6a1 1 0 0 1 .4 -.5 2.13 2.13 0 0 0 -.8 0m-50.7 57.9c3.8-.9 7.6-1.8 11.4-2.8 4.3-1.1 4.4-1.4 2.1-5.7l-13.8 8.1m-1.8 9c4.2 4.9 8.8 9.3 13.4 13.9 1.9-3.8 2.2-5.6.9-6.3-4.7-2.6-9.1-5.8-14.2-7.7m51.1-88c3.4 2.8 7.5 4.7 11.2 7 4.3 2.6 4.6 2.5 7.6-2.4-6.26-1.2-12.26-3.8-18.8-4.6m-.7 166.1c6.5-.8 12.5-3.1 19.8-4.8-2.6-1.4-3.2-4.9-5.8-3.7-4.8 2.5-9.7 5-14 8.5-.3.1-.6.2-1 .3m135.8-77.8c-3.5 1.9-7.1 3.8-10.6 5.7-4.6 2.5-4.5 2.5-3 7.4a1.87 1.87 0 0 0 .3 .4c4.6-4.4 9.1-8.8 13.7-13.2m-176.2 37.4c2.2-3.1 4.5-6.2 6.7-9.4 4.1-5.9 4.1-5.9-1.1-10.9-.1-.1-.4-.1-.7-.2l-5.4 20.1m.1-90.7c-.3 0-.5-.1-.8-.1.1.3.1.5.2.8 2.1 8 4.1 15.9 6.2 23.9a5.36 5.36 0 0 0 1.1 .5c4-4.3 8-8.6 12.1-12.8 1-1.1.1-1.3-.5-1.7-6.2-3.5-12.3-7.1-18.3-10.6m90.4 68.4c1.1.5 1.6-.5 2.3-1.3 3.9-4.6 7.7-9.3 11.6-13.8a3.06 3.06 0 0 0 .6 -3.6c-2.1-5.5-4.1-11.1-6.1-16.6a3.2 3.2 0 0 0 -2.8 -2.4c-6-1-12.1-2.1-18.1-3.2a2.42 2.42 0 0 0 -2.7 1c-3.9 4.8-7.9 9.6-12 14.3a2.59 2.59 0 0 0 -.5 3.1c2.1 5.7 4.2 11.5 6.3 17.2.4 1 .8 1.8 2.1 2 6.4 1.1 12.7 2.2 19.3 3.3m-43.4 13.9c2.9-10.8 5.7-21.3 8.6-31.8.5-1.7-.3-1.9-1.7-1.9-5.4 0-10.8.1-16.2-.1-2.2-.1-2.5.7-2.5 2.6.1 5.3.1 10.6-.1 15.9-.2 8.4-.2 8.4 7.2 12.6 1.4.8 2.9 1.6 4.7 2.7m23.64-9.8c-3.3 5.6-6.3 10.9-9.5 16.2-.8 1.3-.4 1.9.8 2.6 6.6 3.8 13.1 7.6 19.6 11.5a3.18 3.18 0 0 0 3.5 .2c3-1.7 5.9-3.5 8.9-5.1 1.2-.7 1.1-1.1.2-2-7.84-7.7-15.5-15.4-23.5-23.4m1.6-73.5c8.1 7.9 15.8 15.4 23.5 23 1.4 1.4 1.9.8 2.6-.5 2.7-4.7 5.3-9.4 8.2-14 .9-1.5.8-2.2-.8-3.1-6.5-3.7-12.9-7.5-19.3-11.4a3.15 3.15 0 0 0 -3.7 -.1c-3.24 2-6.54 3.8-10.54 6.1m48.64 14.6c-2.9 10.8-5.8 21.4-8.7 32-.4 1.6.3 1.7 1.6 1.7 5.3 0 10.6-.2 15.9.1 2.5.1 3-.9 2.9-3 0-7.2 0-14.3.1-21.5a3.3 3.3 0 0 0 -1.7 -3.3c-3.24-2.1-6.54-4-10.14-6m11.24 56.9c0-2.4-.1-4 0-5.5.2-1.9-.4-2.2-2.3-1.7-9.7 2.7-19.4 5.2-29.2 7.7-1.5.4-2.1.9-1.1 2.5 2.8 4.6 5.5 9.3 8 14.1 1 1.8 1.8 1.7 3.4.8 5-2.9 10-6 15.2-8.6 4.6-2.1 7.66-4.6 5.96-9.3m-96.2-45.2c0 2.3.1 3.8 0 5.2-.3 2.3.5 2.5 2.6 1.9 9.5-2.6 19-5.2 28.5-7.6 2-.5 2.3-1 1.2-2.8-2.7-4.4-5.3-8.9-7.7-13.5-.9-1.7-1.6-2.3-3.5-1.1-5 3-9.9 6-15.2 8.6-4.5 2.1-7.6 4.6-5.9 9.3m57.7 43.3c3.3 1.9 6.5 1.2 9.7.3 7.5-2.1 15-4.1 22.5-6.1 6.2-1.7 6.2-1.6 6.3-7.9 0-1.2.2-2.5.3-3.7.2-1.8-.3-2.6-2.3-2.6-4.7.1-9.4 0-14 0s-4.6 0-5.9 4.5c-.4 1.4-.1 3.7-1.8 4s-1-2.4-2.4-3.3m-16.1 16.1c-6.3-1.1-12.6-2.2-19-3.3 0 3.9 2.1 6.1 4.3 8.3 5.7 5.6 11.3 11.3 17 17 4.3 4.3 4.3 4.3 9.8 1.3a35.39 35.39 0 0 1 3.4 -1.6c1.8-.7 2-1.6 1-3.3-2.4-4-4.9-8-6.9-12.2-1.6-3.2-3.4-4.5-6.9-2.9-1.3.6-3.2 1.8-4.3.5s1.6-2.1 1.6-3.8m-15.5-42.7c-3.3-1.6-6.3-1.2-9.4-.3-7.7 2.2-15.4 4.2-23.1 6.2-5.9 1.6-5.9 1.6-6 7.9 0 1.3-.2 2.7-.3 4-.2 1.5.3 2.2 2.1 2.2 5.7-.1 11.4 0 17.1.1a2.08 2.08 0 0 0 2.4 -1.8 16.66 16.66 0 0 1 .8 -3c.5-1.3.1-3.5 1.6-3.7 1.7-.2 1.1 2.4 2.5 3.4q6-7.5 12.3-15m-13.1 18.7a12.09 12.09 0 0 0 -4.9 7.6c-1.7 7.3-3.8 14.4-5.8 21.6-.7 2.5-2.2 5.2-1.7 7.4.5 2.4 4 2.7 6.1 4.2.8.5 1.5 1.1 2.3 1.6 1.3 1 2.1.8 2.9-.7 1.8-3.3 3.7-6.5 5.6-9.7 1.2-2.1 3.1-4.1 3.3-6.2.2-2.5-3-3.6-4.4-5.5-.4-.6-1.3-1-.9-1.8s1.3-.5 2-.4c2.1.4 2.2-.3 1.6-2.1-2.2-5.1-4.1-10.5-6.1-16m38.9-13.9c2.2 5.9 4.3 11.8 6.6 18 2.4-1.9 3.9-3.7 4.6-6.5 1.9-7.8 4.2-15.6 6.2-23.4.6-2.3 2-4.8 1.5-6.9s-3.8-2.5-5.6-3.9a20.28 20.28 0 0 1 -1.8 -1.3c-1.8-1.4-3-1.6-4.2.8-2 4-4.4 7.7-6.7 11.6-2.4 4.2-2.4 4.1.9 7.5 1 1 3 1.9 2.5 3.2-.46 1.7-2.6-.1-4 .9m-3-2.8a11.51 11.51 0 0 0 -3.7 -7.6c-5.7-5.4-11.2-11.1-16.76-16.7-1.8-1.7-3.2-4.4-5.5-4.9-2-.4-3.9 2-6 2.9-.9.4-1.8.9-2.8 1.3-1.7.7-1.8 1.5-.9 3.1 2.4 3.9 4.6 7.9 6.8 11.9 2.6 4.5 2.5 4.4 7.5 3.2 1.2-.3 2.8-1.6 3.8-.4 1.1 1.4-1.2 2.1-1.5 3.3-.1.2 0 .4 0 .6 6.26 1.2 12.6 2.2 19.06 3.3m51.8 55.6c6.3 3.7 12.9 7.6 20.1 11.9-2.4-8.9-4.6-17.1-6.7-25.2-4.6 4.4-8.9 8.8-13.4 13.3m-123.8 19.5c-1.7-6.3-3.2-11.9-4.7-17.6-.3-1-.7-1.1-1.5-.6-6.4 3.6-12.7 7.2-19.7 11.2 8.9 2.3 17 4.5 25.9 7m122.6-93.9c6.9-3.9 13.6-7.7 20.9-11.8-9-2.4-17.2-4.7-25.9-7 1.7 6.5 3.3 12.6 5 18.8m-64.4-59.5c-.3-.2-.5-.4-.8-.6-5.6 5.8-11.2 11.6-16.86 17.4a8.14 8.14 0 0 0 -.8 1.2c5.7 1.6 11.2 3.1 16.6 4.6 1.3.4 1.9 0 1.9-1.5m1.16 172.9l.9.6c5.4-5.7 10.9-11.3 16.3-17 .7-.7 1.9-1.5-.2-2-5.1-1.3-10.2-2.8-15.3-4.2-1.1-.3-1.8-.2-1.8 1.2.1 7.2.1 14.3.1 21.4m49.4-107.7v7.8c0 .7-.6 1.7.5 2.1s1.9-.2 2.5-1.2c3.4-5.1 6.9-10.1 10.4-15.1.8-1.2.8-1.9-.6-2.6q-5.4-2.85-10.5-6c-1.7-1-2.1-.4-2.1 1.3m-100.2 34.6c0-2.5.1-5 0-7.5 0-.7.7-1.8-.7-2a2.09 2.09 0 0 0 -2.3 1.2c-3.4 5.1-6.9 10.1-10.4 15.1-.9 1.3-.9 2 .6 2.8 3.5 1.8 6.9 3.8 10.3 5.8 1.9 1.2 2.2.4 2.2-1.4m1.8-62.8c0 2 .1 3.9 0 5.9-.1 1.7.1 2.6 2.1 1.4l18.9-10.8c.6-.4 1.7-.5 1.4-1.7s-1.16-1.2-2.16-1.3c-4.4-.3-8.9-.8-13.3-1.1-6.9-.5-6.9-.5-6.9 6.6m96.96 78c0-1.9-.1-3.7 0-5.6.2-2.1-.4-2.6-2.3-1.5-6.2 3.6-12.4 7.1-18.7 10.6-.7.4-1.8.5-1.5 1.7s1.1 1.3 2.1 1.4c4 .3 8.1.7 12.1 1 8.3.7 8.3.7 8.3-7.6m-50.4 18.6c-7.2-4.2-14-8.3-20.9-12.3-.6-.3-1.2-1-1.9-.3-.9.8-.6 1.6-.1 2.5 2.7 5.5 5.4 11 7.9 16.5.8 1.9 1.7 1.6 3 .7 3.8-2.3 7.7-4.6 12-7.1m3.8-114c7.1 4.2 13.8 8.2 20.6 12.1.7.4 1.4 1.5 2.4.4.8-.9.3-1.8-.1-2.6-2.6-5.5-5.3-11-7.9-16.5-.5-1.1-1-1.6-2.3-.8-4 2.4-8.2 4.8-12.7 7.4m25 121.7c-4.6-4.6-9.1-9-13.5-13.4a1.39 1.39 0 0 0 -1.9 -.2c-3.4 2-6.7 3.9-10.3 5.9 3.9 2.3 7.8 4.2 11.2 6.7 4.4 3.4 8.9 3.8 13.8 1.6 0 0 .1-.1.7-.6m-28.1-121.7c-4.5-2.6-8.9-4.7-12.6-7.6-4.4-3.4-8.4-2.1-13.2-.2 4.7 4.7 9.2 9.1 13.6 13.6.8.8 1.4.5 2.2 0 3.2-1.9 6.4-3.7 10-5.8m51.4 84.3c3.2-1.8 6.2-3.4 9.1-5.1 2.3-1.3 4.5-2.6 6.8-3.8a3.39 3.39 0 0 0 1.9 -2.3c.5-2.2 1.1-4.3 1.8-6.9-3.2.8-6 1.4-8.8 2.3-3.7 1.2-9 .6-10.7 3.7m-119.8-24.3c6.4-1.7 12.5-3.3 18.6-4.9a1.25 1.25 0 0 0 1 -1.4v-12c-4.3 2.4-7.9 5-11.9 6.6-5.3 2.1-7.3 5.9-7.7 11.7m118.4-20.4c0-5.4-.5-10.2.1-14.9.7-5.5-2.5-8.3-6.3-11.4-1.7 6.4-3.3 12.5-5 18.5a1.36 1.36 0 0 0 .7 1.8c3.34 1.8 6.6 3.8 10.5 6m-97.8 59c0 5.9.4 11.2-.1 16.4s3.4 6.9 6.3 10.1c1.7-6.4 3.2-12.2 4.8-18 .3-.9.6-1.7-.5-2.4-3.3-1.9-6.6-3.8-10.5-6.1m-13.5-30.3h6.2a6.14 6.14 0 0 0 6.2 -6.1c0-1.2-.1-2.5 0-3.7.2-1.8-.5-2-2.2-1.6-4.8 1.4-9.5 3.1-14.4 3.8-3.8.6-4.5 2.9-5.2 5.8-.3 1.4.1 1.9 1.5 1.9 2.7-.1 5.3-.1 7.9-.1m85 47c-2.8-.6-4.5 1.4-6.7 2.4-1.8.8-1.9 1.4-.5 2.8 3.5 3.4 7.1 6.7 10.3 10.4 2.3 2.7 4.6 3 7.6 1.8 1.5-.6 1.6-1.1.9-2.4-2.4-4-4.7-8-6.9-12.1-1.1-2.1-2.3-3.5-4.7-2.9m35.3-45.2c-4-1.3-6 .8-7.4 3.7-1 1.9-.2 3.9-.5 5.8s.6 2.2 2.3 1.7c4.8-1.4 9.6-2.9 14.4-3.8 3.4-.6 4.3-2.5 4.9-5.3.3-1.5 0-2.1-1.6-2.1-4.2.1-8.26 0-12.1 0m-99.16 55.4c-.3 1.6 1.1 2.1 1.8 3.1 1.7 2.3 2.9 2.5 4.4-.4a84.41 84.41 0 0 1 6.1 -10.5c1.9-2.6 1.3-4.8-.2-7s-4-2.8-6.1-4.1c-.6-.4-.9.1-1 .6-1.74 6.1-3.34 12.2-5 18.3m6.16-119.1c2.6 4.6 5.2 9.1 7.8 13.7a5.78 5.78 0 0 0 7.5 2.6 61.7 61.7 0 0 0 5.8 -3.4c-4.1-4-7.8-7.7-11.6-11.4s-3.8-3.8-9.5-1.5m-19 63.3h-15.9c-.8 0-2.2-.4-1.7 1.2q1.8 7.2 3.9 14.4c.4 1.4 1.6 2.1 2.7.4 3.6-5.1 7.1-10.3 11-16m27.6 46.6c-2.8 4.9-5.5 9.4-8.1 13.9-.4.7-1.1 1.5.3 1.9 4.8 1.3 9.6 2.7 14.4 3.8 1.6.4 2.6-.3 1.6-2.3-2.6-5.6-5.3-11.2-8.2-17.3m53-94.3c2.9-4.9 5.5-9.4 8.1-13.9.4-.7 1-1.6-.3-1.9-4.8-1.3-9.6-2.7-14.4-3.8-1.7-.4-2.5.4-1.6 2.3 2.6 5.5 5.2 11.2 8.2 17.3m27.5 46.5h15.9c.9 0 2.1.2 1.6-1.4-1.2-4.7-2.4-9.4-3.8-14.1-.5-1.6-1.6-2.3-2.9-.5-3.3 5.2-6.8 10.3-10.8 16m-17.2 63.3c3.9-4.2 7.5-8.1 11-11.9.9-1 1.7-2.4-.5-2.6-6.3-.6-12.7-1-19.7-1.6 3.2 5.4 5.9 10.3 9.2 16.1m-73.4-124.8c-4 4.1-7.7 7.8-11.3 11.6-.8.8-1.6 2.2.3 2.4 6.4.7 12.9 1.1 20 1.6-3.2-5.4-5.9-10.2-9-15.6m-58.9 62.7a4.33 4.33 0 0 1 -.1 .5c3.6 2 7.1 4.2 10.7 6.1 2.5 1.3 5.4 4.6 7.5 3.5 1.8-.9 1.7-5.2 2.7-7.9.7-2 0-2.3-1.7-2.3-6.4.1-12.7.1-19.1.1m47.4-82.8a1.42 1.42 0 0 1 -.6 .2c0 4.2-.1 8.3.1 12.5.1 2.8-1.4 6.8.8 8 1.9 1 5.4-1.1 8.2-1.8.1 0 .2-.1.3-.1 1.3-.2 1.5-.8.8-1.9-3.2-5.7-6.4-11.3-9.6-16.9m96.2 164.4c.2-.1.3-.1.5-.2v-21c-3.2.8-6.2 1.7-9.2 2.4-1.5.3-1.6.9-.9 2.1 3.24 5.6 6.4 11.2 9.6 16.7m47-82.8a4.88 4.88 0 0 0 .3 -.7c-5.6-3.2-11.2-6.3-16.8-9.6-1.2-.7-1.6-.3-1.9.9-.6 2.5-1.2 5-2 7.5-.6 1.8.2 1.9 1.6 1.9m-126.3-29.2v-14.9c0-.7.4-1.6-.4-1.9a1.76 1.76 0 0 0 -2.2 .6c-2.6 2.7-5.2 5.3-7.9 7.9-1.1 1.1-.8 1.7.3 2.3 3.2 1.9 6.5 3.9 10.2 6m99.9 59.6v14.9c0 .7-.5 1.7.7 2.1a2.37 2.37 0 0 0 2.2 -.9c2.5-2.6 5.1-5.2 7.7-7.7 1-1 .9-1.6-.3-2.3-3.3-1.9-6.46-3.9-10.3-6.1m-49.1-87.9c4.8-2.8 9.1-5.4 13.5-7.9.5-.3.9-.6.8-1.2-.2-1-1-1.2-1.8-1.4-3.5-.9-7-1.8-10.5-2.9-1.5-.5-2.1-.1-2 1.5m-1.6 135v-4.3c.1-1.6-.1-2.5-2-1.3-3.7 2.3-7.5 4.4-11.2 6.6-.5.3-1.2.5-1.1 1.3s.7 1.2 1.5 1.4c2 .5 4 1.1 6 1.6 6.8 1.8 6.8 1.8 6.8-5.3m71.1-23.2c-6.8-4-6.7-4-8.7 3.6-.5 2 .2 2.4 1.8 2.5 6.1.4 12.3.9 18.9 1.4m-31.5-77.6c4.5 2.6 8.7 5 12.9 7.3.6.3 1.1 1.1 1.9.6a2 2 0 0 0 .5 -2.3c-.9-3.6-2-7.2-2.9-10.8-.3-1.2-.6-1.6-1.8-.9-3.4 2-6.8 3.9-10.6 6.1m-101.5 56.7c-4.7-2.6-8.8-5-12.9-7.3-.6-.3-1.2-1-2-.5s-.7 1.5-.5 2.3c.9 3.6 2 7.2 2.9 10.8.3 1.2.6 1.5 1.8.8 3.4-2.1 6.9-4 10.7-6.1m-32.56 17.6a2.18 2.18 0 0 0 .4 .5c5.7-3.2 11.5-6.5 17.2-9.7 1.3-.8.3-1.3-.2-1.9a54 54 0 0 1 -4.1 -4.2c-1.4-1.7-2.1-1.1-3.1.4-3.44 5-6.84 9.9-10.2 14.9m166.7-92c-.9 0-1.1-.1-1.3 0-3.5 2-7 3.9-10.5 5.9-7.4 4.2-7.3 4.1-1 9.9 1 .9 1.4.9 2.1-.2 3.36-5 6.86-10.1 10.66-15.6m-33.1-1.7v15.7c0 1.6.6 1.7 1.9 1 3.2-1.8 6.4-3.6 9.7-5.5-3.8-3.7-7.5-7.2-11.6-11.2m-132.1-.8c4.1 2.4 7.9 4.6 11.6 6.8 7.1 4.2 7 4.2 8.8-4 .3-1.4 0-1.9-1.4-2-6.1-.3-12.3-1.4-19-.8m30.7 19.9c-3.8-2.2-7.1-4.2-10.5-6.2-.5-.3-1.2-.5-1.4.4-1.3 4.7-2.6 9.4-4 14.7 5.6-3 10.5-5.8 15.9-8.9m.8 76.3c0-5.2-.1-10.2 0-15.1 0-2.1-.6-2.3-2.3-1.3-3 1.8-6.1 3.5-9.3 5.3 3.8 3.6 7.5 7.2 11.64 11.1m101.36-19c3.7 2.2 6.8 4.1 10 5.9.6.4 1.5 1.2 1.9-.2 1.3-4.7 2.6-9.4 4-14.7-5.6 3.1-10.5 5.9-15.9 9m-50.5 29.8v12c0 1.2.4 1.5 1.5 1.2 4.6-1.2 9.2-2.5 14.4-3.8-5.5-3.3-10.4-6.2-15.9-9.4m-17.1-126.3c5.5 3.2 10.5 6.2 15.9 9.3v-11.9c0-1.4-.6-1.5-1.7-1.2-4.6 1.2-9.1 2.4-14.2 3.8m14.8 163.2c.2 0 .3-.1.5-.1v-6.8c0-2.3.1-4.5.1-6.8 0-8 0-7.9-7.6-5.7-1.7.5-1.9 1-1.2 2.5 2.8 5.6 5.5 11.3 8.2 16.9m-74.1-110c2.3-1.6 5.8-2 6.8-4.5 1.8-4.4 2.7-9.2 4.1-14.2a4.77 4.77 0 0 0 -.8 .4c-2.8 2.8-5.6 5.5-8.4 8.3-4 4.1-4 4.1-1.7 10m77.6-80.6c-.3 0-.5.1-.8.1v13.6c0 8.2.4 8.4 8.2 5.3 1.3-.5 1.2-1.1.7-2.1-2.7-5.5-5.4-11.2-8.1-16.9m63.3 127.5c1.2.3 1.7-.5 2.3-1 2.8-2.7 5.6-5.5 8.4-8.3 1.6-1.6 1.8-5.9.3-7.6a1.27 1.27 0 0 0 -.7 -.4c-1.4-.1-6.6 3.9-7 5.5-1.1 3.8-2.2 7.7-3.3 11.8m-115.5 25.9c-.8-2.9 1.2-6-.9-8.5-2.9-3.5-6.3-6.5-9.5-9.7.4 4 1.6 7.6 2.2 11.4.6 4.5 3 6.7 7.4 7 0 0 .1-.1.8-.2m111.2-98.3a2.19 2.19 0 0 0 .5 -.3c-1.2-4.6-2.4-9.2-3.6-13.7-.6-2.3-4-4.5-6.3-4a.84 .84 0 0 0 -.7 .4c-.6.8-.2 7.3.5 8.1 3.2 3.1 6.4 6.3 9.6 9.5m-65.2-32.5v-.7c-5-1.4-10.1-2.7-15.1-4-1.1-.3-5.3 2.9-5.4 4 0 .2.1.7.3.8 2.6 1.2 4.6 4.1 8 3.3 4.1-1.2 8.2-2.3 12.2-3.4m8.8 145.3a1.7 1.7 0 0 1 -.1 .7c4.9 1.3 9.9 2.7 14.8 4 1.3.3 5.5-2.6 5.7-3.9a1.88 1.88 0 0 0 -.2 -.8c-2.6-1.2-4.5-4-7.7-3.3-4.16.9-8.4 2.2-12.5 3.3m-84.8-123.8a.9 .9 0 0 1 -.1 .5c5.9.5 11.8.9 17.6 1.4 1.1.1 2.3.4 2.7-1.2.5-2 1-3.9 1.6-6.3-7.5 1.9-14.66 3.8-21.8 5.6m160.9 102.2c-.1-.1-.1-.3-.2-.4-5.8-.5-11.5-.9-17.3-1.3-1.1-.1-2.4-.5-2.8 1.1-.5 2-1 4.1-1.6 6.5 7.6-2.1 14.7-4 21.9-5.9m-84.6 43.2c-1.9-4.1-3.9-8.2-5.8-12.3-2.4-5.1-2.4-5-7.9-3.5-1.9.5-2 1-.6 2.2 4.7 4.4 9.5 8.9 14.3 13.6m88-136.6c-.3-.1-.6-.3-.9-.4-2.2 3.1-4.3 6.2-6.5 9.3-4 5.8-4 5.8 1.3 10.6.1.1.4.1.7.2 1.9-6.6 3.6-13.2 5.4-19.7m-64.6-36.8c-1.6-2.8-12.2-13.2-14.7-14.2 1.7 3.7 3.3 7 4.9 10.4 3 6.3 3.1 6.3 9.7 4a.31 .31 0 0 1 .1 -.2m30.8 133.6c.1 4.9-.8 4.7 4.5 3.4 1.8-.5 4.9-6.1 4.1-8.1s-3.1-1-4.7-1.1c-3.1-.3-3.9 1.1-3.9 5.8m-100.2-108.9v-1.2c.3-2.5-.3-3.8-3.2-2.6-1.7.7-3.7.4-4.1 3-.3 1.8-.9 3.6-1.3 5.4-.1.6.3.8.9 1 5 1.8 7.7-.2 7.7-5.6m128 34.2c-1.1-1.7-3-3-4.4-4.7-1.1-1.3-2-1.7-2.9.2-.5.9-1.1 1.7-1.7 2.6a3 3 0 0 0 .6 4.4 39.19 39.19 0 0 0 5.6 3.3c.7.4 1.2.2 1.4-.5.5-1.8.9-3.4 1.4-5.3m-98.3 97.8c2.1-.5 4.3-1.1 6.5-1.7.5-.1 1-.6.6-1.2-1.4-2-1.2-5.3-4.5-5.7-.9-.1-7.2 2.9-7.6 3.7a.66 .66 0 0 0 -.1 .6c0 .7 4.1 4.2 5.1 4.3m41-155.2c-2.3.6-4.4 1.1-6.5 1.7-.3.1-.8.4-.8.7-.5 1.8 3.6 6.8 5.3 6.2a43.78 43.78 0 0 0 6.7 -3.7 .83 .83 0 0 0 .2 -.8c-1.6-1.3-2.7-3.4-4.9-4.1m29.5 156.6c.2 0 .5.1.7.1 1.8-6.5 3.5-13.1 5.4-20a25.08 25.08 0 0 1 -3.3 .8c-2.4.2-3 1.4-2.9 3.7.2 5.1.1 10.3.1 15.4m-100.2-157.9c-.2-.1-.5-.1-.7-.2q-2.7 9.75-5.4 19.8c6.1-.8 6.1-.8 6.1-6.3m-18.16 86.6c0-2.3-4.5-6.5-7-6.4-2.2.1-1.4 2.7-2.1 4.1-.1.2-.1.4-.2.6-.2 1.1 4.7 7.1 5.7 6.9.1 0 .2-.1.3-.1 1.3-1.8 2.66-3.4 3.3-5.1m119.4-100h-.6c0 5 .3 10-.1 15-.3 3.4 1.1 4.5 4 5 1.5.3 2 .1 1.6-1.4-1.64-6.2-3.24-12.4-4.94-18.6m-107.56 138c1.8 6.7 3.5 13.2 5.3 19.7.2 0 .4-.1.6-.1v-13.6c0-5 0-5-4.8-6.1-.24-.1-.44 0-1.14.1m99.04-141.5l-.3-.6c-5.4 1.4-10.7 2.7-16 4.2-.8.2-3-.1-2.2 1.5s2.1 4.2 4.1 3.2c4.86-2.5 9.6-5.6 14.36-8.3m-135.1 77.3c3.8-2.1 7.3-4 10.7-6 4.6-2.6 4.6-2.6 3.2-7.7 0-.1-.3-.2-.6-.5-4.4 4.6-8.7 9.2-13.3 14.2m133.4 88.4a3.55 3.55 0 0 1 .4 -.9l-10.8-6.3c-4-2.4-5.2-2-7.3 2.5 5.9 1.6 11.8 3.1 17.7 4.7m51.4-88c.1-.1.1-.3.2-.4-4.4-4.4-8.8-8.8-13.3-13.2 0 1.9-2.7 4.2-.5 5.8 4.3 2.9 9 5.2 13.6 7.8m.4 6.2a.76 .76 0 0 1 -.2 -.4h-16.1c-.9 0-2.5-.3-1.9 1.4.4 1.2-.3 3.8 2.2 3.2 5.4-1.3 10.7-2.8 16-4.2m-184.7-2.9c0 .2.1.5.1.7h16.3c1.2 0 1.9-.5 1.4-1.6s.3-3.8-2.3-3.2c-5.3 1.3-10.4 2.8-15.5 4.1m42.9 80.1c.1 0 .2.1.3.1 1.1-4.2 2.3-8.5 3.4-12.7s1.2-4.3-3.2-5.2c-.1 0-.3.2-.6.3.1 5.8.1 11.6.1 17.5m98.4-156.7h-.46c-1.3 5-2.7 9.9-4 14.9-.7 2.8 1.9 1.8 3 2.3 1.8.9 1.4-.8 1.4-1.7.06-5.2.06-10.3.06-15.5m-92.7-1.4c-.3.2-.6.5-.9.7 2.5 4.4 5 8.7 7.5 13.1.6 1.1 1.3 1 1.8.1.6-1.1 3.4-1.5 1.7-3.5-3.2-3.6-6.7-7-10.1-10.4m-3.6 157.4c1.2.1 1.3-.7 1.7-1.3 2.2-3.7 4.3-7.3 6.4-11 .4-.7 1.8-2-.2-2.3-1.2-.1-3.2-2.5-4 .4-1.4 4.7-2.6 9.5-3.9 14.2m94.1-155.5a2.35 2.35 0 0 0 -.8 -.2c-2.5 4.3-5 8.5-7.5 12.8-.4.7-1 1.8.4 1.8s3.2 2.2 3.9-.1c1.6-4.7 2.74-9.6 4-14.3m-3.6 156.9a2.59 2.59 0 0 0 -.4 -2.9l-5.7-9.9c-.4-.7-.9-2.5-2-.8-.8 1-3.5 1.5-1.6 3.7 3.1 3.3 6.3 6.6 9.7 9.9m-15.66-6.7c5 2.9 9.4 5.6 13.9 8.3.5-1.5-.6-2-1.3-2.7-2.3-2.4-4.8-4.6-7-7.1-1.5-1.6-2.5-1.8-3.8 0-.34.5-.94.8-1.8 1.5m63.3-68.3c-5 .2-9.6 1.6-14.2 3-1.8.6-.4 2.3-.3 3.4.1.7.4 1.5 1.4.9 4.36-2.4 8.66-4.9 13.06-7.3m-132.26-84.5c-.1.2-.2.5-.3.7 2.7 2.7 5.5 5.3 8 8.1 1.7 1.9 2.9 1.8 4.2-.1.3-.5 1-.7.9-1.6-4.24-2.1-8.14-5.3-12.8-7.1m-31.4 84c-3.5 10.1-4.5 8 3.1 11.7-1.14-4.1-2.14-7.9-3.14-11.7m142.2-19.5c1.2 4.4 2.2 8.2 3.4 12.8 3.4-9.3 3.4-9.3-3.4-12.8m-90.6 83.8c-4.3-1.2-8.3-2.2-12.6-3.4 5.8 7.7 6 7.8 12.6 3.4m55.1-132.7c-8.4-8.9-5.6-7.9-12.8-3.5 4.2 1.2 8.1 2.3 12.8 3.5m14.6 118.3c-2.4 2.4-5.1 5-7.6 7.4 7.2-.1 7.9-.8 7.6-7.4m-97.2-1.2c-1.3 5.7-.9 6.5 2.9 7.3.6.1 1.6 1.1 2-.3.3-.9.6-1.7-.3-2.5-1.5-1.4-3-2.9-4.6-4.5m97-104.2c1.4-6.5 1.1-7.4-2.6-8.1-.7-.1-1.6-.7-2.1.5a2.14 2.14 0 0 0 .4 2.5c1.4 1.5 2.64 3.1 4.3 5.1m-69.2-16.6c-5.5-4-5.6-4-8-1.4-.5.5-1.6.9-.9 2a2.08 2.08 0 0 0 2.6 1.1c1.9-.7 4-1.1 6.3-1.7m90.8 84.1c5.3-1.8 5.9-2.6 4.7-6-.2-.7-.2-1.7-1.4-1.6-.9.1-1.7.4-1.9 1.3-.5 2-1.5 4-1.4 6.3m-139.7-31.7c-6 2.5-6.2 2.7-5.1 6 .2.7.2 1.8 1.3 1.8a2.08 2.08 0 0 0 2.24 -1.8c.46-1.8 1-3.7 1.56-6m2.2 39.4c-4.1 4.6-3.9 5.2 2.6 9.8-.9-3.4-1.7-6.6-2.6-9.8m88.3 44.8c5.5 4 5.5 4 7.9 1.4.5-.6 1.6-1 1-2a2.2 2.2 0 0 0 -2.7 -1c-1.9.6-3.9 1-6.2 1.6m-34.2 1.9c1.8 5.5 3 5.8 9.5 2.5-3.2-.8-6.1-1.6-9.5-2.5m-47.7-110.8c2.1-1.9 4.4-3.9 6.7-6-5.2-1.6-5.7-1.1-6.7 6m122.3 80.2c-2.5 2.6-4.9 4.5-6.8 7.2 5.6 1 5 2.1 6.8-7.2" fill="#05bca9"/><g fill="#fff"><path d="m136.26 63.7c-3-2-6.7-2.8-8-6.7a3.91 3.91 0 0 1 .1 -3.5q3.9-6.45 7.5-12.9c1-1.7 1.6-1.4 2.9-.3 2.2 1.9 3 3.8 2 6.7-1.7 5.5-3 11.1-4.5 16.7"/><path d="m147.06 17.7c-.1 2.3-1.7 3.9-2.7 5.7-2.4 4.2-4.9 8.4-7.3 12.6-2.7-2.8-5.1-5.4-7.7-8.1 5.7-3.3 11.5-7.2 17.7-10.2"/><path d="m53.26 183.5c3.4-6 6.8-12.1 10.2-18.2 3.1 2.5 5.4 5.3 8.1 8.1-6.2 3.5-11.9 7.3-18.1 10.3"/></g><g fill="#05bca9"><path d="m113.36 30.2c-3.1-.1-5.8-1.4-8.8-2.1 5.2-3.7 7.7-3 8.8 2.1"/><path d="m165.86 68.2c.6.5 1.3 1 1.9 1.6 3.4 3.4 3.4 3.4.3 7.4-1.1-1.2-1-2.8-1.5-4.1a36.32 36.32 0 0 1 -1 -4.5 1.38 1.38 0 0 1 .3 -.4"/><path d="m53 183.9c.1-.1.2-.3.3-.4l.2.2"/><path d="m15.76 53.5c-.1-.3-.1-.5-.2-.8.3 0 .5.1.8.1-.2.2-.36.5-.6.7"/></g></svg>