<svg xmlns="http://www.w3.org/2000/svg" viewBox="0 0 116 116"><defs><linearGradient id="0" y1="-16.61" x2="0" y2="141.84" gradientUnits="userSpaceOnUse"><stop stop-color="#337a8d"/><stop offset="1" stop-color="#0f3653"/></linearGradient></defs><path fill="url(#0)" d="m0 0h116v116h-116z"/><path d="M30.4,58A27.6,27.6,0,1,1,83.2,69.2L65,51,51,65,69.2,83.2A27.18,27.18,0,0,1,58,85.6,27.66,27.66,0,0,1,30.4,58m74.7,0a46.43,46.43,0,0,0-7.6-25.6L116,13.9,102.1,0,83.6,18.5a46.92,46.92,0,0,0-51.2,0L13.9,0,0,13.9,18.5,32.4a46.92,46.92,0,0,0,0,51.2L0,102.1,13.9,116,32.4,97.5a46.92,46.92,0,0,0,51.2,0L102.1,116,116,102.1,97.5,83.6A46.43,46.43,0,0,0,105.1,58" fill="#fff"/></svg>