<?xml version="1.0" encoding="iso-8859-1"?>
<!-- Generator: Adobe Illustrator 16.0.0, SVG Export Plug-In . SVG Version: 6.00 Build 0)  -->
<!DOCTYPE svg PUBLIC "-//W3C//DTD SVG 1.1//EN" "http://www.w3.org/Graphics/SVG/1.1/DTD/svg11.dtd">
<svg xmlns="http://www.w3.org/2000/svg" xmlns:xlink="http://www.w3.org/1999/xlink" version="1.1" id="Layer_1" x="0px" y="0px" width="512px" height="512px" viewBox="0 0 611.998 611.998" style="enable-background:new 0 0 611.998 611.998;" xml:space="preserve">
<g>
	<g>
		<g>
			<path d="M511.181,330.909v-51.295h-79.514c28.385-29.725,45.876-69.94,45.876-114.161C477.543,74.28,403.411,0,312.238,0     C220.881,0,146.47,74.12,146.47,165.225l0.043,114.389h-45.696v51.295h45.716l0.019,51.295h-45.735V433.5h45.755l0.068,178.338     l51.295,0.16L197.868,433.5h313.313v-51.296H197.848l-0.019-51.295H511.181z M197.936,165.225     c0-62.82,51.229-113.876,114.302-113.876c62.889,0,113.969,51.216,113.969,114.104s-51.166,114.161-114.055,114.161H197.809     L197.936,165.225z" fill="#FFFFFF"/>
		</g>
	</g>
</g>
<g>
</g>
<g>
</g>
<g>
</g>
<g>
</g>
<g>
</g>
<g>
</g>
<g>
</g>
<g>
</g>
<g>
</g>
<g>
</g>
<g>
</g>
<g>
</g>
<g>
</g>
<g>
</g>
<g>
</g>
</svg>
