<?xml version="1.0" encoding="iso-8859-1"?>
<!-- Generator: Adobe Illustrator 19.0.0, SVG Export Plug-In . SVG Version: 6.00 Build 0)  -->
<svg xmlns="http://www.w3.org/2000/svg" xmlns:xlink="http://www.w3.org/1999/xlink" version="1.1" id="Layer_1" x="0px" y="0px" viewBox="0 0 330 330" style="enable-background:new 0 0 330 330;" xml:space="preserve" width="512px" height="512px">
<g id="XMLID_231_">
	<path id="XMLID_232_" d="M270,151.505V62.576c17.458,6.192,30,22.865,30,42.419c0,8.284,6.716,15,15,15c8.284,0,15-6.716,15-15   c0-36.219-25.808-66.522-60-73.491v-16.5c0-8.284-6.716-15-15-15c-8.284,0-15,6.716-15,15v16.5c-34.192,6.968-60,37.271-60,73.491   s25.808,66.522,60,73.491v88.929c-17.459-6.192-30-22.865-30-42.42c0-8.284-6.716-15-15-15c-8.284,0-15,6.716-15,15   c0,36.219,25.808,66.523,60,73.491v16.509c0,8.284,6.716,15,15,15c8.284,0,15-6.716,15-15v-16.509   c34.192-6.969,60-37.271,60-73.491S304.192,158.473,270,151.505z M210,104.996c0-19.555,12.541-36.228,30-42.419v84.839   C222.541,141.223,210,124.55,210,104.996z M270,267.415v-84.839c17.458,6.192,30,22.865,30,42.419   C300,244.55,287.458,261.223,270,267.415z" fill="#FFFFFF"/>
	<path id="XMLID_237_" d="M75,59.996c24.813,0,45,20.187,45,45c0,8.284,6.716,15,15,15c8.284,0,15-6.716,15-15   c0-41.355-33.645-75-75-75s-75,33.645-75,75s33.645,75,75,75c24.813,0,45,20.187,45,45s-20.187,45-45.001,45   c-24.813,0-44.999-20.187-44.999-45c0-8.284-6.716-15-15-15c-8.284,0-15,6.716-15,15c0,41.355,33.644,75,74.999,75   c41.356,0,75.001-33.645,75.001-75s-33.645-75-75-75c-24.813,0-45-20.187-45-45S50.187,59.996,75,59.996z" fill="#FFFFFF"/>
</g>
<g>
</g>
<g>
</g>
<g>
</g>
<g>
</g>
<g>
</g>
<g>
</g>
<g>
</g>
<g>
</g>
<g>
</g>
<g>
</g>
<g>
</g>
<g>
</g>
<g>
</g>
<g>
</g>
<g>
</g>
</svg>
