<?xml version="1.0" encoding="utf-8"?>
<!-- Generator: Adobe Illustrator 19.2.1, SVG Export Plug-In . SVG Version: 6.00 Build 0)  -->
<svg version="1.1" id="Layer_1" xmlns="http://www.w3.org/2000/svg" xmlns:xlink="http://www.w3.org/1999/xlink" x="0px" y="0px"
	 viewBox="0 0 22 25" style="enable-background:new 0 0 22 25;" xml:space="preserve">
<style type="text/css">
	.st0{fill:url(#SVGID_1_);}
	.st1{fill:url(#SVGID_2_);}
	.st2{fill:url(#SVGID_3_);}
	.st3{fill:url(#SVGID_4_);}
	.st4{fill:url(#SVGID_5_);}
	.st5{fill:none;}
	.st6{fill:#FFFFFF;}
</style>
<title>shapeshift</title>
<linearGradient id="SVGID_1_" gradientUnits="userSpaceOnUse" x1="12.6371" y1="-47.5201" x2="10.0771" y2="58.7099" gradientTransform="matrix(1 0 0 -1 0 26)">
	<stop  offset="0.25" style="stop-color:#20344C"/>
	<stop  offset="0.41" style="stop-color:#273D57"/>
	<stop  offset="0.67" style="stop-color:#395373"/>
	<stop  offset="1" style="stop-color:#54769E"/>
</linearGradient>
<polygon class="st0" points="0.1,15.3 1.7,9.8 0,0 7.1,3 14.9,3 22,0 20.3,9.8 21.9,15.3 15.3,20.4 11,25 6.7,20.3 "/>
<linearGradient id="SVGID_2_" gradientUnits="userSpaceOnUse" x1="22.195" y1="1338.7815" x2="-0.8549" y2="1325.4816" gradientTransform="matrix(1 0 0 1 0 -1324)">
	<stop  offset="0" style="stop-color:#54769E"/>
	<stop  offset="0.48" style="stop-color:#53749C"/>
	<stop  offset="0.69" style="stop-color:#4F6F95"/>
	<stop  offset="0.84" style="stop-color:#486588"/>
	<stop  offset="0.91" style="stop-color:#435F80"/>
</linearGradient>
<polygon class="st1" points="22,0 15.9,3.3 11.2,4.3 11,16.8 10.8,4.3 6.1,3.3 0,0 2.1,9.8 0.1,15.3 7.1,19.7 9,21.9 12.9,21.8 
	14.9,19.7 21.9,15.3 19.9,9.8 "/>
<linearGradient id="SVGID_3_" gradientUnits="userSpaceOnUse" x1="15.3492" y1="1321.3992" x2="-3.5608" y2="1339.7592" gradientTransform="matrix(1 0 0 1 0 -1324)">
	<stop  offset="0.25" style="stop-color:#54769E"/>
	<stop  offset="0.41" style="stop-color:#4D6E93"/>
	<stop  offset="0.68" style="stop-color:#3C5777"/>
	<stop  offset="1" style="stop-color:#22364E"/>
</linearGradient>
<polygon class="st2" points="2.1,9.8 1.8,10.8 9.1,3.9 "/>
<linearGradient id="SVGID_4_" gradientUnits="userSpaceOnUse" x1="8.4107" y1="1323.8792" x2="24.1607" y2="1337.9292" gradientTransform="matrix(1 0 0 1 0 -1324)">
	<stop  offset="0.25" style="stop-color:#54769E"/>
	<stop  offset="0.41" style="stop-color:#4D6E93"/>
	<stop  offset="0.68" style="stop-color:#3C5777"/>
	<stop  offset="1" style="stop-color:#22364E"/>
</linearGradient>
<polygon class="st3" points="19.9,9.8 12.9,3.9 20.2,10.7 "/>
<linearGradient id="SVGID_5_" gradientUnits="userSpaceOnUse" x1="6.4216" y1="1316.1182" x2="26.5316" y2="1334.0482" gradientTransform="matrix(1 0 0 1 0 -1324)">
	<stop  offset="0.46" style="stop-color:#54769E;stop-opacity:0"/>
	<stop  offset="0.57" style="stop-color:#52739A;stop-opacity:0.22"/>
	<stop  offset="0.68" style="stop-color:#4A698E;stop-opacity:0.43"/>
	<stop  offset="0.78" style="stop-color:#3D597B;stop-opacity:0.64"/>
	<stop  offset="0.89" style="stop-color:#2C435F;stop-opacity:0.84"/>
	<stop  offset="0.97" style="stop-color:#1B2E45"/>
</linearGradient>
<polygon class="st4" points="19.9,9.8 22,0 15.9,3.3 12.9,3.9 "/>
<path class="st5" d="M4.1,4.3"/>
<path class="st5" d="M3.8,4.3"/>
<polygon class="st6" points="11,24 9.1,21.9 11,19.7 12.9,21.9 "/>
</svg>
