<?xml version="1.0" encoding="utf-8"?>
<!-- Svg Vector Icons : http://www.onlinewebfonts.com/icon -->
<!DOCTYPE svg PUBLIC "-//W3C//DTD SVG 1.1//EN" "http://www.w3.org/Graphics/SVG/1.1/DTD/svg11.dtd">
<svg version="1.1" xmlns="http://www.w3.org/2000/svg" xmlns:xlink="http://www.w3.org/1999/xlink" x="0px" y="0px" viewBox="0 0 1000 1000" enable-background="new 0 0 1000 1000" xml:space="preserve">
<metadata> Svg Vector Icons : http://www.onlinewebfonts.com/icon </metadata>
<g><g transform="translate(0.000000,511.000000) scale(0.100000,-0.100000)"><path d="M5722.6,4993.2c-440.3-79.8-1012.7-349.5-1298.9-610.9c-346.7-319.2-558.6-776.1-685.2-1480.5c-24.8-129.3-79.8-536.6-126.6-908.1c-107.3-880.6-225.7-1304.4-368.7-1334.7c-30.3-5.5-206.4-16.5-390.8-19.3c-319.2-8.2-338.5-11-539.4-112.8c-495.4-242.2-605.4-693.5-247.7-1015.5c181.6-162.3,522.9-222.9,927.4-159.6c319.2,49.5,316.5,52.3,316.5-368.7c0-305.5-44-993.5-71.5-1136.6c-13.8-68.8-176.1-126.6-451.3-159.6c-206.4-27.5-291.7-66-533.9-247.7c-415.6-313.7-657.7-798.1-660.5-1320.9c-2.8-217.4,5.5-264.2,71.5-388c96.3-184.4,316.5-377,511.8-454.1c233.9-90.8,544.9-88.1,754,8.2c272.5,126.6,528.4,311,861.4,619.2c176.1,162.4,349.5,311,379.8,330.2c93.6,52.3,170.6,44,489.9-60.5c864.1-277.9,1480.5-396.3,2198.8-418.3c721-19.3,1045.7,57.8,1331.9,322c159.6,145.8,220.2,327.5,217.4,646.7c-5.5,311-46.8,421-198.1,500.9c-233.9,121.1-410,82.6-872.3-195.4c-112.8-68.8-195.4-99.1-269.7-99.1c-63.3,0-368.8,88.1-715.5,203.7c-335.7,112.8-759.5,250.4-943.9,302.7c-451.3,132.1-743,266.9-778.8,360.5c-38.5,99.1-35.8,1161.3,2.8,1387c33,200.9,77.1,286.2,165.1,335.7c33,16.5,275.2,41.3,539.4,55c536.6,24.8,635.7,55,743,211.9c33,52.3,68.8,145.9,79.8,214.7c38.5,258.7-49.6,429.3-305.5,602.7c-225.7,151.3-418.3,211.9-729.3,225.7c-143.1,8.2-277.9,27.5-299.9,44c-82.6,68.8,24.8,1417.2,148.6,1890.6C5197,3606.2,5673,3975,6341.7,3826.3c363.3-79.8,478.8-225.7,710-908.1c222.9-649.4,363.3-897.1,583.4-1010c162.4-82.6,280.7-68.8,363.3,38.5c181.6,239.4,211.9,602.7,85.3,1106.3c-176.1,710-470.6,1263.1-831.1,1563.1c-151.4,123.8-454.1,272.4-682.5,335.7C6374.8,5004.2,5909.7,5028.9,5722.6,4993.2z"/></g></g>
</svg>