<?xml version="1.0" encoding="utf-8"?>
<!-- Svg Vector Icons : http://www.onlinewebfonts.com/icon -->
<!DOCTYPE svg PUBLIC "-//W3C//DTD SVG 1.1//EN" "http://www.w3.org/Graphics/SVG/1.1/DTD/svg11.dtd">
<svg version="1.1" xmlns="http://www.w3.org/2000/svg" xmlns:xlink="http://www.w3.org/1999/xlink" x="0px" y="0px" viewBox="0 0 1000 1000" enable-background="new 0 0 1000 1000" xml:space="preserve">
<metadata> Svg Vector Icons : http://www.onlinewebfonts.com/icon </metadata>
<g><g transform="translate(0.000000,511.000000) scale(0.100000,-0.100000)"><path d="M100,175.6v-3810.1h2155.3h2155.3v408.6v408.6H2735.4H1060.2V584.1v3401.5H580.1H100V175.6z"/><path d="M7262.5,2114.3c-1189-214.5-2047-1291.1-2134.9-2678.3c-40.8-659.9,67.4-1270.7,314.6-1767.1c143-286,267.6-459.7,498.5-690.5c373.8-373.8,749.7-576.1,1291.1-698.7c183.9-40.9,265.6-47,610.8-45c439.2,0,623.1,28.6,996.9,153.2c187.9,63.3,706.9,310.5,794.7,380l45,36.8l-165.5,308.5l-165.5,306.4l-155.3-87.8c-888.7-506.7-1893.8-457.6-2510.7,124.6c-349.4,328.9-553.7,792.6-625.2,1428l-12.2,96H7953c1687.5,0,1910.1,4.1,1920.4,30.6c26.6,73.5,36.8,588.4,14.3,837.6c-53.1,592.5-198.1,1041.9-457.6,1430c-120.5,181.8-410.6,453.5-602.7,570C8408.6,2097.9,7773.2,2206.2,7262.5,2114.3z M8026.5,1358.4c420.8-98.1,743.6-402.4,900.9-845.8C9005.1,292,9046,77.5,9062.3-184l12.2-222.7H7556.7H6038.8l14.3,120.5c18.4,161.4,100.1,461.7,175.7,643.5c167.5,398.4,518.9,772.2,868.2,921.4C7358.5,1389,7752.8,1423.8,8026.5,1358.4z"/></g></g>
</svg>