<?xml version="1.0" encoding="utf-8"?>
<!-- Svg Vector Icons : http://www.onlinewebfonts.com/icon -->
<!DOCTYPE svg PUBLIC "-//W3C//DTD SVG 1.1//EN" "http://www.w3.org/Graphics/SVG/1.1/DTD/svg11.dtd">
<svg version="1.1" xmlns="http://www.w3.org/2000/svg" xmlns:xlink="http://www.w3.org/1999/xlink" x="0px" y="0px" viewBox="0 0 1000 1000" enable-background="new 0 0 1000 1000" xml:space="preserve">
<metadata> Svg Vector Icons : http://www.onlinewebfonts.com/icon </metadata>
<g><g transform="translate(0.000000,512.000000) scale(0.100000,-0.100000)"><path d="M4883.2,4964.5l-55.5-55.5v-777.1v-777.1h-166.5c-214.4,0-375.1-38.3-580-137.8c-227.8-109.1-457.5-338.8-570.4-570.4c-109.1-220.1-139.7-352.2-139.7-593.4c0-239.3,30.6-369.4,137.8-593.4c78.5-162.7,82.3-164.6,1318.8-1406.8c681.4-683.3,1267.1-1286.2,1301.6-1336c185.7-279.5,202.9-662.3,44-978.1c-67-132.1-252.6-319.6-386.6-392.4c-216.3-114.8-239.3-116.7-1307.3-116.7c-669.9,0-985.8-5.7-1016.4-21c-103.4-47.9-126.3-193.3-42.1-275.6l45.9-47.9h681.4h679.5v-777.1V-4669l55.5-55.5c38.3-38.3,74.6-55.5,116.8-55.5c42.1,0,78.5,17.2,116.8,55.5l55.5,55.5v777.1v777.1h168.4c350.3,0,643.1,122.5,895.8,373.2c269.9,268,392.4,557,392.4,928.3c0,239.3-30.6,371.3-137.8,593.4c-78.5,162.7-82.3,164.6-1318.8,1406.8c-681.4,685.2-1267.1,1286.3-1301.6,1336c-139.7,208.6-193.3,537.9-124.4,771.4c97.6,342.6,357.9,601,689.1,687.1c93.8,23,273.7,28.7,1085.3,28.7c669.9,0,985.7,5.7,1016.4,21.1c103.4,47.9,126.3,193.3,42.1,275.6l-45.9,47.9h-681.4h-679.5v777.1V4909l-55.5,55.5c-38.3,38.3-74.7,55.5-116.8,55.5C4957.9,5020,4921.5,5002.8,4883.2,4964.5z"/></g></g>
</svg>