<?xml version="1.0" encoding="utf-8"?>
<!-- Svg Vector Icons : http://www.onlinewebfonts.com/icon -->
<!DOCTYPE svg PUBLIC "-//W3C//DTD SVG 1.1//EN" "http://www.w3.org/Graphics/SVG/1.1/DTD/svg11.dtd">
<svg version="1.1" xmlns="http://www.w3.org/2000/svg" xmlns:xlink="http://www.w3.org/1999/xlink" x="0px" y="0px" viewBox="0 0 1000 1000" enable-background="new 0 0 1000 1000" xml:space="preserve">
<metadata> Svg Vector Icons : http://www.onlinewebfonts.com/icon </metadata>
<g><g><path d="M780.1,582c-11.5-12.5-25.3-18.8-41.4-18.8c-18.8,0-32.5,6.2-41,18.5c-8.5,12.4-15.7,28.4-21.4,48c-13.6,41.7-33.9,73.2-60.8,94.8c-24.4,19.5-53.7,30.1-88,31.9l121.2-460.1c8.2,11.9,15.8,25.3,23,40.3c10.6,22.4,20.3,38.1,28.9,47.3c8.6,9.1,21.6,13.7,38.9,13.7c15.5,0,28.7-6.6,39.6-19.8c10.9-13.2,16.4-28.5,16.4-45.7c0-31.5-11.2-64.9-33.7-100.4c-18.6-29.3-44-54.6-76-76.1l25.8-97.9c4.2-16-5.3-32.4-21.4-36.6c-16-4.2-32.4,5.3-36.6,21.3l-22.2,84.1c-17.9-7.1-36.7-12.2-56.4-15.6l16.6-63.2c4.2-16-5.3-32.4-21.3-36.6c-16-4.2-32.4,5.3-36.6,21.3l-19.6,74.1c-41.9,0.8-81.5,9.5-118.8,26.3c-39.1,17.6-73.3,43.3-102.4,77C264,243.4,241.6,284,226,331.4c-15.6,47.4-23.5,101.1-23.5,161.1c0,36.9,3.1,71.8,9.3,104.7c6.2,32.9,15.5,63.8,28,92.7c12.4,29,27.4,55.2,45.1,78.5c13.4,17.5,27.8,32.5,43,45.4L294,942.4c-4.2,16,5.3,32.4,21.3,36.6c2.6,0.7,5.1,1,7.7,1c13.3,0,25.4-8.9,29-22.4l28.9-109.6c14.9,7.1,30.7,13,47.4,17.3c2.6,0.7,5.4,1.2,8.1,1.8l-22.4,85.2c-4.2,16,5.3,32.4,21.3,36.6c2.6,0.7,5.1,1,7.7,1c13.3,0,25.4-8.9,29-22.3l24.2-91.9c9.2,0.6,18.5,0.9,28.2,0.9c46.4,0,87.1-8.3,122-24.9c34.9-16.6,63.6-38.2,86-64.8c22.4-26.6,38.9-53.7,49.4-81.3c10.5-27.6,15.7-53.3,15.7-77C797.4,610.1,791.6,594.5,780.1,582z M363.9,644.7C349.3,606.2,342,558,342,500.1c0-86.7,16.5-153.6,49.4-200.7c24.4-35,53.8-58.3,90-68L369.1,657.5C367.3,653.4,365.6,649.1,363.9,644.7z M423.3,728.3c-3.1-2.2-6.1-4.6-9-7l130.1-493.6c20.7,2.6,39.3,9,55.5,19.2L467.3,749.8C451.5,745.1,436.8,737.9,423.3,728.3z"/></g><g></g><g></g><g></g><g></g><g></g><g></g><g></g><g></g><g></g><g></g><g></g><g></g><g></g><g></g><g></g></g>
</svg>