<?xml version="1.0" encoding="utf-8"?>
<!-- Svg Vector Icons : http://www.onlinewebfonts.com/icon -->
<!DOCTYPE svg PUBLIC "-//W3C//DTD SVG 1.1//EN" "http://www.w3.org/Graphics/SVG/1.1/DTD/svg11.dtd">
<svg version="1.1" xmlns="http://www.w3.org/2000/svg" xmlns:xlink="http://www.w3.org/1999/xlink" x="0px" y="0px" viewBox="0 0 1000 1000" enable-background="new 0 0 1000 1000" xml:space="preserve">
<metadata> Svg Vector Icons : http://www.onlinewebfonts.com/icon </metadata>
<g><g transform="translate(0.000000,512.000000) scale(0.100000,-0.100000)"><path d="M5248.3,5000.6c-368-40.2-854.8-203.2-1173-391c-730.2-431.2-1230.5-1098.2-1435.6-1912.8c-78.6-316.2-95.8-536.7-95.8-1286.1V734.2l-379.5-7.7l-379.5-5.8l-126.5-63.2C1440,550.1,1326.9,366.2,1326.9,117c0-124.6,9.6-162.9,63.2-272.2c69-139.9,151.4-218.5,304.8-289.4c84.3-38.3,126.5-42.2,469.6-47.9l379.5-5.8l3.8-1920.4l5.7-1920.5l65.2-120.7c70.9-130.3,159.1-210.8,302.8-277.9l92-42.2h2597h2597l92,42.2c153.3,70.9,235.7,149.5,304.8,289.4c53.7,109.3,63.2,147.6,63.2,272.2c0,249.2-113.1,433.2-331.6,540.5l-128.4,63.3l-2217.5,5.7l-2219.5,3.8v1533.3v1531.4l992.8,5.8l990.9,5.8l107.3,49.8c226.2,105.4,352.7,306.7,352.7,553.9c-1.9,247.2-115,435.1-331.6,540.5l-128.4,63.2l-992.8,5.8l-992.8,5.7l7.7,760.9c7.7,828,9.6,841.4,128.4,1153.8c122.7,316.2,387.2,638.2,691.9,843.3c481.1,322,1094.4,392.9,1652.1,191.7c563.5-205.1,1017.7-720.7,1155.7-1314.8c15.3-69,34.5-222.3,44.1-341.2c24.9-341.2,113.1-496.4,343.1-609.5c109.2-53.7,147.6-63.3,272.2-63.3c124.6,0,162.9,9.6,272.2,63.3c143.7,70.9,210.8,139.9,279.8,287.5c59.4,132.3,70.9,274.1,42.2,552C8481.7,3969.4,6963.7,5190.3,5248.3,5000.6z"/></g></g>
</svg>