<?xml version="1.0" encoding="iso-8859-1"?>
<!-- Generator: Adobe Illustrator 18.0.0, SVG Export Plug-In . SVG Version: 6.00 Build 0)  -->
<!DOCTYPE svg PUBLIC "-//W3C//DTD SVG 1.1//EN" "http://www.w3.org/Graphics/SVG/1.1/DTD/svg11.dtd">
<svg xmlns="http://www.w3.org/2000/svg" xmlns:xlink="http://www.w3.org/1999/xlink" version="1.1" id="Capa_1" x="0px" y="0px" viewBox="0 0 220 220" style="enable-background:new 0 0 220 220;" xml:space="preserve" width="512px" height="512px">
<g>
	<path d="M110,0C49.346,0,0,49.346,0,110s49.346,110,110,110s110-49.346,110-110S170.654,0,110,0z M110,210   c-55.14,0-100-44.86-100-100S54.86,10,110,10s100,44.86,100,100S165.14,210,110,210z" fill="#FFFFFF"/>
	<path d="M110,19.5c-49.902,0-90.5,40.598-90.5,90.5s40.598,90.5,90.5,90.5s90.5-40.598,90.5-90.5S159.902,19.5,110,19.5z    M110,197.5c-48.248,0-87.5-39.252-87.5-87.5S61.752,22.5,110,22.5s87.5,39.252,87.5,87.5S158.248,197.5,110,197.5z" fill="#FFFFFF"/>
	<path d="M147.623,86.373c0-15.321-11.914-27.902-26.962-28.989v12.06c8.419,1.046,14.962,8.232,14.962,16.929   s-6.542,15.883-14.962,16.929v12.29c8.419,1.046,14.962,8.232,14.962,16.929s-6.542,15.883-14.962,16.929v12.06   c15.048-1.087,26.962-13.668,26.962-28.989c0-9.391-4.475-17.755-11.404-23.074C143.148,104.128,147.623,95.764,147.623,86.373z" fill="#FFFFFF"/>
	<polygon points="104.661,149.595 95.699,149.595 95.699,115.447 104.661,115.447 104.661,103.447 95.699,103.447 95.699,69.299    104.661,69.299 104.661,57.299 83.699,57.299 83.699,161.595 104.661,161.595  " fill="#FFFFFF"/>
	<rect x="107.661" y="50.564" width="10" height="118.871" fill="#FFFFFF"/>
</g>
<g>
</g>
<g>
</g>
<g>
</g>
<g>
</g>
<g>
</g>
<g>
</g>
<g>
</g>
<g>
</g>
<g>
</g>
<g>
</g>
<g>
</g>
<g>
</g>
<g>
</g>
<g>
</g>
<g>
</g>
</svg>
