<?xml version="1.0" encoding="utf-8"?>
<!-- Svg Vector Icons : http://www.onlinewebfonts.com/icon -->
<!DOCTYPE svg PUBLIC "-//W3C//DTD SVG 1.1//EN" "http://www.w3.org/Graphics/SVG/1.1/DTD/svg11.dtd">
<svg version="1.1" xmlns="http://www.w3.org/2000/svg" xmlns:xlink="http://www.w3.org/1999/xlink" x="0px" y="0px" viewBox="0 0 1000 1000" enable-background="new 0 0 1000 1000" xml:space="preserve">
<metadata> Svg Vector Icons : http://www.onlinewebfonts.com/icon </metadata>
<g><g transform="translate(0.000000,511.000000) scale(0.100000,-0.100000)"><path d="M1694.2,3011.2C1169.6,2896.9,745,2596.8,545,2196.7c-126.6-251.1-165.3-440.9-151.1-716.5c26.5-528.7,265.4-900.2,781.8-1214.5c67.4-40.8,402.1-198,745.1-347c730.8-320.5,845.1-375.6,1010.4-494c214.3-151,316.4-310.2,357.2-553.2c81.6-491.9-226.6-908.3-769.6-1039c-210.2-51-620.5-47-847.1,8.2c-355.2,87.8-749.1,298-1016.5,547.1L534.8-1502l-216.4-249L100-2002.1l98-87.8c369.5-334.8,738.9-536.9,1210.5-661.4c206.2-55.1,277.6-63.3,592-71.4c406.2-12.2,626.7,16.3,912.4,114.3c269.4,93.9,463.4,214.3,669.5,420.5c314.4,312.3,443,626.7,443,1081.9c-2,649.1-287.8,1069.6-953.3,1402.3c-100,51-404.2,187.8-673.6,302.1c-616.5,263.3-849.2,379.7-992,496c-365.4,298-402.1,810.4-81.7,1134.9c202.1,206.2,457.2,296,849.2,296c277.6-2,510.3-49,732.8-149c147-65.3,406.2-238.8,481.7-318.4c26.5-28.6,57.2-51,69.4-49c20.4,0,226.6,238.8,349.1,400.1l38.8,53.1l-126.6,114.3c-249,226.6-612.4,416.4-975.7,514.4C2506.6,3054,1937.1,3064.3,1694.2,3011.2z"/><path d="M5143.9,110.6v-2837.3h338.9h338.9l-10.2,1894.3c-8.2,1667.7-14.3,1953.5-51,2402.5c-22.5,281.7-36.8,514.4-32.7,518.5c20.4,22.5,53.1-53.1,212.3-508.3c91.9-263.3,430.7-1186,749.2-2051.4c320.5-865.5,592-1598.3,602.2-1628.9l20.4-57.2l206.2,6.1l206.2,6.1l424.6,1153.3c232.7,634.8,581.7,1588.1,775.7,2118.8c191.8,528.7,359.3,963.5,369.5,963.5c12.2,0,14.3-57.1,6.1-147c-65.3-728.7-73.5-1055.3-73.5-2837.3v-1833h336.8H9900V110.6v2837.3h-426.6h-426.6l-30.6-85.7c-16.3-49-277.6-781.8-581.7-1628.9C8132.3,386.1,7811.8-522.2,7724-781.4c-89.8-261.3-171.5-475.6-183.7-475.6c-14.3,0-95.9,200-183.7,445c-87.8,242.9-426.6,1188-755.3,2096.3l-596,1653.4l-430.7,6.1l-430.7,4.1V110.6z"/></g></g>
</svg>