<?xml version="1.0" encoding="utf-8"?>
<!-- Svg Vector Icons : http://www.onlinewebfonts.com/icon -->
<!DOCTYPE svg PUBLIC "-//W3C//DTD SVG 1.1//EN" "http://www.w3.org/Graphics/SVG/1.1/DTD/svg11.dtd">
<svg version="1.1" xmlns="http://www.w3.org/2000/svg" xmlns:xlink="http://www.w3.org/1999/xlink" x="0px" y="0px" viewBox="0 0 1000 1000" enable-background="new 0 0 1000 1000" xml:space="preserve">
<metadata> Svg Vector Icons : http://www.onlinewebfonts.com/icon </metadata>
<g><g transform="translate(0.000000,511.000000) scale(0.100000,-0.100000)"><path d="M8585,1306.6c267.7-255.5,437.4-478.3,566.1-739.9c159.4-327,198.3-613.1,112.4-821.6c-77.7-186-353.6-378.1-645.8-451.7c-171.7-42.9-398.6-28.6-639.7,40.9c-98.1,30.7-181.9,53.1-188,53.1c-6.1,0-10.2-126.7-10.2-284.1v-282l149.2-42.9c304.5-89.9,678.6-96.1,1003.5-12.3c222.8,55.2,484.4,198.3,623.4,335.2c235,237.1,365.8,607,341.3,966.7c-28.6,398.5-298.4,934-649.9,1281.5L9083.6,1513H8726h-357.7L8585,1306.6z"/><path d="M1893.5,1114.5v-235h235h235v235v235h-235h-235V1114.5z"/><path d="M2690.6,1114.5v-235h235h235v235v235h-235h-235V1114.5z"/><path d="M4673.1,928.5c0-6.1,14.3-69.5,32.7-139c75.6-290.2-16.4-639.7-228.9-868.6c-188-204.4-506.9-341.3-1050.5-451.7c-1013.7-204.4-1720.9-206.4-2225.7-6.1c-273.9,108.3-470.1,277.9-515,443.5C636.6,86.5,704,470.7,818.5,671l51.1,87.9l-290.2-6.1l-290.2-6.1l-67.4-134.9C64.3,297,58.2-156.8,211.5-469.5C276.9-606.4,489.4-821,652.9-917.1c494.6-290.2,1271.2-390.4,2170.5-275.9c868.6,108.3,1451.1,273.9,1823.1,519.1c296.4,194.2,468,402.6,574.3,701c49.1,132.9,53.1,173.7,51.1,433.3c0,157.4-10.2,327-20.4,378.1l-18.4,92l-280,6.1C4799.8,938.7,4673.1,936.7,4673.1,928.5z"/><path d="M6441-477.6c-81.8-34.7-183.9-153.3-214.6-249.3c-57.2-173.7,28.6-398.5,183.9-480.3c85.9-47,263.7-51.1,343.4-10.2c73.6,38.8,159.4,132.9,186,202.3c55.2,145.1,10.2,376.1-92,466C6737.3-451.1,6567.7-422.5,6441-477.6z"/></g></g>
</svg>