<?xml version="1.0" encoding="utf-8"?>
<!-- Svg Vector Icons : http://www.onlinewebfonts.com/icon -->
<!DOCTYPE svg PUBLIC "-//W3C//DTD SVG 1.1//EN" "http://www.w3.org/Graphics/SVG/1.1/DTD/svg11.dtd">
<svg version="1.1" xmlns="http://www.w3.org/2000/svg" xmlns:xlink="http://www.w3.org/1999/xlink" x="0px" y="0px" viewBox="0 0 1000 1000" enable-background="new 0 0 1000 1000" xml:space="preserve">
<metadata> Svg Vector Icons : http://www.onlinewebfonts.com/icon </metadata>
<g><g transform="translate(0.000000,511.000000) scale(0.100000,-0.100000)"><path d="M100.2,3986.4c4.1-14.3,530-1655.5,1166.4-3648.5C1903-1655.3,2453.5-3370.1,2486.2-3474.4l63.4-188.3l562.7,4.1l564.8,6.1l714.2,2250.9c390.8,1238,933.1,2946.7,1203.2,3797.9c268.1,849.2,495.2,1561.3,503.4,1579.7c12.3,32.7-22.5,34.8-485,30.7l-497.2-6.1l-589.3-1984.9C4201,925.1,3812.2-407,3658.7-941.1c-241.5-847.2-409.3-1422.2-480.9-1651.4c-12.3-36.8-34.8-67.5-49.1-67.5c-38.9,0-86,145.3-558.6,1790.5c-110.5,382.7-480.9,1637-822.6,2789.1l-622.1,2091.3H607.7C204.6,4010.9,94.1,4004.8,100.2,3986.4z"/><path d="M7366.6,3116.7c-71.6-1002.7-79.8-1094.8-102.3-1100.9c-12.3-4.1-212.8-18.4-446.1-32.7l-425.6-24.5v-354v-356.1H6810h419.5l8.2-1763.9c6.1-1555.2,10.2-1788.4,43-1958.3c40.9-233.3,114.6-460.4,202.6-626.2c83.9-157.6,292.6-378.6,446.1-470.7c433.8-264,1100.9-292.6,1788.5-75.7c102.3,32.8,184.2,67.5,182.1,77.8c-2.1,10.2-40.9,171.9-90,358.1l-85.9,339.7l-182.1-59.3c-251.7-79.8-429.7-102.3-624.1-77.8c-374.5,47.1-585.2,249.6-677.3,654.8c-32.7,139.1-36.8,321.3-36.8,1872.4v1718.9l763.3,6.1l761.2,4.1v388.8V2026h-767.4h-767.4v787.8v787.8h-394.9h-397L7366.6,3116.7z"/></g></g>
</svg>