<?xml version="1.0" encoding="utf-8"?>
<!-- Svg Vector Icons : http://www.onlinewebfonts.com/icon -->
<!DOCTYPE svg PUBLIC "-//W3C//DTD SVG 1.1//EN" "http://www.w3.org/Graphics/SVG/1.1/DTD/svg11.dtd">
<svg version="1.1" xmlns="http://www.w3.org/2000/svg" xmlns:xlink="http://www.w3.org/1999/xlink" x="0px" y="0px" viewBox="0 0 1000 1000" enable-background="new 0 0 1000 1000" xml:space="preserve">
<metadata> Svg Vector Icons : http://www.onlinewebfonts.com/icon </metadata>
<g><g transform="translate(0.000000,511.000000) scale(0.100000,-0.100000)"><path d="M4780.3,5000.9c-8.4-8.3-14.6-256.8-14.6-553.3v-536.6l-192.1-14.6c-106.5-6.3-250.6-23-319.5-33.4c-762.1-127.4-1340.5-638.9-1570.2-1390.6c-50.1-167-56.4-215.1-56.4-538.7c-2.1-380,12.5-474,125.3-758C3028.4,482.3,3598.4,66.8,4515.1-102.3l250.6-48v-1785.3v-1785.3l-171.2,14.6c-265.2,23-507.4,87.7-739.2,198.4c-254.7,121.1-409.3,225.5-668.2,444.7l-194.2,162.9l-156.6-139.9l-156.6-142l98.1-100.2c198.4-204.6,540.8-451,829-593c325.7-162.9,593-235.9,975.1-267.3l181.7-14.6l6.3-317.4l6.3-315.3h219.2h219.2l6.3,338.3l4.2,340.4l58.5,12.5c661.9,142,1225.7,492.8,1595.3,991.8c315.3,426,469.8,862.4,490.7,1390.7c12.5,332-10.4,528.3-87.7,758C7043.7-261,6590.6,39.7,5548.7,192.1l-323.7,48V1825v1584.8l68.9-14.6c355-75.2,812.3-334.1,1033.6-584.6c45.9-52.2,89.8-94,98.1-94c23,0,344.5,231.8,344.5,248.5c0,29.2-294.4,313.2-432.2,417.6c-271.4,202.5-737.1,409.3-1014.8,451l-98.1,14.6l-4.2,578.4l-6.3,576.3l-210.9,6.3C4888.9,5011.3,4788.6,5009.2,4780.3,5000.9z M4765.7,1881.3V294.4l-45.9,8.3c-27.1,6.3-104.4,20.9-173.3,33.4c-325.7,60.5-657.7,181.7-841.5,306.9c-231.8,158.7-426,407.2-540.8,695.3c-102.3,256.8-121.1,361.2-119,668.2c0,250.6,6.3,300.7,58.5,448.9c219.2,636.9,758,981.4,1584.8,1010.6l77.3,2.1V1881.3z M5669.8-271.4c628.5-104.4,954.2-296.5,1138-672.4c110.7-231.8,139.9-365.4,139.9-682.8c0-342.4-43.8-530.4-198.4-847.7C6469.5-3050.7,5983-3472.4,5413-3629.1c-85.6-25-162.9-43.8-171.2-43.8c-10.4,0-16.7,780.9-16.7,1735.2v1733.1l100.2-12.5C5379.6-225.5,5534.1-248.5,5669.8-271.4z"/></g></g>
</svg>