<?xml version="1.0" encoding="iso-8859-1"?><!DOCTYPE svg PUBLIC "-//W3C//DTD SVG 1.1//EN" "http://www.w3.org/Graphics/SVG/1.1/DTD/svg11.dtd"><svg version="1.1" id="Layer_1" xmlns="http://www.w3.org/2000/svg" xmlns:xlink="http://www.w3.org/1999/xlink" x="0px" y="0px"
	 width="472.823px" height="472.666px" viewBox="12.182 16.331 472.823 472.666"
	 style="enable-background:new 12.182 16.331 472.823 472.666;" xml:space="preserve"><a xlink:href="http://logo.webnhanh.com/logo/paycoin.svg.html" target="_blank"><g><path style="fill:#0096B9;" d="M91,429.021c0,0-78.817-58.738-78.817-176.357c0-117.618,95.188-236.333,236.438-236.333
		s236.386,117.618,236.386,236.333c0,118.718-96.15,236.333-236.308,236.333c-54.268,0-85.029-15.778-85.029-15.778l-0.667-87.585
		c0,0,24.717,24.335,85.721,24.335c61.008,0,157.307-44.082,157.307-157.305c0-113.222-98.703-157.305-157.513-157.305
		C189.706,95.359,91,139.444,91,252.665C91,365.885,91,429.021,91,429.021z"/><path style="fill:#0096B9;" d="M107.861,442.495c0,0-0.17-123.268-0.17-193.678c0-56.913,46.956-137.034,140.925-137.034
		c97.281,0,140.87,84.82,140.87,140.85c0,67.62-53.835,140.833-141.223,140.833C183.959,393.465,147,350.921,147,350.921
		c0,30.907,0,115,0,115S124.35,455.969,107.861,442.495z M248.724,150.754c-56.282,0-101.907,45.627-101.907,101.911
		c0,56.283,45.625,101.91,101.907,101.91c56.284,0,101.911-45.627,101.911-101.91C350.635,196.381,305.009,150.754,248.724,150.754z
		"/></g></a></svg>
