<svg xmlns="http://www.w3.org/2000/svg" width="2000" height="2000" viewBox="0 0 2000 2000"><path d="M1000,2000c552.29,0,1000-447.71,1000-1000S1552.29,0,1000,0,0,447.71,0,1000,447.71,2000,1000,2000"/><path d="M1151.4,1705.52q-151.41,0-220.67-72.48T861.48,1476.8q0-30.59,12.09-51.54a88.61,88.61,0,0,1,33-33q20.93-12.08,51.54-12.07t51.54,12.07a88.61,88.61,0,0,1,33,33q12.08,21,12.07,51.54,0,37.06-17.71,60.41t-41.88,30.59q21,29,66,41.07a326.6,326.6,0,0,0,90.21,12.9q62.82,0,113.55-33.83t74.9-99.87q24.15-66,24.17-149.79,0-91-26.58-155.43-25.79-65.24-76.51-96.65T1151.4,1054.8q-38.65,0-96.65,32.22l-70.87,35.42V1087L1302.82,661.8H861.48v441.32q0,54.77,24.17,90.19t74.09,35.44q38.65,0,74.09-25.76a262.27,262.27,0,0,0,61.21-62.82c2.15-4.85,4.83-8.33,8.05-10.48a16.06,16.06,0,0,1,10.48-4q8.86,0,20.93,8.86a43.9,43.9,0,0,1,11.27,29.8,205.65,205.65,0,0,1-4,22.54q-27.37,61.21-75.7,93.43a187.74,187.74,0,0,1-106.31,32.2q-143.36,0-198.13-56.38t-54.75-153V661.8H481.36V579.64h225.5V392.81l-51.54-51.54V299.38H805.1l56.38,29V579.64L1444.55,578l58,58L1145,993.59a239.58,239.58,0,0,1,67.65-16.1q58,0,130.46,37,73.29,36.26,112.75,99.87,39.48,62.82,50.73,120.8,12.1,58,12.09,103.09,0,103.08-43.49,191.67T1343.07,1662Q1254.48,1705.53,1151.4,1705.52Z" fill="#fff"/></svg>