<?xml version="1.0" encoding="iso-8859-1"?>
<!-- Generator: Adobe Illustrator 19.0.0, SVG Export Plug-In . SVG Version: 6.00 Build 0)  -->
<svg xmlns="http://www.w3.org/2000/svg" xmlns:xlink="http://www.w3.org/1999/xlink" version="1.1" id="Layer_1" x="0px" y="0px" viewBox="0 0 268.004 268.004" style="enable-background:new 0 0 268.004 268.004;" xml:space="preserve" width="512px" height="512px">
<path id="XMLID_197_" d="M179.02,135.402c18.313-13.729,30.184-35.605,30.184-60.201C209.203,33.735,175.468,0,134.002,0  c-0.174,0-0.346,0.003-0.519,0.009H73.801c-8.284,0-15,6.716-15,15v237.995c0,8.284,6.716,15,15,15s15-6.716,15-15V150.41h45.201  c0.142,0,0.283-0.002,0.424-0.006c24.73,0.229,44.777,20.416,44.777,45.198v57.401c0,8.284,6.716,15,15,15s15-6.716,15-15v-57.401  C209.203,171.006,197.332,149.131,179.02,135.402z M88.801,30.009h45.201c0.15,0,0.3-0.002,0.449-0.006  c24.719,0.24,44.752,20.424,44.752,45.199c0,24.924-20.277,45.201-45.201,45.201H88.801V30.009z" fill="#FFFFFF"/>
<g>
</g>
<g>
</g>
<g>
</g>
<g>
</g>
<g>
</g>
<g>
</g>
<g>
</g>
<g>
</g>
<g>
</g>
<g>
</g>
<g>
</g>
<g>
</g>
<g>
</g>
<g>
</g>
<g>
</g>
</svg>
