<svg xmlns="http://www.w3.org/2000/svg" width="1699.47" height="2000" viewBox="0 0 1699.47 2000"><path fill="#ccb18e" d="M0 803.3 337.72 599.32 1697.47 1395 1355.47 1595 0 803.3z"/><path fill="#0d1006" d="m1699.47 598l-1364 800v-400l1364-800v400"/><path fill="#f88900" d="m1355.47 1194.87v-794.87l-340-200v799.17l340 195.7"/><path fill="#0d1006" d="m1697.47 1800l-342 200v-405l342-200v405"/><path fill="#f88900" d="m0 803.3l335.47 195v402.47l-335.47-195v-402.47"/><path fill="#ccb18e" d="m1015.47 200l340-200 344 198-344 202-340-200"/><path fill="#f88900" d="m1355.47 1595l-340-198.59v403.59l340 200v-405"/></svg>